<mxfile host="Electron" modified="2024-07-05T05:48:50.270Z" agent="Mozilla/5.0 (X11; Linux x86_64) AppleWebKit/537.36 (KHTML, like Gecko) draw.io/24.6.4 Chrome/124.0.6367.207 Electron/30.0.6 Safari/537.36" etag="eeCv9T3I6wUWEMJNUHX_" version="24.6.4" type="device">
  <diagram name="第 1 页" id="7HpNh7ogab_S9e64tvCK">
    <mxGraphModel dx="1728" dy="1006" grid="1" gridSize="10" guides="1" tooltips="1" connect="1" arrows="1" fold="1" page="1" pageScale="1" pageWidth="827" pageHeight="1169" background="none" math="0" shadow="1">
      <root>
        <mxCell id="0" />
        <mxCell id="1" parent="0" />
        <mxCell id="n95YTxJWQmj0WxtYeSWK-15" value="" style="shape=image;aspect=fixed;image=data:image/png,iVBORw0KGgoAAAANSUhEUgAAAVQAAABdCAYAAAD66p7JAAAACXBIWXMAABYlAAAWJQFJUiTwAAAAAXNSR0IArs4c6QAAAARnQU1BAACxjwv8YQUAAC3ISURBVHgB7X1bctTIuvVKqUzst649ghYjaPN2YsfBiBHgHgHFCDBvfwRwKDbwDIzAxQgwI0DQJ3acN9wjQD2Cdr914JLyz6VUlrJUKSlVrrLLoBVWuJRSpm6ppS+/WwrsEKaIxyGyWIzEHSFlBCn2pcDvT7LPhz71X4z+Ow6keJhL8TtyeRogSx/jP6cYMGDAgEvACDuEMFRkCvEeEupPgH/qx5l3A3kQKwI+FGpBKFTVEV7h9uxx9tsDDBgwYMCWEWCHkGXhijSpyHGMC0BJq39gwIABAy4BO0WoUySp+rckkSphtQ+hRislQg5D/gEDBlwKdopQCSFFfYjvTaiBED85GvRSGVB/iwEDBgy4ALZKqCSpl8HB65fh7Y++dXLIT/Wyl/jXz/WyV/jX/hT/FdllEvkKKWbzkZeEOgqyyavw4Ou/w9sTDBgwYMAa2BqhvgoOno3C/KsyLB0pMTHuIQGmyrD0fL737aZZnuA/S3pQtiXD0ZdReOONXS4z+VyZoh5wUaqCd8qmlSo1gp9RS+CeqhMFEMcDsQ4YMGAdCGwBL8M7x4reJnaZkjwf/E/22ww98TK4faQs/nUyHitj1UMlkp7KPH9Ur5NhdEoifbX3r/3H591uUyRoRf5/2mVCIn2cf76JAQMGDPDEVtympMjeCRlM7DKlG91HTxhibmR9gX0RBivqhD3k6TSLbz0+T7yG+3TXWvm2CJng+0dcW0/L/2dAD3e1qwc/uLtwvrtyHjbUO1QYa+vP9J1aEuwuIlT90Qfkl4dqed6zXh2xWu6v285WhvxP5/+boNaxlER5Hz2hpMS4/J9yMT6pZr0oq/Zd7FMM3cPMKxigqIvgXr3sPDt/ju8fH2vL13J5jeuFLygcQhYLRxu8jiNcHqLyuPZ5mPvZW5jYIOJy4fswsZYYuwsSI++b+Rh0gR+y99DXxX58kedu7lOf4y+wNR2qlMUX0MbYZVzqAvWgHHpzUT30A8vyIH9gytSREpZZ+7xFTyida7xcIpMp/i/FgOsKvmAR/D1EYlTkx4UEbT4yvfushajneQzQmFj/fYiNglZa/uZ+r8t6bXWacK92Hr0IentW/iA/WS0Lf8WOgd4Csnbjc6x8DAZ8/4ishRJljN2W4r5nMLLRHuFOoAnyWY86kUedOmKskjDXvQl6a4Sqh/01PaTAPewYZBDG9bI8O0/wY2OILhtwlaDt45GjfApNbLFjWwqt93TVoTogQjfa1JIRPCTVrfqhSilqPqViv48DvYQ8k1YsfxDO36jh+YntWyooTQZycfMDIdOy3NtdanlVzobh/oABV44Z3Oq7CHoY7tLz040ycZQflnUitCNu2ZZCk3MrehMq/UuZ1cln3ywP3tSKxuFo7q2gn+fBXS5mnS5Qj7PffrV9S9X67Mn5b2/sdfquPs1+O/E6CERsr+WlntYHr8Lb7+vBBdcIEQYM2G1M0Wxpp7ToGoY3GZO5XxupTlq2pWohD3UKab0IlWQqBaZCCi+9hCa+2rA/D7yt76zf5pjfJO1O//aTMF9g+cNALwFfIlZkOpEQh6PgxvshbHXAgK2A735bprgI2mBlI0GzOxj3f9+wrWm4n0KTaQoPePuhvghvH8qFyCtiRhL5OOrT6i4sUVr9vtNVpzAUheHreRYuSaOKuKK9MHut1ACfhODNzp+9wgHOs+CW2c/sc56dP+ocugc1cu/le1p+VAT2R+p4yFof/HVDigEDdgMJtJG4ifBculaOMuOG/T85ymI062W9yZTwklApgQmIpS9BCD8pNcvCBLaorAioS6LLg9EhSXs0yt4rSfCYZF4cczSPKBVCiNfq/3FhnZe6jpKeH3Lf0Sh/z32CcC9GB+rk7ut7qqVTe3ggJr5qkAEDBvTG1FFGTqHX0Klj2wzu4TnJ12VYcnEZ220i0/toIHhPQk3O1FB/yZWIhOIT717UrfmkejvdSxErcmSkFB19Vz0HJE7P84V0yhDViSrz0tFSkiW52235G6OWPyZUFfgmYRkw4JJxndRR9P+l4BbXylMsuzJynWTXpJ4jH3xw7P/Gse+h43hv0UymfPdnZVtRfaO3DjWbB1M7MklXFq+99Ic1n9TQY9hfQMpHUuR3OfTn6quCwC0jkiJEHTaqpEtlvOK+0tOHdK+sZ5AL6RUQsCqdqnsj5HPvJCzXA9/TtfzouC6ESmKjgDOBO6BiWv5PoMmuS4CZQfdjjjpvoVmvansLcH8jxZ417Dstf4/L81y6v96ESsJQpFPXV4zDIO/0zaJkqQxZqVkvhu0+CHAvkOL+3ih/aBfngXzAjFSFtFrmOw0xj4K5iALIn7zaroWb+vue1qRTyNk6SV92HH0INYKWLCJcLu732HcTpDIYHpcRwc8VyRddPuop9BDfV6dJwr0JTYBN/ZnvclT+NmTKerFjoeRc57oINXVBLyu/toAvG26Y9clHSs0hbclx7KVzLIf8qvKEq+dZeMJQ1DDHPSUtf6Vfq/E4EGHwXobUq/qRtbTCTX19T+vSKSX2HyTmvw20mlKy2OTL5QMOuSYe+7F/kPAvQoh8kT5igIGRzmJs5rlHWH2WKZbzInB57yhrWv7Eam6F+jLF8jUdYzW/hVkmcOMIFtH29kNVw+96iJeXlFr3SRV5d/YpJYW+pU8p9aRV4ULCnfHYUujggbmy9DMP6oqblgOlu9TiBfP3PV2WTvVQ/4cOAuAQyDzHCLrDX4Ykt48qXr8LAm73mnWOed2SxmwLtmTH/xclVS8D9w6D51+8B73T93Hep5fy9nNa2k1ZKaW+afcZTc5e4nay0IHqCKU3bccSUv4SfrsxkWGWIsOsaCO4faKYtiRwmTyd/zblrz18G+dZkIpQoBOWuxSlzCd5t+9p4YO71Glk8h0O9fuAnaj+ITWks20XMkPiPqqJBPpc+cx5vm/QHzPo62L9D9jttHfbhuu5R9Ck2svFyKo7qZXRntH5Tl4yYjQTPz/uFCZurZUPVRHQm5fh7XuWgUhLqXlHaJZUnVEYi5rO4u8k4SBPIINn3EeRdSwKIQOzF8HBVLVxVKTxK2ZD1f6wuVIFyDD/YlNpGGSnioSdWHKX8vA91R4B+cQum2fn2yYNX/Ahx+iPNkmS5HHWUbdphDFBc1z1pnC//O9LqCmqJBdcP0U/nFltUNK9he0Y7qbYLNqe8Z01jkf7RNNoNMJ6pOpSpZBME+wWukbUkVqO104wzaF/McVJCR8pdZ6HM1WHBFA86CIMdb5642jEUm3dVCQ94boUMmWIJ+P0pQxOZZA9CvLgF0WGinAZu//3WGBvJhFExbkE2UlTpv6SHBc3x0cHuhfk923plAaxHRrq/xObz4rUqY7pwFQtf2E9abALEfpfL6VKY9gsJAn0J0TTRgT9EXuEzYPtX4bKhIix+X4TQd9frzBNLKsObPT94F0UEXSfb5OKf2ko53XSPpRwWdGhMkoJHuDQX8olKaRTl7rik9oShkoSUyT9jAvneRqFN77SmV+RqDJEBR8Vqb2hLpW/y20TFIYmGUulr22aGHDJXcrD95QEzHBbs16Ep84/T+EB1uU0LNgukjWXbXfappflooit3yn8YL8oEdZLQGzfryNsnoyIBNcf/PD4kunUUX6Gy3fb47lw5NH2rrq2pdAfZ/YH9rGzJUItyCMcffQlARqalrLm+1j8LZ/UoCWdn9Q6rwvAPTGgkmIXw30f39NRKJf0Juf5t7vwBKO28mw0wXbB+3l3jeVdS5vsJKJjaVN5pGUbKTaPh+gPkqH9kq5D9kltfRuGFLoFiQ0ubc/obMPHMssU3XjWst8nXC54LhNUnguRYx+W1TkxhUO9sUSoJXmMkY+8sigVvqlBbj+0sSKR1o5mT4/CYXRTFn9RTsxnz37quyyuB99+Wm23cpfq8j0t1APWZIP0OvAd6nP6bEZtceqX6W4mT2k7pz9xMWyLTGMsd2yqnCJ0kyP7W10i72v1T7FMyjH83LZ2FW168G0iQvt9axt2bxoRVl2nXKQa19ZTNOiKlwjVkA2JzjeLEgmSRLMoUEajLjJWw/5q/44s/swcZZa9bzfujc73ju1Fld2392nLNFXLzv+hixxt6VSHl357Aw/QIwBiMawcj4JsguuFv3AxbGvIdr+2/gf88XttPUb/YXv9uq67u88FR4FrIUW74SqxfvMdkltcvmIVEVYjoJ75nv+CUOlobxteFlmUPMCwVFidbS/ca+1oSlUwq46znI+0DpLgy/BA/ls71U+0Z4G1CP21exUefG3SmxrY2fkl5Kxt37p06utzWmTlErXhTMc1XhHaPpaXrcPyQYRlyabvObp0xn0JsT4cjbDbUmrUUG7u3R1cDVK4SSmplW1bz9+ECBWpmoVI0eHFsCDUUtJ8vrxZTAppqwOFsalwqteggahND0uDluWA3/5Qw7BoR0gRGTUAjWG5Pt5ZdUxwe9TaVqmz9cl7uiSdeoaXkoTrWbl4rHn27Qi7hyZCTbGbqPfDFN2wSTdxbI/RT0p1kfh97C6ihnJ+GHgtMa5uRtYUqzH5Nf5ZZHzaxtL1QTY+1WeoppRuJVNiyW2K1usX4YEihaqTUNpSEmL6JPv8rq0hEpSSEBPjmyrz8HV5Am5UPqlFGGqpW/VCYf3XvqmEl6Si1Rd5rBto9z3V0mnpdypxdp53u1bpPKz5R2kRVRGaqoxYOxpN1ZTzIMXuIcKqJOgz3Lf7Rlqu1z8kJOrO51vCJTHF5ZJi9/BzQ3kCPeQ9LJerkgRTaH37DLo/JrXtZ9iO58ME3e5pKbTqK4J2/5thnYz9T7PPHFrXyfONj5FqOSxVxG3x+vRJXeybBzE8IJG/Xcp4pchOBn5ZokLbXSoLW+ssWfZDv6G+Uo8cy3qc/+6SKdHUoS6qP90GXKOktPwfwR+poyyG/9C36YW6Cl2kD+KGchKoUV9cpu9rEybApSZobxp1z6CFQPp234TW4ablNi/BzRnL7yDV8V5442MXqRZDeSkXX/u2qVKoJlBSZlLsJ+RKh84D+cGOyw+E/Fnm8jTPK68CVe9EnsvT+lQm9C+loewJ/rOQYoTJLqW2PUbS+EXWbWndaRGWas1X1QStFqn0pNeATInrMuSfwK2nTNCNtLb+e8N+EfzQ1G+6MiVdBeKWbQmqa2E/2AWVlBdhbQAcOUe1shk0gZJbkoucS2NylDqpGss/OsCw1IoI26XUXGRvzX51jwKlfjh6kv12Ny9nMS0STYfBRy7VOS2XmRlSn+Sfb7G+3Z7xYOjyPRVh9RHw8TnlTAF1x/9rQKZE1FCeYrfQ9FFO0R8uQqQA8A7rg33uV+wemnSjifXfEMcuSKmXAV6nzQsJtERKIk2xAbRmm1qRVJXl/+XooNPyL4JsEZbXJqXaPqlNWfyLXKoQJ84GJF8QkrdMOL20yOfOYYPtLtXme6ql01IH7BFeWrQrqvDKa0SmtuWyjqvSp7nQ9pL7nGfdLSatrZNMp/BHWltn360bVnYFTcayd47fuyKlbgIR9HOnkEUBkEbiKbRkat7VBJVxKoE/xujIqNaZvm+FVCWOXga3W28+4+irsNR2KdX4pCri3W9sL/v0qzKKiXkW/FNm+V1RujzJIH9EKZYLp5d+DHf8vuUu1ep7GoTBsT6X7vDSwnAVjhYS+zUiUyJq2bZL5GAIK62VJ9bvNtKtG65S63dfMq23wf80qOwimUbollAJW1AxeQq+B0TQKg8KaRNUGbLYnyh09SVSA5O1rO6nuoBXPtRVSVW87koQbYeltk47zcxSRZPd7idhkE85vNdx+/R/naf8z8TPnKCvMRChdJdq8z21k0c7ZiZYAo9TWvSL/a8ZmRJRQznJ4bJ0Wb5IsUqqdv7aPpJ2Wv7n851iPfD+UAjYVjTYJtD0vvG+pdZ6gup58z56+Z1fY7AfzbAeDCkT/Fg5SdU7wXSdVIUMWsNTl8NSm6VUa+K9cVMYqgFJmpJvsYh8QWDqvO6TZJszXYm42/e0zPyvSLfLR3XPsuhfQzIlmqSXXZS2iBTLpJpY26KGOmcNZWznDdYH9aVG2tlVxA3lM0eZbVM4xO56LGwC64ZUx1j9ADtJdUS94VP4+YCSVJUk91OZMV9b/rP4VhORkSxfjA7o6vSwlFITZ8PGJ5VhqPlqZycZUxotvAhMztV8pQ0nGSw8AFp8T410qsmx3ee0TDR9WB7zrC+ZNuaAvVw0uQl5zlywNozPY4r+SFFl9vEh/iaLfoKLIcVuYwL3RyaFO06e75st0VLtte4z6osIm0fUso39bx23wCaJ35DqIlBgRKv2K3lw53H++blHw5zX6cEoyCMaqArLf5i9R9bswM+w1FGY3zfJoF0RR2We1NdoyOLP6VJGirxfKfJ2ujxJMTaT9a3AZOdv9T3V0mlXeGlJvFN9TJwpI5g3mZJIR4F8nYvsE2cfwNXCR7+2DZgEzw+wHviMp7WypjyVCX48RGh++Zveb95TjjyNys0YXm5h+3AlItkmLjIyacISqQZq6B7paKjbH30zTM3z4G4lEYq4zfJvh6WGcOtStcRGCVLsO1PuCf21zEdzp76MIalSit/d23CHkmeT7+lCOoU8aQsvLVIbopz2pSTTJiOYq67SuX5RpD/B1SOGW+/om8fyIoignaY3iT461O8dTYalFO26w/o2ksRl6FO/l2e0eHdGUshIl4lYD+H/62530uXkbJrHd5Wk+pGSamn5/0P7oK7ChKXKFilVncdzpRb46Mrin2XhqZJgoUgzcrXPaxBS+6sun2dcZOfPrDwDq9Akf56dP2q+XiustCeZMlmKQH4sd8fPr0lHNsPl4BdsFi5p+7KGrLuECM2uT3fRjqRcYqvM6Im9Rq5rgqPGTauZ2oxr5IEZtoilWH49hL/xhZPwNZGjwQqpasv/aVNMfjllypdASXmKoE7qesRsPiJpnpVZ/JPasdKXOGg7HchAntb1qszOr0i80ffUSKddPqdMFK0MYVFfMi31rVO7LJBXTqyuqJ4U289Daa47Kn9vQhpu8qf9hB8PHxvKTWKPLnC/uFY2Leu+w3aQYPOIcIXeCsE8C24uxcezgypy9M0yZQ//2yz/Vliqc6oUMz2KaDCYKOk1dZGRTmTCCxk5XtAi3NTpe6rriWddPqcmUXQfMqXagiqUpTR+jOIK5KOuD9WWMYF7SLhNKcTAfnYRNoMmXfAMPxb4rkaO8hT+7mEJ3MQ5w25n1NopBCQ6ZZC6WU/d56tXrZFqGfPv9gc1YamNU6VwehQl7Tq3CZzKMn2fCy4dqdLdxkpR4JS8zMR7beGldqJopVZ44EmmWl8KOweqTOb5t1s+eQG2DNeLkeLyCWgfm0HsKDvFj6U/pd506ihP0T3Ur2MK98hhhu8nkmqrsPKhfp6uSqulXrUHqS4s/w0ow1KdUmqhLlBtuMJQcykZ9bJCqCHmkctliu5S6lrOXPparVvFpG1KEztRdB7IB12+qcTL8OA+1RqLrFNGKs1+2wU/1QncBHRZceiR9XtThOoazXhlH/tOwPvY9JHmc03RDyma7x+H0Z2j1h8dtUn6VqXVhV61I9x0WVJttvybsNQmKVUd70PoeFECIU/V4s7hKRy5Meku1eB7qvS+D3mgcqaBFZBwg9KiTzL9n/Pu5NKFakB/yctr2hmplOA5uV4GPuerkOYiXBwR3HP9zPBjIIJ2b3KBxpd1n+sUzUTMbd97NNWF4E7fV0qrVvo8L72qIdVCym2J+S/DUs9cUmoRDaUDB2obMncHCekytdoBCl2sw/e0lE6PtM/pqoO9ZdGPfMjU6EuNamDHpFIDl46N93OKy0Nk/b6DiyN2lF2GLngXEKHZh3MTluw2P2H28y+4XP/Ra4PG0FNKqyQFZUjiEL0gHh+9Kknq3JAqSdgxFYoJS3VJqaVP6mk9VPUcN86k4yGqCxgr/ebpchucigRjl16VyaPbpjTZC7PXvmTKbFPL+tKdkkoN7BhkgxSXn3JuXPsd42Kof9wT/BjSqXEkj2rlfEf5TGe4OBLofAdd53CIAUvojOWnIUlJq7fsHKddelWS8YJUG6akLueweueSUhUZvmN0VL1N4VCY55xrSiz7oNJdihLo6nnF9FeNzzN3eKl2cxKHXmTKPKjhSCdI2U2plKARalorS+ExN84WUFfvxFgfEywTCvvFA3z/4PN0kWkK/Uw79fw9QKEgadkeQascBhWABa/kKHVp1UevakiVusomyz91mIFj3vrzLDxR0qv3sJA+rPa6RHDH5XtK6bQpvNQkiqb+uItMqS8t86COd1QqJWj9ndXKeJ8uI0vS2FFWf57rJjV26YPZL1N83+A1z7B6z0ii20oj6JN4mRzwFRcfcfhgHzsO72xTRE1a7dSr2qTqmpK6GPpDPhqN8mcr5VL8USfavCG8tK4LlVL+VSdNI526hvomUTTJtM0nlW0oY9uXQl+6u1IpYSfTNTAp586wfVBymaIyYlCqimv7tEW0tKEeXsnRxgzfL3ifeP+mtXI+R35IfsX2nmnq2X4EfY7H2K5ulcdQbLJIIG2SR09QzeAa4QoRkCQYDupbYUVapV41OPjS5tCvh/8idpFv4Y4k5f5K/SA/KcJQuy6gNtzX5CidulOXz6lJFN1FpqW+9GPh5L+GVEo3rhfBwRTbRQRtMLBHDnwZ7uJy/QhjaInK6G/jhv0m0OfrC+rsptb6ukmi6+A9Yp+htDeD/viwbfbxdbITbQox9P2Ja+UJ9MfxMkZFvC+++vYJNNFNsB1QYk5QeXhMoPvYcXncL2iOGLsUUEI9CyCOX4UHX/sQ65K0KrDfplddSKrqBtBXs769CEsd3XholxU+qbXZUOvkScha9FQehlFdCi0Smwj5h0NqLRJF50qX20qmWl/6pThWT6mUREpDXjnv1TpDXB+YYTA7lP0RIjHcxHZC/DYlFfm2E2FZot0UmRJGFULi4Et7VLb9Bpcj0ddhpPe6vjRBNXVHistDAn8ddYQqvHjT4AeP184+/a5/9e3fs6CYfVSKlHrRvsRqS6tM/qH0ql+b9KrW8P+obvnXeU7lH/VyWSfQLDutJ6EWeZYsXZDL+T/IJy7CHAX5szYyLVyiFvrSflLpMpGWXgAtOVkvgAk0kU5RXXuCSirdFiEkG2r7d499IiyTyybJdNdAwYJDWvs9SnCxqTs2gRm6h/8p9Idpiu1+iFLoft+XWFNsGVqHKiqF9jrEuiytNutVSZzzPPhV5uHrujTLNvJsdGiX5co4ZetRGfppTw1tyqr21b7Bsr9qkWC6nGbFRmHRD/BXC5lGSrerhy89pFInkRJK55pl55s0HMRY1VslWG/ysXXAF+aifp8puoetfP7UyUbl+kWmL9llxNBEWho7CySonucMVw8jIaaObUZHv8k+3oUUFbGmHfue4BIIVZgfhd+nDCaiFu+t1tMM8nlbrlAbhYQqxDNFIIo8v/3alJiE/p5MVm0blCih5jIYN2WsWgfMKPW4du4MK1XnuN9EpiRFTtgnIdN5dv7Al0j1FNR2DD8hGU77gUm0p5vL1E/pxQx/2Sa/0jNcTdRTDK1uiHvUMedM8kg79o1Q6cUoIV3FNfogwuosqwZdHzgKEibqydybE1ydNNqFCPpDHqMyjs1wtYjQfP8TbHCq6DaIekFJdopcxTM11I2sHb2JtZDuwuxYQETnmXuKEO4TjlaH4jT+tCUh0WQnHkrtf3pKn9LGePzF1CnV9uLcguywKetToS/lbqF87jO8dxKpkkaV9Kteivxkkx+HGibQkswMuzO/EVU2PKeoYTvPM0V/UozK/yl2F7zuKfQ5mus0v32ez6TcL8HuPM8uTLBbyWj4UWIfNPefo9lL/TCJto0uqbUPsVI6LIgZ8q2LwIqYeUXevtKvTtYs3tcuIG0i7T7HM1OUKKVs5COVuiXSrUijAwYMuCYQPju5pFZfYi0k0TCfBhJfXfNWFduVBPIUSYIOUK/rCj9V1ve3T/PPR131SciurFFaas3fK6n0XZdUukKklyONDhgw4BrAi1Bt1KVWX2J9pQ1c9zjViMt9yUeiexkeSPcWmRTeBi1oOoZRIbjOq77fskQ6SKMDBgxYRm9CNahLrT7EWkijQT7J8m+zdaKLXgV3vlZzYFXwlVDrKAxoSjxuk0qXiHSQRgcMGNCCtQnVhi21+hArpdVcKY59kjYvHSc4eMMMVfVypaP9tU9bWl+aTeb5+UmjQWtJIpWJEo3fZlmYDNLogAEDmuCy8o/XJQ1bamXLbcSq53T6G30kVRK3kMFKaNmT7LP3h4HXF6pzbCLgBZFKsa+k0beBmJ8wKTbWwEXu5YABA64fVoiIpBXI4JhSWQZ8YtamdYbnRmoNgDt9/FjbUEiWYU5fs3FV2q0/9UElkRbBDWtJowVZY74fBMEdpZqI1e39S5H9IQYMGPBDwCnZFRnoLXcgUfh0ySTP8CHD+WkfgjVSqyKp+2qY/+6ixFo/txzywUXaNEapXIjf15FGCyIOxL66SffUeRk/zALz7NvNHcxENWDAgC3BSajF0DoPXjPpibMW540KkMi5/JTBX5IrpNY8iBmj30SChqBkLk+fYtXwU0ZiLZJkuEirSHqC7DAPRIQ8T1zt6JDUIIaQp32k0SKbVRDGLgJdgFNOC3nyOPvtAQYMGPDDoFX3WAxhmUJPCuY+VfpL+Qt1i6rWMoksCDZXEuzotIucdJTUPArm+ZkdFVVMdCeqpBAup/1y2P+nOe6T/PMtu+0ym5UdD003gEcmsGBxbKGO7SGNGgJlwmupJWOrXR2RwYgtKfG7FMogt6ck+L+vRCqNGspT6HOuE795RmNHnbPa9rFj23iNuuZ8bHA71SKRVd9E35h2IriRthxnE+dqb3fhou023duuY6Qt25raWQeR536pR50+5xSjirojTrEcYedz3RH8kWK9Z7lyTWtZ+Q3RcpoSqaTAVaJVVnEpPjVJhw1tRqV+tI4zZcVfmsbZDPvr7lJFwhPhTJxxxkkHfaRQJm0ZBXuHikB/KScLHO8YcTZhguXJ+HjOTFgxhe4E9sRqSbmN/xmTfWi1w3p2bDa3vS7rchuDM95Ad3iWx1bdpNyelOsxquQthijtmGp7TvkTq05UHt9I+DzePSxfG+Pdj6w6r7GcujCxzmVctnG/tv0DquQsEar49Hr9JsRYTaqcYPka7ftUvwf1+tx2q3aMen1e97T83XX8evo/WPUNJlieAeETqnymZltUrtcJxBCMnatgBv2sxrU6Ufmfz/kR3OTKOiZ89Hm5L8vM9bONP8rtPC+73yaonhf3+wo3wbrKBJr781tUfZP9zSQ4T+FIbr4RtymDZqKVp3SCbxrGE9ootGrBX5yoxNREWjFRsyI8RZ75XeMPWpduV5DNo3qmKn3O/xXtYS9GiDvqXKnrPdtx4mxDhCpBBH/b18sOOIV7VkzeN6NGIcHUJ2gziaJd06d8LY+VQL9YLnCf+ovMDvwFVcq3s9o1zLCcg9OUA80ze5pzqdc1YPn98pg34cbHcvsD+MMcN+1o1ySxaapPuO5/V30T8JJg9RlMoEmXYHKZE0f9uGzfdV8jVPd9huX7YurZhFo/pmmT7fB5j9HcV47Lurz+N4722Ibdp6eoPgbCcc729bj6KY/xsFZ3arVZvy5Y5+Hs6yNsEIUEOC9OIFHWIqu8JFqlc3yBg1hAKtJSL1CWnZohv1IVpCO7Ug2UPJUEioJUmY5PBg9JploFkPGrFjfV5WSBj0syXdKvlsipR907f66Ic/UlyvA9gCQyRfN0IUYCjKGJk5JbUm6LyrqbnrdpUv5PsCytpFgvefD3At5/vhObugcz6I8liSyGm1DNR2aGfkjgn3gkhb6mh6iG9KfWdp7fpKEuz/k1+iPp2H5Sno8NM5KJoMnT/thPoKXiW00NbpRQm7BEtEvl9NOMI+ZJ5fJCHDxX5PesqZ2CVMPb++fz8MFemJ1oD4L8oxqaR40HV8N1RZiPyuNF+MffePz3/81WuPv7IE4X2HHZSUim05b9eI++lL/ZeU2nYadKsPnpNsyQ8LA8t9TadoQfD7wHZuJC3utP2NwHjMNWvlckCte9jbF+bts+05Gn1u9xbZu9znMlic3Kdf5mf1wZYTaA+0/Rff8SrH5EWJeClVGXHJVtReV5PW9r91IItQmlTnMhnTCV34vRf69MfWJDkSeCMDs8z8JHjHbKpWj8klMStqOhipkB/saPhAhaJ2V0qW04LffjS72PqkPy9y1sHjweX3C+SOy8tvR8hh8PKfRHjR8wc082NakiCfoZKik1sbZNyv8z9Afb5IwLJ577/2L9TmvbuM5rNXpZ3oc7qAgshT+Mrt8HLtVOAn1N/NjzGmfl/xQdgoU3ob4YKb2llh7PhDbSLE1RIsoLlkKcyVxPbFYM7XO9b45q3wzz8vc/zuqGolInmsAH+XpSkz1bQIhR8TuAWJQZdYAI8JPSA5sv51iWX1Ehq32LPAZKpcAJAHfM55S6PHZK87X2Afczxp+HqDpmis1jhkrBz+W4PLaPauFOQ/kY1xsz6A+YuS8cKTzAxcHnmECT6UMsv1/8qPkS4hiVrpe/p/A/vxhVztemZ2w+KAbcn6RmRliXCV5XjMqgS3QKFt6ESulRWdfvFNb1hTVfRGY7teIkFrUUGl4ad9SPMxkW65wIsCJOeaMU3XO8ErdT/goz+eX/4X995hfqjUVILPSkfkrK1ecfYBxI+VO5W0WYlINJmnm5ZiXaLtqwVdjq47KDZEqwI0bl7yP4DdlNZ6dUy3uRYvNDfftYVOxPUVnfD1HNbNr2AsXo5xZzncBnxQ8GiXUCLQFu4hnwfsaoSIL3PyrXfUnRPJ8+IIEbHe4M7R/oWXlexqsEqIg7wmY+Lr4wwoQ5dy/BoteQf56Fv9K4lI2MhKmudIct4CaWvhjqZ44hTY7eKOat+sffBfGG81GUZaN0R6Oh2BHMi8mRBaWQ1KOeLa1se+idQpPGFMsuPlynDjFpqNdkXKMl97pLqQT1ksYizueY4OJIUA2pJ6jUADP4j0C4ryE1tvPVow7VSPxgxtBk/Khj/5NymWLZnWsCbdRKcHmwjWGpT4VehLowLs2xERiXpcUQu7T+P95A3D9B8n+Z396nRMrhO2dWpeuWT/BB8zmren8viCbFboOd37yYHErdxW4ihVZRUDozHZi/E/yYSKFJ1bgRcsSwiY+bMU5RtTKDJrk+RiUbbUP3Oux+yGvx6YdT6HM0fqlEjB3vE1s3Smk3pW+Rord9ORK/KJ1kVPimgrpKfFBj8NMsC97YBGfCQrN8udwXRXpApd8t55NKisK8DH1FEI9E9uwlDtQ5yFMIcboJot1RnEJLc3yJYvgP/fvA536NHfuR4OsO3sZlhf3jJ3xfcN2DNiSojIQRNgNKXKYvTLDe/F42Zp77paiGzzHc/ZDlRodu1+P6R1wTbIxQm4hTijyS6jBav1rMS//hPA/0bKfWkJshnghG99SO+4oM31Jny1lQp+dx6iK5qZ5emsPvQu3wAnGcqQcQItunhKtDTIPJi/wAJmKrbvDSuQUEw0rviTB4TT9YRbRnq0Q739VhvQ+m0B2VJGWGjxd5ier4vWx7v2F7DE0mp47yI6wazLYp/RvPgghugovQT6dokFptNrW7j/73nffnF7T4WPcEj5+giizbhE5yAn1Pu6RO+2PpUkFFZVskXteHh2Uz7DguTKhFur88ODbEWYAWKilSRY6Jst98Ot87T1y6VpPoWScaQZqL/J0iveckQ0WQh+fnOmxwqvvTWPurxqbTMtl+hPkI/w5vx1mGJAyzfYaoFtOtZN9OH8//M9XEislLefuZnrKkcqNyE2xQxO2rfZmEBSIU6qpuGKI9UXrkRzssxdr6w3+i8tszQy7CDP3PPNoYoxvmReG+xk/PIEblx5o46j4s659Z9VknxapRyudcuvadodmCboajKfoPK43Bx1yDLWVF0BLWDM0fibZrs30iu+Bzjyj1xvB35O9qk9ebwA9G2mxSQbHc/sjG0M+J/YP3Ia3tv84oZhP9qBECG0CRAQriPkM20UKgBkWY6Si4p0hrovSmJ/ZU0HoaZymYzMSepVRPCT1KmZR6by8Yn5/fSOmPqki1sNxzbqciGksGPz/JPr/jOYlA/HQ+D95qw5SetjrI1cuvzjPP8O4p2rP8VwQrCzcdn9lQrxDsqHGtzHbm53+j5E/hNuyYEFO7I3Ffvght9+oQlWU2RZVsgtJIAvfLQCI1RjPiDFWsuiFZAxPzb5/XDBUhso1jrMbyu44boSIoHuPU41x9MEEV915v96Rst/4R47b3qMhyBrfUGMMdGlqvj/Lc76KdvGlMeoRuQq3f9xSrzvk8B5L0UVlW70Pc/025D1CFe5ptb7GcG8IITNz2qfzP+2ffuwjLeRdMW7w/CZbR1KebDJumfaOesOslWI7tX8FGCNUHy9KoYPjpzCbS0rXptR7uFyGlkdr/kMRKiVPtm5BImSGKRMd9SJq5MmLlWZious+YLq9M7/cnSVUnXMmU9Cyfm5j/+qwCTORin8d3jqi2nnZsb9vXhRiriTpSXBxRQ3la/l+MWmowJO3CPqphOnGKzahCYiyfb50MbLjOO23Y9xBV1qW2+kD7dZtzTNH9bJrabzte1LBPis2hz3VHaEbas/2mYyywdUK1pVG1Oq4TKaGlUkzm+bdfWW7IVRHkr2Ziv6f55ymTogT5/CQfBWMSJOeYUuuzLAz3A/qXBvK0KNdBCF8NqbIt3oSV41I1sJgaWyabSIA9YMCAHxcBtgSS1cvg4EuRQSrHRJHWOyaDphRpS6VFKj4h43ke3DVkSqmS0zpzn1Eon3GW1MJoxaE6gnEwH52Zs2dyFTXsv0dJVihypCRMg5Yi6LvMjUq9K4k5F+KPvfDGx3/r6awL0Hj1OP98U5H8AzryBxDHr8KDryRqDBgwYEBPbI1QSVYywAdFpM8VWd5UJHdUl0pHYf5FCvFJS6Jaz8lkJyLLHnFfkrJQbMzfMtx7yMz6RTZ/fPuzOHkpf+b/XIq/SKSKRN+ORnmhJ8yy4IiGpTLhdBHplUM+UqT5WrV7bIef2sRKC78i8IFQBwwYsPswUqmSXv98Ed4+tMrHL0cHX17u3T5arCsJ1xCfIkEq34uppEtLf5lo2kjDuh7LtL+pPpYi7q+GVO0ySqK2tDpgwIABF8XWJFQXytylxxxeK33pLZOFvygfMQ0fPj0511OVjIL8GSVcSqfUwyoptHABUhb3X4zbkkBw9hL/+vk8C09K1ysmbHnOWVvLsNMU4ZyRIG8MqbLsPA9uKX3pp0AqaXXvX/sYMGDAgA3gkgk1OeOUzyQ0S49akCmd/KkWKMsiZS07zObfZlwXYUhXp0S3IhYEmEv5lwzDWwXBSjE21n8JmSpDVtEWvQI41Fc/Zxapnj3NPk+e5J//2XeW0wEDBgxowqUSqkHNMZ66z0+08JsC6lHzAO8qnas81DOTxmNRnxRLarcItmHyqFJK5RQpRvosLPeBIlUp/4kBAwYM2BKuNME0UQzL51UWcZJmLvIPRjqlflRJnEWMPYf+UgY2oaaLbP1BfiJkQD3rtHSdei7zkNsKCdSoEgYMGDBgW7hyQq2jzGi1IFilH01QRj9w3qm98NsDkwMgy4OZ2S+bj07xj79vmalMaNXHgAEDBlwi/j8uit1s2RfVagAAAABJRU5ErkJggg==;" vertex="1" parent="1">
          <mxGeometry x="167" y="630" width="340" height="93" as="geometry" />
        </mxCell>
        <mxCell id="n95YTxJWQmj0WxtYeSWK-16" value="&lt;b&gt;&lt;font color=&quot;#ffffff&quot; style=&quot;font-size: 19px;&quot; face=&quot;Times New Roman&quot;&gt;KYUSHU UNIVERSITY&lt;/font&gt;&lt;/b&gt;" style="text;html=1;align=center;verticalAlign=middle;resizable=0;points=[];autosize=1;strokeColor=none;fillColor=none;" vertex="1" parent="1">
          <mxGeometry x="210" y="900" width="230" height="40" as="geometry" />
        </mxCell>
        <mxCell id="n95YTxJWQmj0WxtYeSWK-18" value="" style="rounded=1;whiteSpace=wrap;html=1;fillColor=#750537;" vertex="1" parent="1">
          <mxGeometry x="720" y="860" width="120" height="60" as="geometry" />
        </mxCell>
        <mxCell id="n95YTxJWQmj0WxtYeSWK-19" value="" style="group" vertex="1" connectable="0" parent="1">
          <mxGeometry x="64" y="366" width="933" height="120" as="geometry" />
        </mxCell>
        <mxCell id="n95YTxJWQmj0WxtYeSWK-14" value="" style="rounded=1;whiteSpace=wrap;html=1;strokeColor=none;fillColor=#571E38;container=0;" vertex="1" parent="n95YTxJWQmj0WxtYeSWK-19">
          <mxGeometry x="103" width="830" height="120" as="geometry" />
        </mxCell>
        <mxCell id="n95YTxJWQmj0WxtYeSWK-5" value="" style="shape=image;verticalLabelPosition=bottom;labelBackgroundColor=default;verticalAlign=top;aspect=fixed;imageAspect=0;image=data:image/png,iVBORw0KGgoAAAANSUhEUgAAAzgAAAB0CAYAAABJ/pcIAAAAGXRFWHRTb2Z0d2FyZQBBZG9iZSBJbWFnZVJlYWR5ccllPAAAAyhpVFh0WE1MOmNvbS5hZG9iZS54bXAAAAAAADw/eHBhY2tldCBiZWdpbj0i77u/IiBpZD0iVzVNME1wQ2VoaUh6cmVTek5UY3prYzlkIj8+IDx4OnhtcG1ldGEgeG1sbnM6eD0iYWRvYmU6bnM6bWV0YS8iIHg6eG1wdGs9IkFkb2JlIFhNUCBDb3JlIDUuNi1jMTM4IDc5LjE1OTgyNCwgMjAxNi8wOS8xNC0wMTowOTowMSAgICAgICAgIj4gPHJkZjpSREYgeG1sbnM6cmRmPSJodHRwOi8vd3d3LnczLm9yZy8xOTk5LzAyLzIyLXJkZi1zeW50YXgtbnMjIj4gPHJkZjpEZXNjcmlwdGlvbiByZGY6YWJvdXQ9IiIgeG1sbnM6eG1wPSJodHRwOi8vbnMuYWRvYmUuY29tL3hhcC8xLjAvIiB4bWxuczp4bXBNTT0iaHR0cDovL25zLmFkb2JlLmNvbS94YXAvMS4wL21tLyIgeG1sbnM6c3RSZWY9Imh0dHA6Ly9ucy5hZG9iZS5jb20veGFwLzEuMC9zVHlwZS9SZXNvdXJjZVJlZiMiIHhtcDpDcmVhdG9yVG9vbD0iQWRvYmUgUGhvdG9zaG9wIENDIDIwMTcgKE1hY2ludG9zaCkiIHhtcE1NOkluc3RhbmNlSUQ9InhtcC5paWQ6QjVBQUFGRUY4NjlBMTFFNzg2NTVENEZCMzc1RjVFMDYiIHhtcE1NOkRvY3VtZW50SUQ9InhtcC5kaWQ6QjVBQUFGRjA4NjlBMTFFNzg2NTVENEZCMzc1RjVFMDYiPiA8eG1wTU06RGVyaXZlZEZyb20gc3RSZWY6aW5zdGFuY2VJRD0ieG1wLmlpZDpCNUFBQUZFRDg2OUExMUU3ODY1NUQ0RkIzNzVGNUUwNiIgc3RSZWY6ZG9jdW1lbnRJRD0ieG1wLmRpZDpCNUFBQUZFRTg2OUExMUU3ODY1NUQ0RkIzNzVGNUUwNiIvPiA8L3JkZjpEZXNjcmlwdGlvbj4gPC9yZGY6UkRGPiA8L3g6eG1wbWV0YT4gPD94cGFja2V0IGVuZD0iciI/Puo3nNcAAE1iSURBVHja7H0JmGxHVX+9JBDWJJ0QNkWwn+y7/ViUABF7AggIAj3gAkSEHgiCYZ0GBIIE7BaQyKL0IJt/NTgNooBs02AQEYFpNgEBec0adqZZAySE+deZPvXmTE1V3ap7q27f7jm/76tv3uu71XLq1PlVnTp1aHt7WzAYDAZjvnDo0KGg+6Wur8k/DfzvWD4/TpU3/FZdfmNkuAZ5aMk0ktcHhut1fHZYZn3K727IP0NSvz2WMkaGvCgMfeRFPrMq/zTxvxOZVuRzk7LzUULdQB+umfq/5f4m0U1QH4PQeqm6zsE8bBIdM2QdU6g+M+85gauJwag0tvDvqVwVjIKAAXaDDBATOcBGlSs0MvpoTMD/l6jRIP/flX9WFckCQ8bwmjbcA/nD650sYweNh25G2eE9axlFUO8AI4mND4YLNc0o98GEEpyi5IagSeQ2i0CETKL0Avt/C/MCfXiC/X/kqZto/x3TyYYq6pwcdTlCo1y11YC7UFowwWEwqj+IMhgxoA/Y0WcrwSjQZtb68v9HiLGwRoyNurzWNpCOFpH9FhKNiUc/aWbcA3kZe87SFjZuXDPKjPTA1ZIGyvkgtsGqyYhvG49zPJOFodi7KuRDIHyQSfIJcWpgHmpan9zA/j8mBGhs6BMjTY8M50DnFMWYeykTHAaDwfDFSTLdRaa7yXQLmW4s02kyXRWvf1+m/5XpP8R0Bu1DB6ViyAxibANLxwoxdsD1o60MJTB0ZB7W8DeBhscaMZha+IzCcmRXuqbDtWGPcYbGm60ufQwwKBvMCkP+ex6rR/NOKJpoRBc1DMG16UiMtsYEMtWV+euV5RKkuY3ZZKzhuE8gKVszkGZ9JYb2l7outwXcriYW0t7HPNQ9CNKAPNvGZ+HfK5H7w8x0TkYbutDFFSNf/b3EwzsTHAaDcfBwlkyPkOm+Ml0xgwDdAdOTZfoADnjv4SqMRqRgRrUndmeM1YyoAjU2dvzfiUHR1gy8PMYZGFYdZUSSfKhv+BgkjYz7DnkY+6vEAO2jgddJ5edvMX6DiAU+3yuw2tGokCg2tLIB2VxLsJJjI1c+9e26b5hDLttaHzLJ6lDYV2+brjxh3x6K3RUPE6B/r9FVGpRNuoIE/aEh71lZAJ3TXIC+wgSHwWAwKoa7y3S+THlnfIHoXCTTS2R6kkyXLmpFuVYkIry3YTDelGExRnchigkaWWAEtXBVpa4ZCxPDcyMPA2Si7sG9OdSwm5RU3W2bcSrz1Em0kpBl/HobbLiPIbSuJhWS9YbY797bS0luNJfEjuW2OpGNsSArCRaingLWze3aHhEbmVhDsl7DPI408jLQXdCQgICOXie6og3fy0NyKqhzGExwGAwGIwquKdNLhXsmMQSPFVN3NlgB+glXb7Bh3Q0w9BVaGe1nerYjwvYONTWCQ11RsgxMm2GaCWkQLaMR1hf7XXm6OIO8UuH23AidNEAXyDL2LoS2uyK9hUmlNvOvy7JyzzvVQSCalODkyNPYQJ7oqstQFNtbV/chWLoLIW7kz5IPIB1LKFuU5Exy5LmqOqeTkJgymOAwGIwEADeHm8r0CzJ9R6aPyXT5jPJyhpjOBF4n8nvBze3/ybQMYzY3+XwDZ9RpxKqBNjvrbWBqhqmvwQ9G0WH8ZtdgqAaVxWP1IeZepbrDmHeVuVOR5teN2Fj7PY6iQa6Xc4RGdw1XN8YiezUNVspsembJtGqA7dHTZIMSuqDQw7j/pIHErKbJeHSiiis5lOSoqGWLEkxn32oP9n8gjmtZAUeQKKp6GeEzE8FggsMIBoSIhT0JP5TpxzL9aIGM8SIGKtTJL8n0CRaRHTwIDbQbkN8gfPWfy/SXMv28xLwA+fh7ma6Q6P0PFNMNqy+fEyM+xO2sUfB5nw3LLvecvOiKfP7qe3zrZ6aMpMGJ+xbW0dAZ5Zi57+L+EdesOsyQd7S28K2nlsHAnssoT3imSSM2wSF9pWYw/seE5DREgghZ2h6rkWfo9FoGURmhXOqYpOozGslZwZW/Iu6zVdI5tv61swLs4Z5KJ2WafE7O7AnO1WV6r5hGJ/opGsk/xH8/Weye41E1gBCdgfkG4/4Smb4n04dl+lLib5+B3/+B9u2PwwxRiXUAhtzztN++j4Zrt0JtdUsxjYL13x73Hi/Tv6AMgtL7Yo7v3UtMZ/JfJdMzZfr6AdYRfyrTcyzk+Pli6sbyu6KcFY/fw3Y5LuCZb+AA/kkkvreR6cEynex4BuT/dTJ9dw7ap8ieizx9POt00Ulsf/WQSEMOgmMyFFwz6LGNuhHuQeiGGts4A9wWu/sdnGQqBxnQjcvOnIe21snaKAFZM8nkAI3iFo49S5ZJhq6HYT6yPEvPsbIRYb1fW93WkBSr1Rt6f8dUZ0hEsnTOhpa3DpL8miI4SM6OxGqLCukcU33Vicxk5TNFGHEmOAUABuWtLdeeU2GCAyTjWYbf/1Cm12Q8e2WZnotkgK5+HEWyl4Ujlm8/XqYLSqyDEw2/werFlSrUTpDHC2W6uUzvlunpGUTnfjLdm/z7eWiw/izgmw9EuX4kGsNg5L9MzM4la1a4i4XcUMDqDoRc/uvEeVnCfhlCbl6KBoS+Mgky9AqZfsfy3CkynWMg/4wwwznP/qiaiLBfQjMshspYw/f28J4NERYBacllSOE318VuFKmxZkxOcFIppBxtYhA3RTxXK0pyqXEb4rbXQOKVcqWnjmklgKS0DMQjVl5cGIm9KzlF0ECSME69khb7sF+LrNSQGIEL33IKAj1rneMhi2t8Jtb8EZxTHNe+v6D1diKSER0QavZMFquouAomAJxt8n4xnV23rc78C5LMOyNR+zMxXZF5iEz/5/G9k/F+BVih/CuZHirT78v0mQNU908OuC8lwflFJLkhbmkvkukJlmvfwYHnzTLd03LPQ5jgFDYGc68CR9iET1dvhg6DNARZs7p9NJbU+TdqJnyUsw6OnRtiMdyLGoQm17SQOtf3bKSWp7GP3IgE7mk6wQGiq0fbInuuNkScUOQCxzlleOsBBmqYxgZCONTklpLYeoZLWAMnBbLkdqh9U5B8jvE96rs0sMAGkpzhgukckyy2E8gho0SC48LPuYoZBTFBwvFBma6Gv8GqCkS7eppML9bkDFZZYBXuE2J3JQpCAX8Elc0/Znzv/sK8stXAPNTRQD4IuKvnfTcQ0z1LKVw7wSUK9tycFvDMl0W2TzbIyaNk+qylvW8ipgEVLq5yA8kB+ZDvvZYVi8MRZoip60WsGco22XMyCiAZ1JhQxrvx/JOYG+LJRmIKqOtNjCwWFKLYQG5i1q0yvnRjsBd4gvywJA+/EOxbvYm4SbtBDPhZ9PVjAQZkva9jWWGF5zBpV+VC1sSyLxP5pOQ/i5hOMFT4yEDiDmmytGkgvsu03tHlq0+ubxQ87LOKOsc04XFMH6E7YMiqse5C2+E9OdUiOD/mKmZEAJw8D+5iF5LfwE3wRUh2zpbp0+QauAqCW9qzyW+wh+cfZLqZTM8Q9j0jf+DIxxsOELkBXD3g3lMSEZzfCyBaCq8VfufZQH7fjmTZhFtXneDkNNB0g7DQoIlGyprBGF8KyFdXMyh6yrjKQ0TQ+IZyraJBBe9PGZZ5JLTDBAlW0ajx2nNgITdQJ8uRyA3Ux7rYO6s/yikHkwAjs2H4po/xWBP+RmYq9zRBDNOssnZEvKhgWWQKVmNaECFQy2NRw1+tRC57EGXTeTR9+iyenTNC8qXqBg77nJC8z7XO0eqlpbXFXAbsYILjxk+5ihmRAG5p90GDlwJWZzYNBAiiez1GTM9LoYD9F7AacI6B5PyKmLrBmbCJ7ztI+KpM1w24NzauKKaBDPIYm77YdBCcay5KQ1oOPhRokEefFcTZ26FHvvQQymAIxPLR72H5dlypkPC0RZzoSHtcz3Bmm5Kqdh6ZtISUhrqMGdWsr9XBzt6gPCsdIfs3DLPXnZhuSgZj22o8Yz2volHrK/8rSKCGGXUyKrAfRL0jK09D8v4mIXItD3JHXdbGmvFN9YSPzK7aiCbUMS0H1ssS6lyqfwYLpHPUBEI/59hE3f0mIs5KEhOcAriK5ffLuXoZkfE4Md0zoRtqsDoDrmc3ErurNhD8AdzXzje8B1yTvin2B3p4tOW7sCL0W+LgrUi+Rfj52EPQh28n+D64GuY56yZkYuUyx7XjFqgtbW4RMAPcLuAqkscAWCXGVEsz2pZjuRRhONo1YoQpctOM8Pqa5ZtgLK3gdxWRmGSRSDSKuob+Ftv46hsM74lYjBlmve7WLPW8SYxIiDo29llFsKwauJB3P4jPatoA5WugjHqcxFDlWnMQ4gGpqyHddyLfcZTI9sCDULYdBKqLKzRrGslZwbxDOZfnWedgHej9dd2hHzoB5Aui/y0JRm7EGMCvaPn9h1y9lceV5yy/4B72DMf1nxkGOFv0tPtpBP8Ui7IGhX+mTN86gPLR9ejHsAr2tETf/+Ocz90k4N4bOa79YIHasq0NwtRQW52RbFFDA2bzlxIcajfwIHnRAYYcnvbeEZaQu5qRtCHMqz5HIpMbk46D72+igZwSDUP5YiLTPQ3lS/+9bzBUi7Z/EcI4sbTfzp4M3JexRcq8jr/tWRnZ3sWGwQgf63WGdaDqwSd62yrJL1056Wl12zYQxWUfYgF5UuGlK6pz6oY6aWZNZkAob+yPjIoTHMb84sQ5zHNfmM8KgoMZn6v9BqTkzYZ7349KiJIfWB26mnYfnEv06zJ9Rfv9ZDRcDi24fHxepgc4SA4EdwC3vX9P8G04r+YWOZ99UADBv09G+eceWshkRfypkVfXI0KVjMOpNs9q5KAhds8nUUmfEFnSyN9Iu1+lkef3e67VMfTV37QY/9EIn4Pc6CSnnUgGVcSvY0Z8TDJrkPGRjRjiLDq95nIpiiWHTgj/vSOxoAhJDWVQJ4hZqzctIk8Dg+z2NEKl18cgg/T3cTXpqEgTqS+Vzmm7iCpZQVxFEtoWjGRIuQfne1y9jAK4rZi6mMEm8H+S6XP4O5CS88T0wEeFF8j0FMt7YMM5Pe8EzkZ5oti7Cf3aYn9I5HeI6SyTHuocImu9VaZbial70wsXvB3eKaab7Z+KZOBa2LeHOIh9KNF371fgWdiXBXu1siLmwX6s0y3XQD4+sSBtqLvKrKH71lDszjbCjOIwdLXA8+C/LBwNjMa1lHfvhl4+7btDDE6g7+OIHc5WGTpqH4gwtE/McLUmcjNCw1SXjT6Gy419MnzLYmCnen+WK9kyGpqKdDVTump6TCD4rCDZ9pjsWXkxEIqRheC0Sd0NtDocZcguJYQ9A0HsqffZ+g/qDuVW13AQhXqFdY6eb1WPxv5F9G6b9LcRn49TXYJje0eI9MDm7m+Kcs7NOSTKOXX9oOJ0NIAvLfgeCA19BqYbimmkNIULkeQAMXm0RnZ0vB3l6ut477sN98BGdrp6A+efPFPs30d2UyQ+1yNKHAz8/1jwNoUB85El958zCz7/t2LqYvZmy/XHIMGx4d9k+sm8NxwaVnQQpuGKe2KvO0UfQ8MuzGZWMjvtg0lJeWqiQWgyaldiGdkkWlrTYNwuo7E1Evv3DEBY7VpMkmUgIDFDXte095vc0HSiO8aAENQABZI/SCT/3aIvQCN4ydLHu4Qc97IIFqygYOjmnbojZEORelf90UhoA6zLhsGQBxJZJ3uD6g5CU5T8VQFDolOXhSXIBPQrrBNVB6ALjghGJQnO1Sy/X+L5PLj7wGZmcAe5t0gbnAC+BeGDz8m4Dw4WhNn5b+T8zs1l+uQctL/NRTFv9Ds4iPGfxTT87kMLtiV1M4IzVvQZfVhZOIpGbNZs/yvF1C3tJMO9txS7oaHB5erFSFruY5CdF2mGwPFiurp0WyRQBwFlkBsgUbcr+A5wP3sTyiOs4v0Pvve2SHR/M+P5Fy+AcW8MhUoGWhr1S+CAuye865wTGzA0rAd+Gg47HCfOkzp7pmWZRIgZTKCBxEU3DvesDqEMLGlGK6CN+S0c9AHrWa/rmOGbW1reBx57O2piN0y1elatqnUSNH/WO20b9lOCErwNn7aBvSMaOemQuttHyFCGNnPWF/SJUcTogSlA5XqCZT6MBC+rfKrOG2UHemGCUxw+M/hgYMPZJDfGBKF9/yRhnm6Dxk3WqesXorHbFO4oSyZACOIPoKJ8WcXb/yTL73mjhYHCPAP//X1hDsXsA3gH3X/xG5iK4PGe8nguJl/AKtLrxP49PYsGCAf7YByIj+Ig+O1E34IJhqtEetf9MYXg9TJdtADkRnfjMB02qVxJlCEMs7l939l708F/HnnbE6Y15LDSQGRF1dJd0caJ2qKGebHN4kO+OhH326xavmV0fUOj7AgSooZmvG1EWNUzuUiOE7bzGElVjci1WkGoCffqgToUNqosZO33wPy2Pdq2bSDIdY2YNj3JlYowWDPoBBtGmj7JqicXYVfudENdTlz1VTGdU9fL6tNXcGJBnZs1iEz4GSUQHB9j7zli6oqkABu94VDHlyfK0509yw0n1j8BO/oTAr8B0U2+i2TtQ/iug4AHaCQCQjF/T+SbDXvWnJUdDqIEt7anLGjbwp6Wf0PyTo0WWGV7e4Lv3WCGZYV9N49YEHKjz2r3DAOtciWh90ebvZ8hqOE1QQIxcBjGA8+6bfruySHExmREqjyuxNrjg4Zt12LAO13f0M1IreQ0NBKYm+Tg/p9GgAHt+866hagKUdwdDNprJXKfzNoz4hsprCbcUbrqYv+qnS1k8cTgpufc/I+ubSN8Z2Y7olwpWR/RROXJQMrmRc/WLTrHB1B/41QBVhj7DX0wZG4a+A5bSFZwXTvb8RzsYzCFl4VN4J8T8TchCqIYslYo/hGJDRjs78DkLfdi6nIHChJWp2CD9iVzJhc/Crwf9si82jJQfDdwwLmvQYG/EOVi1gBj5amWaxCkANzg3rhgOgLOGPpnjdwAYPXvDdj/vxz5m1efUVnB7fHBwh0g5fpi6oIKf68hpm6K4IoJkfY+JtNHxXT1d1aDrlop0E+MX3EYITCDDxMRfU1Xwkbc5RSb7FODHCpo3OSMM7r1UIKDxv4YDcGOhdQo97hWhnHTi0EgkYyaDhdVRpeX6xsavDaSE+y6ZQlu0Im0OpLSIN45FDbyKk7M/OqBBFxBBpoibG8ZBFtoZMiLMswnnn1xUaONmva2heiosUhwyDLDTnAgJO5fRnr3jS1GbxaOx8Hm12T6dMSygovNnfDfWXtMPizT18T0kMHXIukLURL/jgYFBE94rvBzj/IFuL/dPrFchB5o5sKfo8H4Nx73XtNyH4Rr/kIJ/eEUJGSu6zaAfJy1gAQH9qpc13IN3Mh+X4TPmCqXVJjkuAL+9gMkSp8R9rO1UgH2T8H5Sq8U+10qIX+wNxD2bt0DZdQFCE3+9zJdIKZ70coiNrb9HV7hhmF2H2daKcmpoUEf1YWqRJJji96kDPZjhokPiSPncdRtBj+ShLawu0ENsS5j7rWx7XGAcXQlpN0IyaGHYfocPKnXk+lA0bVIs9WjAs9NtL/KXWhDM1hjr+JkhYGm++Vqjvbp6W3hGWSg6ZgMEYY+b53Y8DkU9YCAkvfRIgVnWVSC87GK5AsMyTdjp48VWe13SHmzBBFG+rfJ9HAxDYsLm8vPDvjWf5J/Pw4NnlhRYz5aAsGJjfPENNKZ69DIK+KAbDq5/jMl5PGOYrryBvs1bFHR7mBpD9g39j6RNkDGrHBqxvVre77nDjgg/LaYrny4UEb0MpjkAKMGVmthJepSgw46B/vvtQLeezpOaJyDxsP5IuHerAw3qKCzVAjJ0VeA4P1tJDprEYzz2qyEGY1Bva58VyaaGlGxYcVAOqK6o5E2U/tnqCvYWJhd8kJIjnJbHIfIEAZ36FtkMdbm/aGDvNAVjFGA8UkjCk5E5IATWe2ubUhvlNAPTAFIahrJ6SyQ+1Qtcv21Rb4V4D262yCXDcFIRnDek0MQwGB5reF3cM/KOon8i8K80R1cPF4h4p4k/jD8C0aozxk970GCo559Nf7mg4sxwZkpsHEdIjKdIeJEoPo7MV1digGIHnbY8DvMQv91xLp/vQe5gXvuYrh2GZKIlLgxEurT8C/s1fq4weC9jfYbuFKehfXFMOOXxXRV7u4Bz1wp4vchEAKEoP+qmK4QwR6bD2EyESnor38kpiuPpxX4LhyiC3vJ7iambpfRZ/dwkLUdUJhr1QVJjgodrPvyt0Xgyi4JVWwjCmWQGuU2tmoo00oGYQOXnU1sv4ZmELpIxwq2jdr/kyxCEnHH66NRv1Z0NpkQp0kAuWkayLEiJNH2c5EQzzsb1GO4kuEqzhDf2SsjcheSDNUXvM6giYSWgdwsid0oigoQNrsl62KuQhiXpHP0c40GOfO6NcsJn4NGcMD4/27gO2yhhr/m8S6bwQ8uIW+LWM4bid0AA1uez/yX9n8gKbcV/v71H0eCAwDXvwegEV8U78MUA2daCA7M2l+QQxbyAr5lO1EeyA3MtoOr0M0TfBvcrCBqnlpVAML9diSkdJD7LU3WL0bjlcmNHUD+YP/OVRN/B1ZhXo4EZptMYPxIhEVB/AWcQLhbxLzdGQ08iAIY9ZwvJCMNsddVotDsvWbc6m5Gwa5V5GA7mxtjUncXNHb0PSUig3j4zKoOPNpmggZ4ctcV/MZy5HeOA++Hdj6suUwlWQVIcBApvHNJlIuJpV+kJldDTa5Vvx4ZVnDnzh2tJJ1DA7PkirpH8tnKaCdGgQGgaHrcthkdj2e/a3n2lAj5ouml5N2fxt/+zPLtZfLcN7VrZ+Pvp1ievYg829WufUqm4/DauZbnz41c7qz00W07HlRiPn4FNu5a8vFsvOcEmX68XR4+J9PpJI9vJNe+JdONS6obBTGjdHZGPV1gee6uMl1aQjs9I1I5by/T1xPm8w2x20YZ8DJBMIAtMCzJPpFY40MT379R4B11S51s6AcEFsznsffqJAdWYcj1ddyzZCVFmDcTtnDljOFuj4arjhekjFRGVg0ytKu87e/YNMhXIzAffVs+yD2r9B7SX9qWttvCVPPMA0WzYP/djtA2Zeichqu9NBvQ1i5tQ/tvsI6Jw11ihIm2zc5uVaQeoIOeTf7/HTJTbwL1xYdVnPuS/z8TZ4t98L/a/yFQAaxMvalCMmLaWwCreBDoAVwP/6mkfICrFwSAgGh1t7TMtsA+BljNuWNJeTqM+fkNlAkVzhxm4WGz+WdYxVhxCsrOFRJ/B+Th/AjvgRUb2H915cDnYGUR3N9OFdmrVLC360Gx+xTZFD5JsVJAZuVrBd4xxhWhmvbemNhZuSIz43odwYxr22e2FetxCQ10aqRPYgUHWHQckHqiZZwY7A4fGe+JvRHQ8qz40f1NI5970CXvsKkvqMMq5T+bAXnpaH2xSP+NIX/JdQ7KuGuP6hqRgbHlHTEDOjHysKCMdL6FKT+gIis452nvvhB/v8Dy7fuRZ59muP4ozxWcOxmuv7tCKzgnWvLwDpl+JtMlMp1U8mrByTK9heTlP7XrV8W6j5Ve6DHz/i6ZrijT67BO7lpynczjCs7zPeoVVjRfIdNzZHqJTG/D2asQnBOhfHfEdg3Bh2T6LZmugO84Dvv7hseq4PExV3AYDAaDwWDukmYFx3ZmxTcqUAewr0I/lf6LGc/QjcefMlyHpcZ1j29/zvAbrAbcqCLyYTvvCCKIQWSsW4npmSBlzi7A3glYOXq2TH8q9h/4+aOI3/olmR7tuA5nJUFQCdiPA5veIZrWa4V/oImDCthc/0jHdeh/sIn/XYZrsHJ4ppiuuMJqR9YK0IcL5vUXxXRFNWTlBvbowEGgdG8P7MuDfXGw5wjObLKFhYdZUQi28FYWEwaDwWAw0uG4CO843fL7VypQvvNkOtmDeFDQjcCfNFy/gbBviNcJ3qWG3x9Ukbb/VcvvsOz6Xvw3RMEr+5AuMBbhTJIjFiM4Fl5uMWzBLRECCsDS8z1l+iuUCXBFehurjEycZehzVCec4WjXy/HaQ5AMZIWtL7KMAWTqdQ79ZcJHkLxd5sjPE2W6yPGO+7OIMBgMBoMxnwQH9kt8ecZlg70cjzL8rvbGXMWD4HzeYsyc6pkHE8m7U0Xa/s4WcvF+MT2oVNXhvWeUv5Q+3I9H8qLLxf2wfYDI/ITVQy7cznFtRfhPfID+eEHGPbcukM8/ztEXn22ZtNBJzrMc1+/IIsJgMBgMRvUJzi8afoMNVZfPuFwQ4vR4wzW1KmM7a+PbGlH7rHYdDqx8dYCRRnGxhXTNon5M55IAuQE3sSEhdk8X5a/ixALU9WPEdNUMNpLfHP/9fK1NwOUIXPL+lVVCYdzM8vv/iHDXLFhh+T/H9UfklE1wXX1O4DOgC97heS8c9GsLsX4jFhEGg8FgMKpPcH7Z8NsnZlwumEX9vOH3zxLDwxRFDUjZNx0kZYhGlS/os7D34EyZvlCBdoeZ6+sYflcGPpCci/DfdxDVcavLQ3Beiobyu1AuX4fEF8oIUVtuKNMrhf9p8y8QEaO9LCBs7mlvzPEuaJMnO67fDglsKJ4k7HsHbQC94Luq93MkziZcgUWEwWAwGIxqExxYvTnR8PtHZ1wuIDgPFftDOtMDMk37L74u9h/kqUgKnHAPIaMvDcjHxeS74JryuYq0u42w0BC2F5J//4UID6FbZcD+GwjNCSE6fxzwHMgU7LH4cyY5VtgM+E/mfN+/ZpAj2CMFASB8V3KuJtM5OfJRE2GrRbawypeziDAYDAaDUW2CYztZ/n0VKNvlaJC+gvz2TvJv0wyuyR3mK2hEPUCmSwLzAITmaWIaPe3rFWlzWLl6iOF3qJsvkf/DCfRqxvp6Mj13geQe3BdDz2mClSwaUY5Jjhm2SHenFnjnI4V9ReQ47J8Q3c7ngLllEb56I5Dg+x4QB+T5upZr32YRYTAYDAaj2gTntobfYO/GfyfIax7XDiA5sLH5qWh4vYVcu7bh/s8afoOwr+cKe+QkF/4WDeHLKtTmbWF2z3up9n9w4aLhsKEO7nxA+wkYq/8i9q9WMsnxN+AfWOCdcDgvrJ66VttANuEEe3AFfRlObgAhOU3THcsF8vFEz/se77j2CRYRBoPBYDDSoug5OGcYfoMIXJckyCtE84LVkNsFPgfual0xdXP5oWa06jC51v1ogdr7ymL/uUCq3G8x/P7XaCgCwD0HAixAeOmtRPmDzdm3iPg+20z9e0WYqxAQG1tQCiA538e6YtiDAvymmJ5x9Kac74WoehCe/W0Zkx1wvtE5Yr8b2mWol04qUDY4FwrORXqt4557CbcLHJ+jxGAwGAxGhQkObNQ2zei/MVFeTxHTs1GuJfIdIvoZ8u9ThXnv0IcWvL2fItMvGH4/T5jPFPmAmEZW+zX8//XFdF8TnBPz8wT5g8AQZYTRvlrk952H9fJdVik7wRxsEcqAIN9V5N+j9y4kEK/PQVSAFJ0coXwQQfHGMj1P7J0wgfc/DgmvbWX8cqyDmWB7exv2BSk3u/GhQ4fGib9Vl98YGa5BHlpAWuX1geF6HZ8dllw/sAJ47Jvy+z3uzoxIcqUw9JEr+QwcKK5cbicyrcjnJmXno4S6gb5eM+kJy/1NosOgPgah9TKPumkG44Ty3oFyTmR51yrSj2i9Z8pvEYJzpsHI+LHY69YUm+AADuckOBSm0NY/ELMPjpASMLO9ajEaXeGRu9p1CC8NYZafmCCP4NJ3NOL7HoWEWAfswYm5J+rNTG6OAQgxHIhpcl89CRUUuJvl3ae3gST49Ug0ygasZD4VycxFYrpHD8JO/4bI3mcEKz9fmGHbNLD+1IABA9epMT+Ag2MfjQT4/xI1BuT/u0QPAcEaGF4DbrSrkD+83skyYtAw6WaUveMxUKt3jHwGUAbDAzXNKPfBhBKcouSGoEnkO4tA+CvFQLIkv9PCvEBfn6Ce8CE5ej8fa0Zv5XRTDh3aEPYgNT5tUYh8QXlQDpS89CKVqXT9XITgmHzZIQpXKvclSnD+q+C7TGd1gFD8TCwmwCiDUMh6JLSfiumBh1nGOxC/25DfniCm0eUuiJzP94i4Ljz3sxCcly84mZ01znOQ5tOwr4Eb16tzvh/2scBqLgS+eKyYzTlNVxXT1SRfjLHfzBITg86Lq2img+OeyQT5/yPECFgjRkRdXmsbBrUWMQxbOJBlGRE1kR1kAvIy9jQAohgtrtlixuyBKyUN7AuD2MaqQZZGAfoi9JksDMXeVSEfAuGDTGOTEKcG5qGm9d0N1BNjQoDGhn4zymvMz0I3eRj2eh6X8P5mgXY+lFB+i5D80vVzXoIDrh6/r/12eY6OkYfg1CO8yzS7vMiHPJ5rES44Y+TTWWOAmM5Yv037/UVIkP6Gh0mGBthnA65YD7Fch/1MrxLTVQ8g2N/P8Q1wD/sTfA+4hd2zwvUBkwGw8vm9mc5ySGNBG+BTGd0rxIgBfd1WBhAYMDIPa/ibQINijRgELU3HL0d2pWtqdaAPwsf+TWYxTXXpa1hB+WDGF8rQq4KrR8kEool2QVEjCdyYjiTIYhMTyF1X5rdXpuuW5jZmk8WG4z6BxGzNQKz1lRjar+q6fBeY+Z9YiH0f85Bls4EeGpBn2/gs/Hslcp8pWzf5GPZlyFlX5FiZQ7RdutDUnrJe8gZf8tbPGfU6LEJwHi2mM5gUrxF797mkIjiHI7zr17T/g2vdGxZ0jPl1C/GEvVIv9XwHbKyGMNJnab/DxnoIJf1qwWBoSlFMDwE+w3EPEKC7yPQwkX/l7mNiuifsljh4wcry6RWqhzdgXWwdlIbHmdIe0TtqplOBGhE7fu3EUGhrhlseowsMJjXA0hlU9Y0Nj3c0Mu7LnCVFo2CVGJd9NN46qX34LQZuEKHA53sRVjUaFRbXhlZmIKNriVZybATLpy0yjblA+W1rfc0k00NhX+VtuvKEOmAodlc8TAA9sEZXaVBuqb0CfaYh71lZEN3kq79M8jEiZFLv30MPOc9LtOoizsJC6fo5D8E5TewPjfstYd7fERNqg/CtCr4HImvdUfsNZpt/uIC2xg2QyFxR+/2jaFxuB7zrCficLjOvQoPyL9imZxAA8YXIh7AyelfHfRC4AiIv/qVMTxfTVcE8+B8xXQ2CvTFH8JugK35FTEPCXw0nSU4ooezQr/5NTPeq/UdVGiRwFi70vQ2DUaYMhjG6AlFMcFCGwa6Fs3Z1bRCeGJ4beRgWE3UPuohQI2BSYpW3bQOzzFcn8UpBlgHgbYDjXoW89TapqoKy7HXopSY3mttix2FUtonht+ZpEMeENRAB9tdmBplYQ0JfwzyONPIy0F3QkICA/l4nOgVWEEQeklMB3QTvWCL/b5F2NbY/Xf3Y3ruc0SF6rUn7N7q2zQtK0895BvsXif3RiGAz93cSV4pawbkZGuyX5nwPzPbSMLM/xzItGk5HI+ua2u+wiR/C7YaGv/4kGmxPNVzrIZkC43JR9zExwgEuWXfHgeShGbMtELTiLCTeHyvwTejPH8QkDBMZf5CorHBILpz/9W4xddH72gFqZ5efedvxXEu4Z3hNz3ZE2N6hpjaA0pnILMPRZnB6QQ7iy2iI9MX+GdAuzg6vzEHbbuCkQTDQLdJnD9Us0DQYXlFIpzbzr8u8ctk71UEgmpTg5MjX2GA801WXoSi2B6/uQ7B0t0J0lcqSGSAdSyh3lORMcuR5proJyTINZNDSCN4sorENTYQICduAyi0hiGNKTCzPdgv2wej6OZTgPFjs96s/X0xPvU8NRXCAnNxeTM9MyYOHaf9/jcjehzKP5ObdYn8wBSA3Z4pp5Kc8+DOZ7i/M0asejb//nige5Y6xOPgp9rn/xImEqzruBTczCE3+JOHvPhmCUNLxTTENaPI9JE5qr9C38drF+BfO/uEoehUDzpTTSFQDbdbV23DUDM4QAx8G7cMWA2AcWp6A1YWY+5bqDoPdpw6qehiybsDG3OtxFA1yvewjNBhruLoxFtkrbc1t+8aEJZPRiW3V0+SHGpRBYaLRMG8gMatpfSE6ecWVHEpyVNSy2pyrpWaiPlpUV6q9cl3ch0Sjw3XJfYdj7Yksqp+1LtEsSnDAretV2m9w9sczS2qDU8i/75GT4NwIn1UAo+TpCzauQwhs2DNzc4NivVdB8vETJDAfsMjO3cR09h0CULyLTSwGwStwhuZVSLJtgPOpXiKme3ceLuIeGhyimCGf4PL244ob8SFuZ42Cz/tsRHa53eRF3g2ye3zmZ9lOMFDjngRwvYHZxlGOWfku7g8ZeXwPZsE7Wrv41lnLYESPxQIBzzNppCA4pE/VDMb/mJCcRgojV9t/NfIMsV7LICojYT4CZJKqb2kkZwVXA4u42c5UN6kzdMhPVTpLp6sRf9Oq60jXA0hI8pYjuX72JTi3E9NwwTTMMLh7/KEI28fhi+N1WRd7w/2Cm8l5Itwd6hli70Y6cKn6ulgc3EKmt8p0Pe132Oj80EjG4ofFdL/VCy3XoZ3eiR0G2ugytu0ZiM8jCT4HFahrNedBMt0QJyS+Fen7H/G8DxT2I0Waw2xjo8g+izwuBVmb6yex3S5wJrzoAGoiE66Z8RQG2wj3F3RDjWk0JNpidy+DF6nKYfTrBmRnQUNct7KMt0gwye4AjeIWGtxLlsmIrodhPrI8S8+7spHlrkHvDR2EWa3e0Ps7pnrT94jYdJeWtw5OBNQUwUFyFit63qx1U0uTt0q4bcoy9DWStmLpC6b8NkX+6MnJ9bMPwbk7Mnd1qOc2EoXnJSI3Ao2gASE7YOxciVyHjclPwTz4AkgaDW39WjHDU8UTAFzH/k4zGmGfEuxtiO3uAxvC7yDMZyEB4CT3p4npitHDkRTFBqxSQWQq6IhH8e/FmH7saYwxZqBPZXoZEvG+ZXBX+FUx3aQP93wlwrc/iiT/Khn3/emckJvqNvLUWG7leLQmIuyFQANLzZYO1YCN7+3hPRsiLLLQUpaBhN9dF7sRosaaobhzKn1gWdrEiGiKuK5UOuGlBuw4B0lqoOGScsVHzYSvFCAlLQPpiJk/F0Zi70pOETTQBhynXmWLfSiwRX5qSIzAhW85BbmeoW5qJZI3H6wQuRyReuhrOhB01sBHrg2RGjtEtmein3WC7iI4ykh9Nv4b8A00WN8aqdJtKzDraGDARvirW+6BQ/7g8ElYmfhJxnfA7eWVxOB9X+gg44lZuLOciALxJ9rvsMn6EWIaXSoF/hCJ5h0c99wa8/ECMd2/E9Pd6KuYBxNgzwTsjbghm5qVxedx8gRk1LU35yZiunp8pwjy81McPO/ruAf213yAmyeKkZf7XLQIG/Dp7ODQYWiGwGfGtY+GkDr/Rs1yj3LWw7EzQSyGeSyjz+Salqf+9f0ZqWVsnEe2RCL3NN0QBEKsR9si+7I2RJyQuMq4VIa3HmCghmlsIIlDTb4pwa1nuIQ10DjNku2h9k1B8jnG96jv0sACG0hyhvOumwzR3NYs701CUvG96hDVBvZ3vZ+uZZQL5GGT6EE9CmFIePVS9PMJDqMCfNDpeTH/gEZ0zGhpYEyc5iBYV894/oEyne3xHXCnuiX+G05Bv4/IH45WoKEFRtIWpu/g37LdsYDgvQaJBDXunyWmqzaXJ/z2JViPcH7JTR33HY+D/X1RnmJtxn44GsbQ/n8k9kb2O1nsj/RHcalgVAEw9Qh7c94rpuHMb+KQcxgQYkRAW88gOBfPUwXKAcV7ldIyIxZj0yiNFBRrxrVN9puMAkmGMiCUwW482yT25nc0ZPXZe6jvTYwkFhSC2EBuYtavbvDrBl8vj2GJBn3Vu82+1ZvI7kINYsDPQiccCzAg22IdywsrPIc1g1vpAyj/MpFhaoRmkdUJhhEfGUjcIU3ONg1keJnWPbp89cn1jYKHfVZFN+khpbcM/aQjf3Ot6rVIWOW6Qfccy4epvvDZdWFeYYT+3iFhvVV9jTTia8tbaHj1wvrZR8/oBAeMwqchkTmRFBLOQElxngOEVb1xgeeVy4kLMMv/GPw3+ODfXRSP+gEG8ptmqKDBXRDcBB8vdvcrXYak5rkifchuBdgbAaF9IWKba7UEFNtDRfxIU7A69UQkdI9BJeITZWWR9l0tAiCKIazQvE1MIySaAO6l4IL5zoLfgv1oL3ZMrFx7geu5YTH2CrmD4WC6ZjDElwLy1dUMhZ4ymvIQETS0e0QnwPtTh2QeCe2gQM3AAWPSaz+BhdxAvSxHJjc1NHpqWjmKyMQkwKBsGL7tMz7XRP5xPKV7miCTCFnl74h4UcGyyBTMvreI+1EzEmlWq5XLHiTadB5Nnz6LZ+eMkHypuoHDPicO16lK6yYkk82c3xMa4bSBPjM0lFntAVzT7t3Z30UmM+oaGTuMOqtl6KsTfH4YukJdln5WBOdq+HL42OmEPHSx86fyR79ATENPn5jjWchTVgS0s8ggcZFM9xPTFY55xXFIFKBdVNAFIHiw2gZn1HxpBnn6ChqncObO7QzXX4CkOeXq1g9xQIbO+7diuh/JBoi+d2BOlZ8jQJvcGxXm9Sz3PD0CwfkpTgQ8y3Id+tVtUP8tDCyHGqpBM/qBk/r5D4586eGTwVCL5Xvfw/LtuE3hgNoWxfc9CGFwO0MjgQ7cbYNhJXLUiTImUkQz0zcY7+wRKrKiEbJXw7Cq2El5NojB0LYaztgOq2jQhvSRFTQIhxn1NCqwH0S9IytfQ/L+JiFzPvtB6Mz9WCNRVJ/4yLXtIHhYlVil5cB6AQKyqempwbzpJpxA6FvaRZG8higJGMRBBStZM/Q12u+HRN+kOJQ4qX7eKaN86SkyfX57ip/L9E6Z7iXTIVgCKiHdHvyU8du++KhM98h475Vk+jbe/wqZrlhSeXzSuZZynet45joyfYrc+yWZniHTNSpSpivL9FqSvx/K9MAZ5OMKMn3GUr/fkOmWFZIDn6Qwq++fndEXL4j8vQdnfO/aEb5xkkzfcnzjX+dBNgINu1VHecvaM0HzAmldy8eGiqCU451N+h7ye5f83sVvxEDTI0/g676J92+hMes0hiCikeFbR7UTv2O1g+1btRJlYSO0Xgt+r6t9r2tph6Pafa1IZVzVCVcBGdz0MbDx3nVVBpRLhb5DT/Qd99H6yZJrWxm3XDoIflPlVDKp9fPtqusmw3v25Fsrzyr+f5Wkba091O9636XPtAuWf58ejVCvpetnqGZYwQG3IfBJ/10x3Yj/uZInFz+IMwsn48zpdWS6htjvPgez9HBQ3ydl+oLHe3+Cqx2wP+SFFZtQBRept2N5IHDDV/Hv+x3PwL0Q+e32uErxDlGtSE8QYOFhmK/HimmY3U/MIB+XYf38BcoAyPf/4sw/7Pf4jmBUGeBCBsFFbEEHILJa0SAncGAnHCb6Gsv138bVoucuUL22tZnIIfkNjK61kvPTNayIpJglHJDZ46ZIcCiha4Ze/jmCRu3EtfqCRuK6YfZyhCs3UfONBqvJEIJ8bKaKYGVAI88qVwFkuqfh+SsDbdUBDMrooaQx/HLexyc2Y1LsD0rQwtWSfXqBGMR6mGi1aqNWmVaIrCpS4xO9bZXkdyR2V+x6RA9A/Qq6dwTd1Xae8TjLp459bFIV3aQdZOkrD8fawLA3rqfqWj942Cd/nquFNL+NDJKzHKG+k+pnRSI+jmmWANex90R+51tFvIhvMfE6TKHoierjHzHNEs/HxEiP2CQbCOq3HQTnmpG+A/t5IPz8PS3XzxfToAdPwcmFuYUWklMgmRmRAbKuu4mUjMMJoweNiFEHxjT4k9OZ2A2tXgZoBLSJwW3ysx8F5KGX0T7wvb7Y70JYNrnRSU6Rzd2+BuAen/6UZ4MY+sHIRuJwwzWNfKVcjZZSdoSsoCGe58vEhJoIqZE9PN7hjlG22+TeuibfPWLgjg31MfCQZdWunQQ2Um7dRIhym+iVENR1MlywLKHR45wELUZfTa2fTxAMBoNhx/9lXP9k5O/BGTXXdVyPFWoctCpEZYMzmq5vuQeuQ6TG18j0ejENtDKPB9fqg9oaDr5DMoCBe0DwZtFIBtfRwFnspbz7NPTyad8d4uZXfY9Gkj0haOCvCvP+hLWCYbJDyM0IDQddTvoYuraTSC5bBmM6JfTvZZE32Py+SQwucHtpJyZ9qyFGrwW2PSZ7Vl4MhGLkIDiq/nRDfZQh39S1rSf270fpqffZ+hkhmqZABW1b3VREN6lzYVZEohDvi4Q8+tmlN5jgMBgMF+DMKHCnvIfhGqz6/n3k70GUwys4rn8x4rcgsAGEOocogNew3AMHDD8KE7jOQcS3T4npOUvgNgsrz1/GgbRyAUzQYKIDAg3n2RN7Z+j6GPJ1sijCG7h3YlJivppo7JkM1ugrJyRaWtNgwC4j4R2J/RHVwCe/loJsGQy+UcL6rmnfm4iM1Qd0H+tpxA8mAgYJ+0i36AvQSFyy6IIuIdC9LIIFKyjoJrZTf9qqVlZkMxoJbYD12dDeD3IHRLKO1+qEyJgITVHyVzagf42wnKHPNiL3Df18JPXbhNQfJaArYn9giW7kfplUPzPBYTAYPobIS2R6iJiGJf8ZGkKw1+qnEb8DxOaZjusQnj32wbXwPojeBlEAT8u496qo5BsWsgTR+95TlUZDg2FfiFNiXNCIX2oA2xO2dc6JzR4/daHN9Bk2tI9LyJdyE2lZDJDoe18c51/sWSVCeVjSDFNAG/O9HMuwt4TOHSTWYbRMA499HTWx/xwQteqWalUr6711Ud5BqoJMhHQJaclsLwze0DCUq2YiZChfmznra4wkYlw1PVQwT42Yuomej+Ros2Pf0ydZYsZ0KEs/M8FhMBhZgJUKOE/qXDEN4QzhyL8f+RsQKh6CQ9zGcc9FIp6LGsUHZPp1Md2vdzjnO05FIxLc3X5SEXKju2eYDmNTLiLK+IVZ2r7vjL3pQD+PvO0JvxpyWGkg9p3U7TAgJikNJDSW28I+Awp56yTYb7Nq+abRBQ6NzSNif8CDHXefiCt8JrfJlAaqLgtjNKBqRPbV6kFW6F51MGH0/Hrs12r6EBwMHNAykCNKWpue5GpNmM+Yc+V1pOmdrLpykXrlTjfUZcdVX1XWTaTuXXIW66wi34mXVYeuNJLTqutnJjgMBsMX3xPx3bDgYM17yfRkkX3o7ysTlu2zqFBfLqZnc+UBBECAKG//VRFyo89Y9wxGgHIRofdHn7GfAehgOEHyMHAMsAPPum2G7MkhxMZ2CPGOf37sfT5oQHUtBpTTBQ5didRKTkMzOAqTHNwH1AgwlvN+o24xloQo7moD7Zlij1TWnhFfIzMrgldd7F/Rq1nkYWJw1Ru4DE50bRvhOzPblkSTG6MxfyxRWUsdRrxEbHgQVNoeKc+GUu6rVF+uWWQmixzWUDayCFkS/YwyP2SCw2AwysYjZDpbTA8WPgHJzWmez0Kwg38ugcBBuPwLxfQQ4l/O8Y6fzZjcqFUC/XT4FYdxAbP2MHvb1waKoxgueDhvgkYOCzRuXsbBuJ5jAAUDf4yDeMdhMCgXDJePORh+vZgkkszEti1GhZcLHBq1NpKT20XLEuSgk2j1JqUxvHMwYYJ8x8yzHkjAFWQgNEQvBFxoZMgSyPfYV74TruTOI+hqyihVyHbUVXofL6KTdoKm4D615VnoZ5RruL/DBIfBYJSBp8r0vALPP7ZE8vAmMQ2sAHuOfFaWFI6K9Od4uAxb094Or1DDeOaE0EhODQ36JO5TJZAcW1SmhmZADH1IHDnor+4y8pEcuE7kHmJ9pthrY9vHAAP+SkgbEpKzSYwNFdo3jyHVN8jnWqLw5KMCz020v2p/0oZGQFKs4mSFoab76mqOtuvp7eQZZKDpmDQRBt1gnQDJCvF8wNEhuqSdYdwnidqH39FXln37o0mP1DOuJ9XPpBzH9DMTHAaDkRoQmOApBZ6H1ZR3lJxnCGjwSkxwuC6Ei/5NmW4rzH7dX0Xj7fKSiY3LBSroHBVCcvQVIHh/G4nOWgTDvDYrQbQM6r6rEU2NpLiwYiAbSdzRSPup/TPUBWwszO4fISRHuTCORY5zeTLO+Um1WX/oIC909ULJ8sijXDTq4EQkCEqRJRvaRu9GCf3FFKikppGczgzP0IqNUnSTqi8SOW6nbrGvODf7F2xPddhnW2QEHcmqJ7qCh+Voabpu5vqZCQ6DwUgNiD52Ss5nwV3sSTPO/wcxAcC97oY4OJwk08liGrr6nWIaRrpMY70t9p8rcWywEjlWXZDkqHDB+gDYFoGziQb/bn0gKosEtnDg1Mu0kkHYwBVnEw07/fyFLLKxgu2jfMzXUpeVuH700XhfK7ryRojTJAe5aRoIszJAku3xIiGedzanx3Alw1WcIb6zV1bULjQeVZ/xOoMmEloGcrMkdqMtKnTxENAj8zQoVUE30ZDeZCKAYjlSOVXQCRMpnqAeDJ0E2XREVgvdp5hbP+NEklE/M8FhMBipARHX4OyYmwU+90JUepdXqCwQUe4jmGYKJCMNsdfFodCMvWbQ6i5FwW5V5EBR26bupG4sFh9zkUE6dKO7kSff2D4TNLAnJcrFREQO9V3gNHdo+8Oae1QpM/4pDiiV71yaQVefWPpPaoI11ORf9f+RYaV37tzRZqCbhhkkdj3QuA8pp7DowIHwnwjzJS3eB0Yn189QcE6cOFU2bWGa93LcSqavbfvhIzLdldvendQAIdNRlJFVsk8kFkFo4vs3CryjbmnnDf3gv4L5PPZefRCFVRhyfR1dNayDLubNhC1cOWOEt1HDVe8LXG4qS6sGWTsGxzs2DXLYCMxH35YPcs8qvYf0q7alPdX4VPPMA0WzYD/fjtA2yXVTYP/YdLVPkXpAvbeN+jzXWAGrTFg3W5Y6M763bP2sxshDMQ/vYTAYDAfATe2PxDQsNKzmXAt//wHORr4XZ17gLyum7Jm5Y4O0yOE+FDiw1QqGBm6Q2V6RICyy8i0XWBdrhus7Lna+qxH4zJ6Ns6miGTEWmuDQcN0DKpsoY33SL5ZshqXYGwFtmMNdkIYeHlmiVzVJXkfolle39Rk0Zpu+K8aa4T4IXRnU+rmIsRKYWjeF6lnQUx7nIQXXA767PgsdVpZ+FprbJhMcBoPBYDAYDAaDsTA4jquAwWAwGAwGg8FgMMFhMBgMBoPBYDAYDCY4DAaDwWAwGAwGg8EEh8FgMBgMBoPBYDCY4DAYDAaDwWAwGAwmOAwGg8FgMBgMBoPBBIfBYDAYDAaDwWAwmOAwGAwGg8FgMBgMBhMcBoPBYDAYDAaDwWCCw2AwGAwGg8FgMJjgMBgMBoPBYDAYDAYTHAaDwWAwGAwGg8FggsNgMBgMBoPBYDAYTHAYDAaDwWAwGAwGExwGg8FgMBgMBoPBYILDYDAYDAaDwWAwGExwGAwGg8FgMBgMBoMJDoPBYDAYDAaDwWAwwWEwGAwGg8FgMBhMcBgMBoPBYDAYDAajkjjB876WTE2Z6vj/kUzDQ4cODWeZ+e3t7a7805D5WFqkRpHlqsk/baxzwATrfE2WdVLgvQ35B+psIN+zNuMyViYvsWSMlCkLHfm+UYXKWPm2wDyuylTzbIs26q3CdS3ftYp9sdKyuohycBB04YLKUoje3Lk3RG/Okc4qJY+h3woYq0byfR225+K3tXyGFUViZK3gwOCyIdM6GWSaaGhsyAbawAFoVmiQgW+RjIyj2FnqpJzw/6N4PS9qWF+1ChS1SnmJJWM1bSJgXjAPbbGOhKVWZpmQKKm+WBOLjUrJwQHShYuIEL2ZZxyfh/YrM4+h36riWDXP9hzrkwriBA9yA0I3kKknpjNnAg2NLjYoGB5LB6Gy5IDaxDqBmaReQkMO6n6FzgTIb0Od95FYHi4ye8lIjrWE8lGmvIOsN2VZDlWg38FA3CtrNpGghX+PLFKfs7QtlG+If6tCalPpwqqV9cCjyjP3Ocf+eZCxKo1VozkWX9Ync0Zw2khuOkhuKAbYmJswSELnn7W72oIYHS1iyK1pyn8gr9eRWLYNbcJgLDpmNngchAkFdP+phJGZWhdWqawM7k+MnfrqcFszYsLmogazZuCGNnYMHjDgr+C/W1yVUaCWi21kUQ30Ta4qBoPBupB1IYPBYDD8CU4bSU4vg7UOTQMQbBZDF4idDbq4V6eh3QMrP328toH3Wf1BwRee3Ns17f2Bb+D1titPhmuZecENcGpTXtv0Lu0967isnQc1S30DqYRZjoGlHKtaHbnqs67qJCuvWPfreG8/q1yh9/vCV2aoHOC/aZu0ishYCuToC3qZvOXd1Uf0ewRu/KX3ExmrOeSv7lluKoOq3LXQfhdY1ybdtK+9XXUQkn+LPK5juVyy2lc6E2RW60+NAnrM1bYu/Zm3rF59r2xdmFHWmvZ81LL66mnffETUm159oyp605GfoHrzkBWrDnLZOhkylqnDLWXp5+xHMeo1r7zXdbuIyEzDNWYVkElvWyygvwe1dQFdCO/YwLQqdreLdAUjWGhNCRpgGxvedo/rnRv4/Or2LpqaQgRs4b2b5P8Nw/v6eP0oefemek4T6m2MemTMk0U5Z+YFhXuT5iPjPVu2vGQMFKpstcB23DTUkV4GVT/reI3eu23qdJa633YoZK/7XW2VUTeZMqOVc7tAOffJmIchkbfNfftCi5RjA/ML6HvK+7486r8RxbxFvkMJjq0OIS9HAwbLLUM5NjWi4ex3GUbLtj6wkbZdN33bMDjtq4OQ/Gv126XPWPrkJnnXFinHhvZ7Pacec7WtUX5zltW7781YF64ajJ1Nvf/ju2oR9Exm3kLzEVFvevWNBHpzYzswpFSM9guQFasOctk6jjz66nC9LLTf9guOp3nGqjzybtMdGwa7cJ8c5JRJb1sssL8HtbVPfRnsalN/on8FJ/9ku3AUkyhIcLYUW1XCgmzeZMi06cBv+H3d0mlyE5wcebEprKYhj7Tj+M5o10i5trJm8g3GXN9QR0cN+dTvVeU9alHEtrqv570/RMEWaCe9nE1LOb1lLOagkaNcSj70Abivk8giBCejzzQsA6zxdw8j1FSOfoTBOIvg6HW4YSHitnrMk/8t0q8bBlml7bdOfm8Yfl/NK0eOtrXJQZ6yevW9CujCVYt8NAz12C+oZ7zyFpqPiPoltG/E0psxCU5I+4W0R9b3TLaOSdeG6HDTb9SuaM6I4Hj37QzdEUJwfGUyyBYLlJfQts6sL82mbhFCpH7TCSITlwgEx6syPQjOuqOTmNi+SenaBLMdgeCE5sWm5I6teFkGmH6AEmmQGYptMkB1Ha4pWxbl0qWdN0MRHXUol7plYOjmvT+Q4ORtpy2bws0rYwEDgA2rBcq1alHqNYNST0JwbCs1rpUdRx76DqO2lpjg2GZVVwP0Rmj+tx2rjRue32gWlaMQglOgrF59rwK6cNVA0ruOlYp6AT3jm7egfETUm6F9I5be3PDQmz6yGtp+Xu3hSXDWPXVtqA7f9NFtBQhOnvHKV94bFjuhloPg+Mqkty2WQ15C2zqzvjw9p7pMcPKl40Q4tlWyKR8Ck3+0ijbhG3UNlAwcNjX2eHcoQvNiAwwgQz3SEuYZvuG9BwWjcRwR0wAOI1IH0HE2sRPsMSjE1EfTVtemspkOohobfmtiucaW5xsF70/dTqb7JyXIGHy3Y0mjAuVqmvKFcjewtGEKQH7rmmHTxLwMPPu0rRxFZSWvbIREScub/5Hj0FGbDIxL1GMxy+rb92atC039a+goTzNPWQPzljcfqfTmpKSxuZORRKz2iyArImeZQ3R4R+wGckqpBzue41Vo3za2B5Y1lUyG2GJ5+9mgYN5t+W8Jc6hpjlCcEyfkVEIUMBNRtwxQA8Nve4QbB6iGaZAk7H5oeo+8PipiCIXkxTXLqAwRx0a2eo58gfGwhkakOmC1hWlM2qFBlLKp/nMNNqQsI0fdN/PeX1I7jQLKGVPGhj5nC+QoVxMNionhXcsl6g16HlYP893MMciPHO9upFTsDqKRMv+DRGUprMcSlHUUsWxl6cKGQS/oOryWR88E5i1vPqLIhU/fSKE3I5zHElJvUcdNz4mdIB2utwPaGjURN2rtMEe9j0J0h+UIkaEIn/iNbYvl6mcBbR1SXz5kixGJ4IwdyqlHGpoewhdiPNdxFo4+6xKCSeDvKfOio0aIXjuB8TImAzy0yU5kDfnvnqYkU53TMUn8e1ntFLucURCxL5SJoTZAtPIoYsvZMnNz3kyV8p+6f1ShrCXoQqXLNxIWY1JmPhZVb0ast1nkcxLQfm3Ur03yLB8mGccWK6O/MypIcEbYqeoi20UiNMINvHOTkKWRYvihGw0jKf9YeVkTBWdo0X9zoh9sR2cx5D0DsXsI64Fg9lWSGS7X1NCU2RsTYtPIQ3AY3D8qqgtdB/aNS6yGQvlYVL05R+1XtA90kZyCnC9j+42xb3DI4Hi22ELIC8Of4AzFrgtAL0OBhrpBqLjeK7bByyBcthWiesHyh+QlazZmbFmKDUEXyeVaQIeb2OqCuCSMcpzEPvGo+0mB+8tup1nJWMxyjW35UcvzBV2vQgADyCqu4LaE2RffKVugPwzP1EX1UbX8p+wfsyrrLHThBPvQMJXMeOYtVj4WVW+KCO2XatyMosPJytu4ZPfj6DJSou4ItcVS9veY/akuGLlwnMN4mRAFaUMeX9A6ClWmwsVOAfloWpRQSMM3iuTFkceRqy7UoVSer4OO1siIkKP7Do8cnUAdGNUoUK6mhdjWybeD708lMznKGVPGUpcL6q9uOQdjU/jN6sXavD/SjKhBjmebHvJdRVQt/8n6xwzLOgtdOMJ+b4o61jYdWJ2jHn3yFisfi6o3Y7RfknEzog5X+VoT84uxQ3c0E8hkqC2Wsr/nqatJWXV10AkOVHRP7J6gWrMogdzLpKZQwg6yVTdsAmv7zsqQiClF8yIceWwYQsC2UTgnAe8RtnrF9++JEoKdGjpH26A04d5JgRkKW93b9lyE3p9KZmKVs11GJwwo19CUL6Kgh3pfMBiIsZSlHmVmmOPZlsEwKiqzZaCS+U/UP2ZV1lnowqHDQFpFgzeXy0pg3qLmY1H1ZpH2Szxu+uTRR4ebbJnaDOs3bx9uGeyxesJv+tpiyfp7kf5kGKNbghGV4AgkOENs5E2xu1ERKruPaSQcLmwZHXwV433XiE/pxEBE1Pv75JyANrlfH0TgtxY9YVb+WbeQjNC8KOi/r5E80u+q93jNbuNM2wjzv4GzCE1MXWwHeF/H8H3IU5eUo49tV2QGSD27Tsql6mdseHfo/alkJhTeMpZosPMt17GVVU3O+gY5GxnerWQi1HA2RZKZkG+MQ1zj8N6dKDp43kANjTA1mdKrstKsYP5z9w/LTPLMyzoLXUjK2sKzRujzUOa1gi5LXnmLmI+50pukfW2pHrn98shK0Trz0uFIrnRbpiH2TjjXInS1ela9F+jDY5SRJoZ0b6J8rCccV71tsRL6e57+NMH6UYRsXaQ/MmFxkXFQTo0cMqRjHa+3bIcz2QZUcsjRNjkZtkVPuNXZt+H76sA3n3v7lkOkgvKCh0VtBeRxSz/Qy8eYdBx8dtRxwF3fVG7DAOJ9EGpGuWz58Lo/8KDP0HaKVU6jjGUM0CGHreXpC3tOCnfUr+3dqwEHfXZNB74Zrvdz6B1T/ozvSnHQp+83HPdHyb/ju96/55SjfW3r+GassgadWD8LXego64bh8MA8eqbvWY/e+YioN4P6RkS96XXQp6fOCqq3gPYwjv0Zto4tj746vG2xuxq+fddjrPI+YDVv3yYHWCp0LYeVbvjakjlk0miLBfb3oLb2qS+Dzd3UZOMoaW8+6DMwHfLUQXVtmQxY7wjDRO9syKPLuSpeu22Jl7g31BSrxtj5avl1X/QcnL1pkRnjgdrboX8Hv3/MdQY37RnzFJoXmg89fryWx2Pvykk89TofZS2Zo7Jo0HIbytrA+hsb6szYZqHl8rnflZeiMhOpnE4Zc+TRu0wF+gJ1U7C2h+ndeGlPHjPqq43Pm+RJzQYv5zgbQL1DRWs0ymyBej2274vWTYYe2PcND11WKP+O7+b5PVSO9rRtVj1HKKuzLquiC1OXNStvofmIqDeD+kZEvdnwXI3w0lmh9ebbHqaxP6Ods/q9jw7fZ8toeR5gZLU846nXygCJvJe7b+v6GEkklP8wadN974gkkz42i09/D2prn/oSdtdu5U43wnwdxdWp1Ae/HqgVHGdiMBgHWnesb7MiYDAYDIaBEOBKjSlS3eZBHzsMNvUqrj7pv7fUShCvyoSl47gbMhiMHMpZzQwPuDYYDAaDYUBX7A8yAKsXDR479qGB9WUKegHgc+YCcQJXAYPBCCQ39GRtVroMBoPB2AN0e4XxoYuLNcrdSkVGXONa2oM1JDMQSEIFHGjjb0NR7aMTKmussIsag8EI0RnbeYMLMBgMBuPAjBWmQCFHTWfPsO29rQIkbBmCZNXY5SxdkAEbQ+cezGAcPMV87MRtrg0Gg8FgZIwZKsjAhMeNXYLjgPKQUEefMPJwFF6JYTAYDAaDwWAwGIuC/y/AAJCcjhB8XQQIAAAAAElFTkSuQmCC;shadow=1;imageBackground=none;rounded=1;labelBorderColor=none;textShadow=0;imageBorder=none;container=0;" vertex="1" parent="n95YTxJWQmj0WxtYeSWK-19">
          <mxGeometry x="106" y="4" width="824" height="116" as="geometry" />
        </mxCell>
        <mxCell id="n95YTxJWQmj0WxtYeSWK-12" value="" style="shape=image;aspect=fixed;image=data:image/png,iVBORw0KGgoAAAANSUhEUgAAAVQAAABdCAYAAAD66p7JAAAACXBIWXMAABYlAAAWJQFJUiTwAAAAAXNSR0IArs4c6QAAAARnQU1BAACxjwv8YQUAAC3ISURBVHgB7X1bctTIuvVKqUzst649ghYjaPN2YsfBiBHgHgHFCDBvfwRwKDbwDIzAxQgwI0DQJ3acN9wjQD2Cdr914JLyz6VUlrJUKSlVrrLLoBVWuJRSpm6ppS+/WwrsEKaIxyGyWIzEHSFlBCn2pcDvT7LPhz71X4z+Ow6keJhL8TtyeRogSx/jP6cYMGDAgEvACDuEMFRkCvEeEupPgH/qx5l3A3kQKwI+FGpBKFTVEV7h9uxx9tsDDBgwYMCWEWCHkGXhijSpyHGMC0BJq39gwIABAy4BO0WoUySp+rckkSphtQ+hRislQg5D/gEDBlwKdopQCSFFfYjvTaiBED85GvRSGVB/iwEDBgy4ALZKqCSpl8HB65fh7Y++dXLIT/Wyl/jXz/WyV/jX/hT/FdllEvkKKWbzkZeEOgqyyavw4Ou/w9sTDBgwYMAa2BqhvgoOno3C/KsyLB0pMTHuIQGmyrD0fL737aZZnuA/S3pQtiXD0ZdReOONXS4z+VyZoh5wUaqCd8qmlSo1gp9RS+CeqhMFEMcDsQ4YMGAdCGwBL8M7x4reJnaZkjwf/E/22ww98TK4faQs/nUyHitj1UMlkp7KPH9Ur5NhdEoifbX3r/3H591uUyRoRf5/2mVCIn2cf76JAQMGDPDEVtympMjeCRlM7DKlG91HTxhibmR9gX0RBivqhD3k6TSLbz0+T7yG+3TXWvm2CJng+0dcW0/L/2dAD3e1qwc/uLtwvrtyHjbUO1QYa+vP9J1aEuwuIlT90Qfkl4dqed6zXh2xWu6v285WhvxP5/+boNaxlER5Hz2hpMS4/J9yMT6pZr0oq/Zd7FMM3cPMKxigqIvgXr3sPDt/ju8fH2vL13J5jeuFLygcQhYLRxu8jiNcHqLyuPZ5mPvZW5jYIOJy4fswsZYYuwsSI++b+Rh0gR+y99DXxX58kedu7lOf4y+wNR2qlMUX0MbYZVzqAvWgHHpzUT30A8vyIH9gytSREpZZ+7xFTyida7xcIpMp/i/FgOsKvmAR/D1EYlTkx4UEbT4yvfushajneQzQmFj/fYiNglZa/uZ+r8t6bXWacK92Hr0IentW/iA/WS0Lf8WOgd4Csnbjc6x8DAZ8/4ishRJljN2W4r5nMLLRHuFOoAnyWY86kUedOmKskjDXvQl6a4Sqh/01PaTAPewYZBDG9bI8O0/wY2OILhtwlaDt45GjfApNbLFjWwqt93TVoTogQjfa1JIRPCTVrfqhSilqPqViv48DvYQ8k1YsfxDO36jh+YntWyooTQZycfMDIdOy3NtdanlVzobh/oABV44Z3Oq7CHoY7tLz040ycZQflnUitCNu2ZZCk3MrehMq/UuZ1cln3ywP3tSKxuFo7q2gn+fBXS5mnS5Qj7PffrV9S9X67Mn5b2/sdfquPs1+O/E6CERsr+WlntYHr8Lb7+vBBdcIEQYM2G1M0Wxpp7ToGoY3GZO5XxupTlq2pWohD3UKab0IlWQqBaZCCi+9hCa+2rA/D7yt76zf5pjfJO1O//aTMF9g+cNALwFfIlZkOpEQh6PgxvshbHXAgK2A735bprgI2mBlI0GzOxj3f9+wrWm4n0KTaQoPePuhvghvH8qFyCtiRhL5OOrT6i4sUVr9vtNVpzAUheHreRYuSaOKuKK9MHut1ACfhODNzp+9wgHOs+CW2c/sc56dP+ocugc1cu/le1p+VAT2R+p4yFof/HVDigEDdgMJtJG4ifBculaOMuOG/T85ymI062W9yZTwklApgQmIpS9BCD8pNcvCBLaorAioS6LLg9EhSXs0yt4rSfCYZF4cczSPKBVCiNfq/3FhnZe6jpKeH3Lf0Sh/z32CcC9GB+rk7ut7qqVTe3ggJr5qkAEDBvTG1FFGTqHX0Klj2wzu4TnJ12VYcnEZ220i0/toIHhPQk3O1FB/yZWIhOIT717UrfmkejvdSxErcmSkFB19Vz0HJE7P84V0yhDViSrz0tFSkiW52235G6OWPyZUFfgmYRkw4JJxndRR9P+l4BbXylMsuzJynWTXpJ4jH3xw7P/Gse+h43hv0UymfPdnZVtRfaO3DjWbB1M7MklXFq+99Ic1n9TQY9hfQMpHUuR3OfTn6quCwC0jkiJEHTaqpEtlvOK+0tOHdK+sZ5AL6RUQsCqdqnsj5HPvJCzXA9/TtfzouC6ESmKjgDOBO6BiWv5PoMmuS4CZQfdjjjpvoVmvansLcH8jxZ417Dstf4/L81y6v96ESsJQpFPXV4zDIO/0zaJkqQxZqVkvhu0+CHAvkOL+3ih/aBfngXzAjFSFtFrmOw0xj4K5iALIn7zaroWb+vue1qRTyNk6SV92HH0INYKWLCJcLu732HcTpDIYHpcRwc8VyRddPuop9BDfV6dJwr0JTYBN/ZnvclT+NmTKerFjoeRc57oINXVBLyu/toAvG26Y9clHSs0hbclx7KVzLIf8qvKEq+dZeMJQ1DDHPSUtf6Vfq/E4EGHwXobUq/qRtbTCTX19T+vSKSX2HyTmvw20mlKy2OTL5QMOuSYe+7F/kPAvQoh8kT5igIGRzmJs5rlHWH2WKZbzInB57yhrWv7Eam6F+jLF8jUdYzW/hVkmcOMIFtH29kNVw+96iJeXlFr3SRV5d/YpJYW+pU8p9aRV4ULCnfHYUujggbmy9DMP6oqblgOlu9TiBfP3PV2WTvVQ/4cOAuAQyDzHCLrDX4Ykt48qXr8LAm73mnWOed2SxmwLtmTH/xclVS8D9w6D51+8B73T93Hep5fy9nNa2k1ZKaW+afcZTc5e4nay0IHqCKU3bccSUv4SfrsxkWGWIsOsaCO4faKYtiRwmTyd/zblrz18G+dZkIpQoBOWuxSlzCd5t+9p4YO71Glk8h0O9fuAnaj+ITWks20XMkPiPqqJBPpc+cx5vm/QHzPo62L9D9jttHfbhuu5R9Ck2svFyKo7qZXRntH5Tl4yYjQTPz/uFCZurZUPVRHQm5fh7XuWgUhLqXlHaJZUnVEYi5rO4u8k4SBPIINn3EeRdSwKIQOzF8HBVLVxVKTxK2ZD1f6wuVIFyDD/YlNpGGSnioSdWHKX8vA91R4B+cQum2fn2yYNX/Ahx+iPNkmS5HHWUbdphDFBc1z1pnC//O9LqCmqJBdcP0U/nFltUNK9he0Y7qbYLNqe8Z01jkf7RNNoNMJ6pOpSpZBME+wWukbUkVqO104wzaF/McVJCR8pdZ6HM1WHBFA86CIMdb5642jEUm3dVCQ94boUMmWIJ+P0pQxOZZA9CvLgF0WGinAZu//3WGBvJhFExbkE2UlTpv6SHBc3x0cHuhfk923plAaxHRrq/xObz4rUqY7pwFQtf2E9abALEfpfL6VKY9gsJAn0J0TTRgT9EXuEzYPtX4bKhIix+X4TQd9frzBNLKsObPT94F0UEXSfb5OKf2ko53XSPpRwWdGhMkoJHuDQX8olKaRTl7rik9oShkoSUyT9jAvneRqFN77SmV+RqDJEBR8Vqb2hLpW/y20TFIYmGUulr22aGHDJXcrD95QEzHBbs16Ep84/T+EB1uU0LNgukjWXbXfappflooit3yn8YL8oEdZLQGzfryNsnoyIBNcf/PD4kunUUX6Gy3fb47lw5NH2rrq2pdAfZ/YH9rGzJUItyCMcffQlARqalrLm+1j8LZ/UoCWdn9Q6rwvAPTGgkmIXw30f39NRKJf0Juf5t7vwBKO28mw0wXbB+3l3jeVdS5vsJKJjaVN5pGUbKTaPh+gPkqH9kq5D9kltfRuGFLoFiQ0ubc/obMPHMssU3XjWst8nXC54LhNUnguRYx+W1TkxhUO9sUSoJXmMkY+8sigVvqlBbj+0sSKR1o5mT4/CYXRTFn9RTsxnz37quyyuB99+Wm23cpfq8j0t1APWZIP0OvAd6nP6bEZtceqX6W4mT2k7pz9xMWyLTGMsd2yqnCJ0kyP7W10i72v1T7FMyjH83LZ2FW168G0iQvt9axt2bxoRVl2nXKQa19ZTNOiKlwjVkA2JzjeLEgmSRLMoUEajLjJWw/5q/44s/swcZZa9bzfujc73ju1Fld2392nLNFXLzv+hixxt6VSHl357Aw/QIwBiMawcj4JsguuFv3AxbGvIdr+2/gf88XttPUb/YXv9uq67u88FR4FrIUW74SqxfvMdkltcvmIVEVYjoJ75nv+CUOlobxteFlmUPMCwVFidbS/ca+1oSlUwq46znI+0DpLgy/BA/ls71U+0Z4G1CP21exUefG3SmxrY2fkl5Kxt37p06utzWmTlErXhTMc1XhHaPpaXrcPyQYRlyabvObp0xn0JsT4cjbDbUmrUUG7u3R1cDVK4SSmplW1bz9+ECBWpmoVI0eHFsCDUUtJ8vrxZTAppqwOFsalwqteggahND0uDluWA3/5Qw7BoR0gRGTUAjWG5Pt5ZdUxwe9TaVqmz9cl7uiSdeoaXkoTrWbl4rHn27Qi7hyZCTbGbqPfDFN2wSTdxbI/RT0p1kfh97C6ihnJ+GHgtMa5uRtYUqzH5Nf5ZZHzaxtL1QTY+1WeoppRuJVNiyW2K1usX4YEihaqTUNpSEmL6JPv8rq0hEpSSEBPjmyrz8HV5Am5UPqlFGGqpW/VCYf3XvqmEl6Si1Rd5rBto9z3V0mnpdypxdp53u1bpPKz5R2kRVRGaqoxYOxpN1ZTzIMXuIcKqJOgz3Lf7Rlqu1z8kJOrO51vCJTHF5ZJi9/BzQ3kCPeQ9LJerkgRTaH37DLo/JrXtZ9iO58ME3e5pKbTqK4J2/5thnYz9T7PPHFrXyfONj5FqOSxVxG3x+vRJXeybBzE8IJG/Xcp4pchOBn5ZokLbXSoLW+ssWfZDv6G+Uo8cy3qc/+6SKdHUoS6qP90GXKOktPwfwR+poyyG/9C36YW6Cl2kD+KGchKoUV9cpu9rEybApSZobxp1z6CFQPp234TW4ablNi/BzRnL7yDV8V5442MXqRZDeSkXX/u2qVKoJlBSZlLsJ+RKh84D+cGOyw+E/Fnm8jTPK68CVe9EnsvT+lQm9C+loewJ/rOQYoTJLqW2PUbS+EXWbWndaRGWas1X1QStFqn0pNeATInrMuSfwK2nTNCNtLb+e8N+EfzQ1G+6MiVdBeKWbQmqa2E/2AWVlBdhbQAcOUe1shk0gZJbkoucS2NylDqpGss/OsCw1IoI26XUXGRvzX51jwKlfjh6kv12Ny9nMS0STYfBRy7VOS2XmRlSn+Sfb7G+3Z7xYOjyPRVh9RHw8TnlTAF1x/9rQKZE1FCeYrfQ9FFO0R8uQqQA8A7rg33uV+wemnSjifXfEMcuSKmXAV6nzQsJtERKIk2xAbRmm1qRVJXl/+XooNPyL4JsEZbXJqXaPqlNWfyLXKoQJ84GJF8QkrdMOL20yOfOYYPtLtXme6ql01IH7BFeWrQrqvDKa0SmtuWyjqvSp7nQ9pL7nGfdLSatrZNMp/BHWltn360bVnYFTcayd47fuyKlbgIR9HOnkEUBkEbiKbRkat7VBJVxKoE/xujIqNaZvm+FVCWOXga3W28+4+irsNR2KdX4pCri3W9sL/v0qzKKiXkW/FNm+V1RujzJIH9EKZYLp5d+DHf8vuUu1ep7GoTBsT6X7vDSwnAVjhYS+zUiUyJq2bZL5GAIK62VJ9bvNtKtG65S63dfMq23wf80qOwimUbollAJW1AxeQq+B0TQKg8KaRNUGbLYnyh09SVSA5O1rO6nuoBXPtRVSVW87koQbYeltk47zcxSRZPd7idhkE85vNdx+/R/naf8z8TPnKCvMRChdJdq8z21k0c7ZiZYAo9TWvSL/a8ZmRJRQznJ4bJ0Wb5IsUqqdv7aPpJ2Wv7n851iPfD+UAjYVjTYJtD0vvG+pdZ6gup58z56+Z1fY7AfzbAeDCkT/Fg5SdU7wXSdVIUMWsNTl8NSm6VUa+K9cVMYqgFJmpJvsYh8QWDqvO6TZJszXYm42/e0zPyvSLfLR3XPsuhfQzIlmqSXXZS2iBTLpJpY26KGOmcNZWznDdYH9aVG2tlVxA3lM0eZbVM4xO56LGwC64ZUx1j9ADtJdUS94VP4+YCSVJUk91OZMV9b/rP4VhORkSxfjA7o6vSwlFITZ8PGJ5VhqPlqZycZUxotvAhMztV8pQ0nGSw8AFp8T410qsmx3ee0TDR9WB7zrC+ZNuaAvVw0uQl5zlywNozPY4r+SFFl9vEh/iaLfoKLIcVuYwL3RyaFO06e75st0VLtte4z6osIm0fUso39bx23wCaJ35DqIlBgRKv2K3lw53H++blHw5zX6cEoyCMaqArLf5i9R9bswM+w1FGY3zfJoF0RR2We1NdoyOLP6VJGirxfKfJ2ujxJMTaT9a3AZOdv9T3V0mlXeGlJvFN9TJwpI5g3mZJIR4F8nYvsE2cfwNXCR7+2DZgEzw+wHviMp7WypjyVCX48RGh++Zveb95TjjyNys0YXm5h+3AlItkmLjIyacISqQZq6B7paKjbH30zTM3z4G4lEYq4zfJvh6WGcOtStcRGCVLsO1PuCf21zEdzp76MIalSit/d23CHkmeT7+lCOoU8aQsvLVIbopz2pSTTJiOYq67SuX5RpD/B1SOGW+/om8fyIoignaY3iT461O8dTYalFO26w/o2ksRl6FO/l2e0eHdGUshIl4lYD+H/62530uXkbJrHd5Wk+pGSamn5/0P7oK7ChKXKFilVncdzpRb46Mrin2XhqZJgoUgzcrXPaxBS+6sun2dcZOfPrDwDq9Akf56dP2q+XiustCeZMlmKQH4sd8fPr0lHNsPl4BdsFi5p+7KGrLuECM2uT3fRjqRcYqvM6Im9Rq5rgqPGTauZ2oxr5IEZtoilWH49hL/xhZPwNZGjwQqpasv/aVNMfjllypdASXmKoE7qesRsPiJpnpVZ/JPasdKXOGg7HchAntb1qszOr0i80ffUSKddPqdMFK0MYVFfMi31rVO7LJBXTqyuqJ4U289Daa47Kn9vQhpu8qf9hB8PHxvKTWKPLnC/uFY2Leu+w3aQYPOIcIXeCsE8C24uxcezgypy9M0yZQ//2yz/Vliqc6oUMz2KaDCYKOk1dZGRTmTCCxk5XtAi3NTpe6rriWddPqcmUXQfMqXagiqUpTR+jOIK5KOuD9WWMYF7SLhNKcTAfnYRNoMmXfAMPxb4rkaO8hT+7mEJ3MQ5w25n1NopBCQ6ZZC6WU/d56tXrZFqGfPv9gc1YamNU6VwehQl7Tq3CZzKMn2fCy4dqdLdxkpR4JS8zMR7beGldqJopVZ44EmmWl8KOweqTOb5t1s+eQG2DNeLkeLyCWgfm0HsKDvFj6U/pd506ihP0T3Ur2MK98hhhu8nkmqrsPKhfp6uSqulXrUHqS4s/w0ow1KdUmqhLlBtuMJQcykZ9bJCqCHmkctliu5S6lrOXPparVvFpG1KEztRdB7IB12+qcTL8OA+1RqLrFNGKs1+2wU/1QncBHRZceiR9XtThOoazXhlH/tOwPvY9JHmc03RDyma7x+H0Z2j1h8dtUn6VqXVhV61I9x0WVJttvybsNQmKVUd70PoeFECIU/V4s7hKRy5Meku1eB7qvS+D3mgcqaBFZBwg9KiTzL9n/Pu5NKFakB/yctr2hmplOA5uV4GPuerkOYiXBwR3HP9zPBjIIJ2b3KBxpd1n+sUzUTMbd97NNWF4E7fV0qrVvo8L72qIdVCym2J+S/DUs9cUmoRDaUDB2obMncHCekytdoBCl2sw/e0lE6PtM/pqoO9ZdGPfMjU6EuNamDHpFIDl46N93OKy0Nk/b6DiyN2lF2GLngXEKHZh3MTluw2P2H28y+4XP/Ra4PG0FNKqyQFZUjiEL0gHh+9Kknq3JAqSdgxFYoJS3VJqaVP6mk9VPUcN86k4yGqCxgr/ebpchucigRjl16VyaPbpjTZC7PXvmTKbFPL+tKdkkoN7BhkgxSXn3JuXPsd42Kof9wT/BjSqXEkj2rlfEf5TGe4OBLofAdd53CIAUvojOWnIUlJq7fsHKddelWS8YJUG6akLueweueSUhUZvmN0VL1N4VCY55xrSiz7oNJdihLo6nnF9FeNzzN3eKl2cxKHXmTKPKjhSCdI2U2plKARalorS+ExN84WUFfvxFgfEywTCvvFA3z/4PN0kWkK/Uw79fw9QKEgadkeQascBhWABa/kKHVp1UevakiVusomyz91mIFj3vrzLDxR0qv3sJA+rPa6RHDH5XtK6bQpvNQkiqb+uItMqS8t86COd1QqJWj9ndXKeJ8uI0vS2FFWf57rJjV26YPZL1N83+A1z7B6z0ii20oj6JN4mRzwFRcfcfhgHzsO72xTRE1a7dSr2qTqmpK6GPpDPhqN8mcr5VL8USfavCG8tK4LlVL+VSdNI526hvomUTTJtM0nlW0oY9uXQl+6u1IpYSfTNTAp586wfVBymaIyYlCqimv7tEW0tKEeXsnRxgzfL3ifeP+mtXI+R35IfsX2nmnq2X4EfY7H2K5ulcdQbLJIIG2SR09QzeAa4QoRkCQYDupbYUVapV41OPjS5tCvh/8idpFv4Y4k5f5K/SA/KcJQuy6gNtzX5CidulOXz6lJFN1FpqW+9GPh5L+GVEo3rhfBwRTbRQRtMLBHDnwZ7uJy/QhjaInK6G/jhv0m0OfrC+rsptb6ukmi6+A9Yp+htDeD/viwbfbxdbITbQox9P2Ja+UJ9MfxMkZFvC+++vYJNNFNsB1QYk5QeXhMoPvYcXncL2iOGLsUUEI9CyCOX4UHX/sQ65K0KrDfplddSKrqBtBXs769CEsd3XholxU+qbXZUOvkScha9FQehlFdCi0Smwj5h0NqLRJF50qX20qmWl/6pThWT6mUREpDXjnv1TpDXB+YYTA7lP0RIjHcxHZC/DYlFfm2E2FZot0UmRJGFULi4Et7VLb9Bpcj0ddhpPe6vjRBNXVHistDAn8ddYQqvHjT4AeP184+/a5/9e3fs6CYfVSKlHrRvsRqS6tM/qH0ql+b9KrW8P+obvnXeU7lH/VyWSfQLDutJ6EWeZYsXZDL+T/IJy7CHAX5szYyLVyiFvrSflLpMpGWXgAtOVkvgAk0kU5RXXuCSirdFiEkG2r7d499IiyTyybJdNdAwYJDWvs9SnCxqTs2gRm6h/8p9Idpiu1+iFLoft+XWFNsGVqHKiqF9jrEuiytNutVSZzzPPhV5uHrujTLNvJsdGiX5co4ZetRGfppTw1tyqr21b7Bsr9qkWC6nGbFRmHRD/BXC5lGSrerhy89pFInkRJK55pl55s0HMRY1VslWG/ysXXAF+aifp8puoetfP7UyUbl+kWmL9llxNBEWho7CySonucMVw8jIaaObUZHv8k+3oUUFbGmHfue4BIIVZgfhd+nDCaiFu+t1tMM8nlbrlAbhYQqxDNFIIo8v/3alJiE/p5MVm0blCih5jIYN2WsWgfMKPW4du4MK1XnuN9EpiRFTtgnIdN5dv7Al0j1FNR2DD8hGU77gUm0p5vL1E/pxQx/2Sa/0jNcTdRTDK1uiHvUMedM8kg79o1Q6cUoIV3FNfogwuosqwZdHzgKEibqydybE1ydNNqFCPpDHqMyjs1wtYjQfP8TbHCq6DaIekFJdopcxTM11I2sHb2JtZDuwuxYQETnmXuKEO4TjlaH4jT+tCUh0WQnHkrtf3pKn9LGePzF1CnV9uLcguywKetToS/lbqF87jO8dxKpkkaV9Kteivxkkx+HGibQkswMuzO/EVU2PKeoYTvPM0V/UozK/yl2F7zuKfQ5mus0v32ez6TcL8HuPM8uTLBbyWj4UWIfNPefo9lL/TCJto0uqbUPsVI6LIgZ8q2LwIqYeUXevtKvTtYs3tcuIG0i7T7HM1OUKKVs5COVuiXSrUijAwYMuCYQPju5pFZfYi0k0TCfBhJfXfNWFduVBPIUSYIOUK/rCj9V1ve3T/PPR131SciurFFaas3fK6n0XZdUukKklyONDhgw4BrAi1Bt1KVWX2J9pQ1c9zjViMt9yUeiexkeSPcWmRTeBi1oOoZRIbjOq77fskQ6SKMDBgxYRm9CNahLrT7EWkijQT7J8m+zdaKLXgV3vlZzYFXwlVDrKAxoSjxuk0qXiHSQRgcMGNCCtQnVhi21+hArpdVcKY59kjYvHSc4eMMMVfVypaP9tU9bWl+aTeb5+UmjQWtJIpWJEo3fZlmYDNLogAEDmuCy8o/XJQ1bamXLbcSq53T6G30kVRK3kMFKaNmT7LP3h4HXF6pzbCLgBZFKsa+k0beBmJ8wKTbWwEXu5YABA64fVoiIpBXI4JhSWQZ8YtamdYbnRmoNgDt9/FjbUEiWYU5fs3FV2q0/9UElkRbBDWtJowVZY74fBMEdpZqI1e39S5H9IQYMGPBDwCnZFRnoLXcgUfh0ySTP8CHD+WkfgjVSqyKp+2qY/+6ixFo/txzywUXaNEapXIjf15FGCyIOxL66SffUeRk/zALz7NvNHcxENWDAgC3BSajF0DoPXjPpibMW540KkMi5/JTBX5IrpNY8iBmj30SChqBkLk+fYtXwU0ZiLZJkuEirSHqC7DAPRIQ8T1zt6JDUIIaQp32k0SKbVRDGLgJdgFNOC3nyOPvtAQYMGPDDoFX3WAxhmUJPCuY+VfpL+Qt1i6rWMoksCDZXEuzotIucdJTUPArm+ZkdFVVMdCeqpBAup/1y2P+nOe6T/PMtu+0ym5UdD003gEcmsGBxbKGO7SGNGgJlwmupJWOrXR2RwYgtKfG7FMogt6ck+L+vRCqNGspT6HOuE795RmNHnbPa9rFj23iNuuZ8bHA71SKRVd9E35h2IriRthxnE+dqb3fhou023duuY6Qt25raWQeR536pR50+5xSjirojTrEcYedz3RH8kWK9Z7lyTWtZ+Q3RcpoSqaTAVaJVVnEpPjVJhw1tRqV+tI4zZcVfmsbZDPvr7lJFwhPhTJxxxkkHfaRQJm0ZBXuHikB/KScLHO8YcTZhguXJ+HjOTFgxhe4E9sRqSbmN/xmTfWi1w3p2bDa3vS7rchuDM95Ad3iWx1bdpNyelOsxquQthijtmGp7TvkTq05UHt9I+DzePSxfG+Pdj6w6r7GcujCxzmVctnG/tv0DquQsEar49Hr9JsRYTaqcYPka7ftUvwf1+tx2q3aMen1e97T83XX8evo/WPUNJlieAeETqnymZltUrtcJxBCMnatgBv2sxrU6Ufmfz/kR3OTKOiZ89Hm5L8vM9bONP8rtPC+73yaonhf3+wo3wbrKBJr781tUfZP9zSQ4T+FIbr4RtymDZqKVp3SCbxrGE9ootGrBX5yoxNREWjFRsyI8RZ75XeMPWpduV5DNo3qmKn3O/xXtYS9GiDvqXKnrPdtx4mxDhCpBBH/b18sOOIV7VkzeN6NGIcHUJ2gziaJd06d8LY+VQL9YLnCf+ovMDvwFVcq3s9o1zLCcg9OUA80ze5pzqdc1YPn98pg34cbHcvsD+MMcN+1o1ySxaapPuO5/V30T8JJg9RlMoEmXYHKZE0f9uGzfdV8jVPd9huX7YurZhFo/pmmT7fB5j9HcV47Lurz+N4722Ibdp6eoPgbCcc729bj6KY/xsFZ3arVZvy5Y5+Hs6yNsEIUEOC9OIFHWIqu8JFqlc3yBg1hAKtJSL1CWnZohv1IVpCO7Ug2UPJUEioJUmY5PBg9JploFkPGrFjfV5WSBj0syXdKvlsipR907f66Ic/UlyvA9gCQyRfN0IUYCjKGJk5JbUm6LyrqbnrdpUv5PsCytpFgvefD3At5/vhObugcz6I8liSyGm1DNR2aGfkjgn3gkhb6mh6iG9KfWdp7fpKEuz/k1+iPp2H5Sno8NM5KJoMnT/thPoKXiW00NbpRQm7BEtEvl9NOMI+ZJ5fJCHDxX5PesqZ2CVMPb++fz8MFemJ1oD4L8oxqaR40HV8N1RZiPyuNF+MffePz3/81WuPv7IE4X2HHZSUim05b9eI++lL/ZeU2nYadKsPnpNsyQ8LA8t9TadoQfD7wHZuJC3utP2NwHjMNWvlckCte9jbF+bts+05Gn1u9xbZu9znMlic3Kdf5mf1wZYTaA+0/Rff8SrH5EWJeClVGXHJVtReV5PW9r91IItQmlTnMhnTCV34vRf69MfWJDkSeCMDs8z8JHjHbKpWj8klMStqOhipkB/saPhAhaJ2V0qW04LffjS72PqkPy9y1sHjweX3C+SOy8tvR8hh8PKfRHjR8wc082NakiCfoZKik1sbZNyv8z9Afb5IwLJ577/2L9TmvbuM5rNXpZ3oc7qAgshT+Mrt8HLtVOAn1N/NjzGmfl/xQdgoU3ob4YKb2llh7PhDbSLE1RIsoLlkKcyVxPbFYM7XO9b45q3wzz8vc/zuqGolInmsAH+XpSkz1bQIhR8TuAWJQZdYAI8JPSA5sv51iWX1Ehq32LPAZKpcAJAHfM55S6PHZK87X2Afczxp+HqDpmis1jhkrBz+W4PLaPauFOQ/kY1xsz6A+YuS8cKTzAxcHnmECT6UMsv1/8qPkS4hiVrpe/p/A/vxhVztemZ2w+KAbcn6RmRliXCV5XjMqgS3QKFt6ESulRWdfvFNb1hTVfRGY7teIkFrUUGl4ad9SPMxkW65wIsCJOeaMU3XO8ErdT/goz+eX/4X995hfqjUVILPSkfkrK1ecfYBxI+VO5W0WYlINJmnm5ZiXaLtqwVdjq47KDZEqwI0bl7yP4DdlNZ6dUy3uRYvNDfftYVOxPUVnfD1HNbNr2AsXo5xZzncBnxQ8GiXUCLQFu4hnwfsaoSIL3PyrXfUnRPJ8+IIEbHe4M7R/oWXlexqsEqIg7wmY+Lr4wwoQ5dy/BoteQf56Fv9K4lI2MhKmudIct4CaWvhjqZ44hTY7eKOat+sffBfGG81GUZaN0R6Oh2BHMi8mRBaWQ1KOeLa1se+idQpPGFMsuPlynDjFpqNdkXKMl97pLqQT1ksYizueY4OJIUA2pJ6jUADP4j0C4ryE1tvPVow7VSPxgxtBk/Khj/5NymWLZnWsCbdRKcHmwjWGpT4VehLowLs2xERiXpcUQu7T+P95A3D9B8n+Z396nRMrhO2dWpeuWT/BB8zmren8viCbFboOd37yYHErdxW4ihVZRUDozHZi/E/yYSKFJ1bgRcsSwiY+bMU5RtTKDJrk+RiUbbUP3Oux+yGvx6YdT6HM0fqlEjB3vE1s3Smk3pW+Rord9ORK/KJ1kVPimgrpKfFBj8NMsC97YBGfCQrN8udwXRXpApd8t55NKisK8DH1FEI9E9uwlDtQ5yFMIcboJot1RnEJLc3yJYvgP/fvA536NHfuR4OsO3sZlhf3jJ3xfcN2DNiSojIQRNgNKXKYvTLDe/F42Zp77paiGzzHc/ZDlRodu1+P6R1wTbIxQm4hTijyS6jBav1rMS//hPA/0bKfWkJshnghG99SO+4oM31Jny1lQp+dx6iK5qZ5emsPvQu3wAnGcqQcQItunhKtDTIPJi/wAJmKrbvDSuQUEw0rviTB4TT9YRbRnq0Q739VhvQ+m0B2VJGWGjxd5ier4vWx7v2F7DE0mp47yI6wazLYp/RvPgghugovQT6dokFptNrW7j/73nffnF7T4WPcEj5+giizbhE5yAn1Pu6RO+2PpUkFFZVskXteHh2Uz7DguTKhFur88ODbEWYAWKilSRY6Jst98Ot87T1y6VpPoWScaQZqL/J0iveckQ0WQh+fnOmxwqvvTWPurxqbTMtl+hPkI/w5vx1mGJAyzfYaoFtOtZN9OH8//M9XEislLefuZnrKkcqNyE2xQxO2rfZmEBSIU6qpuGKI9UXrkRzssxdr6w3+i8tszQy7CDP3PPNoYoxvmReG+xk/PIEblx5o46j4s659Z9VknxapRyudcuvadodmCboajKfoPK43Bx1yDLWVF0BLWDM0fibZrs30iu+Bzjyj1xvB35O9qk9ebwA9G2mxSQbHc/sjG0M+J/YP3Ia3tv84oZhP9qBECG0CRAQriPkM20UKgBkWY6Si4p0hrovSmJ/ZU0HoaZymYzMSepVRPCT1KmZR6by8Yn5/fSOmPqki1sNxzbqciGksGPz/JPr/jOYlA/HQ+D95qw5SetjrI1cuvzjPP8O4p2rP8VwQrCzcdn9lQrxDsqHGtzHbm53+j5E/hNuyYEFO7I3Ffvght9+oQlWU2RZVsgtJIAvfLQCI1RjPiDFWsuiFZAxPzb5/XDBUhso1jrMbyu44boSIoHuPU41x9MEEV915v96Rst/4R47b3qMhyBrfUGMMdGlqvj/Lc76KdvGlMeoRuQq3f9xSrzvk8B5L0UVlW70Pc/025D1CFe5ptb7GcG8IITNz2qfzP+2ffuwjLeRdMW7w/CZbR1KebDJumfaOesOslWI7tX8FGCNUHy9KoYPjpzCbS0rXptR7uFyGlkdr/kMRKiVPtm5BImSGKRMd9SJq5MmLlWZious+YLq9M7/cnSVUnXMmU9Cyfm5j/+qwCTORin8d3jqi2nnZsb9vXhRiriTpSXBxRQ3la/l+MWmowJO3CPqphOnGKzahCYiyfb50MbLjOO23Y9xBV1qW2+kD7dZtzTNH9bJrabzte1LBPis2hz3VHaEbas/2mYyywdUK1pVG1Oq4TKaGlUkzm+bdfWW7IVRHkr2Ziv6f55ymTogT5/CQfBWMSJOeYUuuzLAz3A/qXBvK0KNdBCF8NqbIt3oSV41I1sJgaWyabSIA9YMCAHxcBtgSS1cvg4EuRQSrHRJHWOyaDphRpS6VFKj4h43ke3DVkSqmS0zpzn1Eon3GW1MJoxaE6gnEwH52Zs2dyFTXsv0dJVihypCRMg5Yi6LvMjUq9K4k5F+KPvfDGx3/r6awL0Hj1OP98U5H8AzryBxDHr8KDryRqDBgwYEBPbI1QSVYywAdFpM8VWd5UJHdUl0pHYf5FCvFJS6Jaz8lkJyLLHnFfkrJQbMzfMtx7yMz6RTZ/fPuzOHkpf+b/XIq/SKSKRN+ORnmhJ8yy4IiGpTLhdBHplUM+UqT5WrV7bIef2sRKC78i8IFQBwwYsPswUqmSXv98Ed4+tMrHL0cHX17u3T5arCsJ1xCfIkEq34uppEtLf5lo2kjDuh7LtL+pPpYi7q+GVO0ySqK2tDpgwIABF8XWJFQXytylxxxeK33pLZOFvygfMQ0fPj0511OVjIL8GSVcSqfUwyoptHABUhb3X4zbkkBw9hL/+vk8C09K1ysmbHnOWVvLsNMU4ZyRIG8MqbLsPA9uKX3pp0AqaXXvX/sYMGDAgA3gkgk1OeOUzyQ0S49akCmd/KkWKMsiZS07zObfZlwXYUhXp0S3IhYEmEv5lwzDWwXBSjE21n8JmSpDVtEWvQI41Fc/Zxapnj3NPk+e5J//2XeW0wEDBgxowqUSqkHNMZ66z0+08JsC6lHzAO8qnas81DOTxmNRnxRLarcItmHyqFJK5RQpRvosLPeBIlUp/4kBAwYM2BKuNME0UQzL51UWcZJmLvIPRjqlflRJnEWMPYf+UgY2oaaLbP1BfiJkQD3rtHSdei7zkNsKCdSoEgYMGDBgW7hyQq2jzGi1IFilH01QRj9w3qm98NsDkwMgy4OZ2S+bj07xj79vmalMaNXHgAEDBlwi/j8uit1s2RfVagAAAABJRU5ErkJggg==;shadow=1;rounded=1;clipPath=inset(0% 68% 0% 0%);container=0;" vertex="1" parent="n95YTxJWQmj0WxtYeSWK-19">
          <mxGeometry y="6" width="103.02" height="88" as="geometry" />
        </mxCell>
        <mxCell id="n95YTxJWQmj0WxtYeSWK-22" value="" style="group" vertex="1" connectable="0" parent="1">
          <mxGeometry x="130" y="1030" width="934" height="116" as="geometry" />
        </mxCell>
        <mxCell id="n95YTxJWQmj0WxtYeSWK-20" value="" style="shape=image;aspect=fixed;image=data:image/png,iVBORw0KGgoAAAANSUhEUgAAAzgAAAB0CAYAAABJ/pcIAAAAAXNSR0IArs4c6QAAIABJREFUeF7tnQe4ZclR3/vO7Awia8FGZCVEZkGWSCJYEhljRFqRgwnCJpicwZgkwCbnHEzWCrANCEsEEWyBSQtLRoAQ2CSTjBCwO565vr/RqaW26FB1Tp97z3uv+/vmm925fbqrq7ur698VepdGGRwYHBgcGBy4CBy4NaX0iGmgv5tS4s9ahb4eklL6+UwH0HD79Nsdmd/5jj8/vBZxhXZ/yPT5uUfuf3R3tjjAepHCWvWsl49LKb3p9NFfppQ+MKXE30vKHDqW9Of5lv2LDMjt/9z38ERkE/xALkT5snWZw/h+TskY75rx8HvUyXBgN7gyODA4sGkO/MVE3YttmspB3FngAEqEVoZQIHqvK5SMr54ADDx5MwMaPielhJJHAWA9NMM4qSOKzsc7lB2UB74rFX6nna+p1IE3onyimD3yLEzqoPFkHEBZFaUchfzxDkqeMO0Pqvbaf3rdArJY57ZoAOEg894qHtCm2+Pigr4YJ+Nj/3tADjJB718rN2o0n0rmRPgodffqI8BtTR7NaX98ozgwAM5YDoMD2+aACMSxV7c9T2eBOrlBFFq9Sll0bE9SAAcQA1CQ21hudn+nccjzO/VECeT7lrXJgrcSzTXFSSuK3K5Sd0mp3SgvaXd86+MASjNrnrmcYxFo9aLXC6DCAwb0Ou2xxqBRg4MSHRZAtMbG7x6QL8AJPvPfrHld2Pd6/wKA2MsW9Nj9Gz3vTiFzPDy0dTTAiYC4OX1d+G+ii+jCM2wwYHDgyBwYACfG8BdJKb1xSumxKaVXTym9UkrpxVNKLzg189cppV8//P4Tk9Lzs7Hmz3xtfcB6lbLooFFyACmi7Nh+sPBww0uxVhwUIJQVKV4lwAtwUEJLrm/cIMuNPApY7iZc6PK4z4klijHS73m/rWUOGHPUtciuL9ZND+uZBiDQxBx4QIh3vdcAjraU6va0myg01awbgDK7ZvT30i57RvYT9a3bJ2t1DsDJATCxlrBP5BKixC/GBi38YQ9o65W1XiwFOKeQOTLu0lzn+CIWYn6DP5G9svTCxbuuz029AXDOzVSOgZxTDgyA45vYN08pvX9K6XEppau+T27W+p/T4f/jgW/OctVjABz4oxUqexOsLUkoPhzcYqHRSmPEwqQVJA1OtOsafdCmuMgtmcfW2ZkDXEKXBxzNoS2n/Ebake8BARHFS/rwgkwPTS3+etrAvVdbFBgTLpFzxpbrrwZw9D7z0Jqrk7uAmMNjeKn3I+uvtAZpX5TwkoVJA5Uc3YAs/mjwZgEI31EHoENZCnBOIXNk7D3m2rNGeuwJTz/nps5g2LmZyjGQc8qBAXDqE/sWKaXP7HDj+6UppY9OKd1zTtdRTonoZcHJ+fej0KBUocTk3Mv4DQVKK0HcCMtNtChA9lvq55SzkuuPVuyEllqsjnf6W2endpmxbfbiu213jvKbGy88BnRGgYB1gfTyMlevxd9W2zlaevPdAhzWlyTWKIFovcZZ2zWrXm6tz5ljC3BqfLBAqGQ1IP5IkghApyd+hrGzL8RKqkFOFOBsQeYMgNPahSf+fakQOTH5o/vBgXPPgQFw8lP8EimlL1OxHj0WwtMmC9Df92hsg21YJaKXwjfH/WUue0o0lwCOVkIJAkfJEmWspWBqGi348pyd0IQ7Xs6VR99ez+XFWgCHdj3xFzm6e7io0e5SVzK7JnsF9DOXOWsj/EJxb/WzNAaH/nFJ08VaXewFALz0xOnQpnYfLSUsyM27N7YEUMSe1CBH3Ea1q1drf21B5uQADvLJk1Rhzp5fy/I7h5Yz8U1rEZ2JQQwiBwfOMQe2AnCQFa+SUnqZlNKfp5R+KaV0/UR8f8PpJvClVuj/yVM2pGO5HawwhGKTFw3goExJFkJRPL031C3wEDk7c8pYFFwylpZFxSZwWLK2bHD4krZO8a3OcCaAqRZT5aURuQBvaEsyhvEtgFWsj7hdAYIisRm2f2/sGd95wEupDmMQYCZWV6Elska9AIe2NciRTGvyb9J3a39tFeDk5g1a2ZvWba90QSDzAVDim9a+967dC1evtYguHEMu2IBJEUtQ9t8chOTfpZSee07Gz7peoqDCk5dPKf3KBvixBYDzztOt94MUP1AcP/uwfr4gpXTjiHziFv5bU0pXVuzz36SUvmrF9ns2rYNWW+3aVMpzbhtzt4g23qaHIqnHooP/IxYc656G4nkKgMNY4D3uOeLCFA2i52bdoyBp1yjvTTKKubUKQJ/3+9a6O/bvOaBH7E0rE1+LTn1BgByCb7L/BPAwzxLo3xvg6BgrHaBeAi/QIsBYEkAwRr2HSqA4CnAjAEeDHPYkY4m6qG1B5sh6aY1dZ4VsgUZtQWtZA1vr9cL/3gPgvHBK6SdTSn99yy233H39+vXn7nY7FOa7b9y48THqBm1rzGZDcRNMViWU+79NKf3flNIvpJR+f2Vi6Zf+n2P6vsukUF2ZjPQJh4DsJ5pO4AeKaw8/9V70v8aUBeunWw0+6UlPuvz4xz/+P0+gDWHy7NY3md/f9RCM+i0HkPMNB+X936WU/nhGG70+OTXA+eSU0mdUBvNdKSX4tQRQenn1btO8XPJ+kFL6k0mx/NWUEvLutVJK75JSetFKG3+VUnpwSom/t16OwXfNg9yZMRc0eHnrScebc/3RioUouL1ufuecnSibyFUPUNG8EZrXeDcDBVfiKaTPlhLmnbdT1bNzPNfdztKv1xg39fSjAQ71xUWP9abdsKQtfclQy9SXy7A1J/6GfiWpgJzpdn5tMgbqly4/5tAg/UnCh5xFYgnA6ZVuW8+3R+Z4AI4el+ddoLVl6an25En6nSOk70PonXfeef9HPvKRf7nfP++cvXHjPpe5KAm/d5KRtTv99wel7FMz1f5VSumbap8/4xnPeP5HPepRnzWBI2394EAF7LXKhx8UrC/MVPqIlNIXtT7u+HuJB5926IPfTl6e8pSnPN/jHve4n79x48arXb9+/UevXLnySdeuXasBnXc8pAd+8uXLl9N+v//7GzduPPHRj370Z//Yj/3Y/wsM5rtTSu9A/atXrz7nnnvu+eTbb7/9y++4445TuGSdEuCQbtmTXeyDU0pfEeDvnKooFD8QtNwQo8Phai2TpI3+2oOb3dtXCPmkDPifQ/fa32wV4ORiBTy8kBtnHYPhUTYswOF7uUEvKUC6XQ9tLbchaMBKI1mklloMoElnrIpklfOMhzo2GULp8dVceyjr0NdjnCV6WUf8Ebcvz7ise1ovwKbnIgdwACXcwItrUYlnAjRaqcj5Ht4Kf+eAC9poARwPT6XOHBrkgV32G/sb69fSd3ByQODYMkd4UrPgRGOaBsCJrMZG3cUA5wAGHnTp0qVnGWAj3aJIiA90R7K7NDUb4ADqHvGIR9wEdQLsJopQBh/toG4AHAeTqHLXXXfdettttyEMActpAi7feePGjax15vbbb798xx13PD2l9EaqC1IBv2dK6ZmObrnZ59b/+UxdaHj3g7XiNx1t9KxySoDzfYfb3bdxDIZLjJvzs1J52ZTSL07v2Xi74ALhIyuVLx9uWBnfWxXq/MYUc+Tt71T1tgpw5ihCmoc6CH8OwOG2VNyuSgqudn3zzF/LpU9bjESxbH1T6zeXjrfHmS195tpvgThN79I59vBc6njpyrlc4YrdI45B3jWCJuahtC6jwLnGB+tOpl0JAQv80QBTAKF2JWXsYj2kr9xbOZoGeRw156JoLxL4TvqUNgSUiYucdt+jDvQAcjSNPSw4S9djVObIeEsAx65Fj5vkADgRqdCo20NYPmi32z3L9oPif+edd9768Ic/fKtuHrMBzrOe9az7P+QhD7nXaqXGPgBOx8WpmiK4/Wd2u90L3StR9nvcCj8xpfQlmRiQh+52u1/Z7/f3U21wi8+B/u0NErHg4Zp2nwKwun79Ou57CC2C7I9VTglwGC8uqJ7ywJVcO5FRANZ/7iFiqvMHhzidV3CkfCbO6rcyYFa6Alj970C/W6+aU7w8h25rXDqGQ26llyob9ClxIBqI5B4/pG7NgtP7/ZMcP2qub/LAZETJzoGPXq5W0J9zTYtkzcopd611suR3L8Cx89DT6iX7R6xcxwY4mn9iebMWN70P9Nijrpkedyqhx1rMcvstt561y2UU4GxB5uT2gF6nen0IeFoCfntZIpfswzP1bXeAA7CZlMH0zGc+834Pe9jD7t4oRwbAeZ4bWs5NbzMuamrtvMtut/sOu5b2+z3Wmfc5xFVw464LsTOM4z7l0qVLn3Xjxo1PqcSM/MjhlfvHykdXrlxJ165dkzX9jQcl/n2PvJ5PCXAi1oHXxOC2Am+wmpFUIFJ4F4c59hTitXgcNFf+RUrpKZ5Gzkgd62sP2WsdmpFHJ23ygzmvzudicPSN+xppmfW0079+Ud4uiQg4ySmD0aDv2pLMpeqd+/aNeGh4EhLIjb7QloszydENvRKM3tpqVtnGUoCi36OIPBTgUAI4dpxL+tYuarod7Vqox6jXvN7bUYBDXx5wWEpSkPsWvoibmoxFaI8CnNI6ycU95er2kDnSbs6CgyxgjqTIXAyAs2Q3BL/tDnAuXbrETXfa7Xa4b/VoPzgkd/UBcM4WwGFiv2232xFofm8BUF+9evW599xzzweklDQAwtqDywjvpdxbpnVJhqwPyoAcbv1Lbmw/94xnPOONH/WoR2E5OmY5JcDBevHSzsH+05TSnznreqtdnWL4oumgia0BuHhKLYlCMx7P08FG6pQeYYzEXKwxFKt4QU/OR7/Vdw7g2NfTsVYBHrxKUK3PkusZCh9j0g+W0o4XYOUU0chteotP/G7jbnq3X6LBKndeq4xnTNSxynYtCxV85o9Y1zx9iNVArIg118m58SBCR+sdIA2C9drKJdagTb2uxGWNf7cASoMzz+WHjjGxPMx9b+WQxMf1ADieObS8EB7MkTnSnwU4AHfmQZIqUE940XKL1e5+zJO+OChZr73jvnD1egCQV93tdmQoulkAOMTj7Pd7ArJv2TBHB8A5ewCHmK5n7nY7LTgSVpZ77rn5AD1zqq02BIpzm39vAeBQ9vv9p2esV59v4zYmQISwev2U0v85wXo+JcCpHV6aFSR9gD+9C7e2c9I1v3VK6QedxNRuNt8v567obHdr1WrjXCM7V238ksoYZUfHFKDsoGhEXLmknxzA4Td9o43SSJ+S+WrJHLWUc/ph/8ibFrjb1YLxJUbCAqO5gK80ttyepg/om8P3CA/XBjh6rqEr53IHn7Hy6MdX51p5WgCHc2NO8Vj75I0nlF75o8GDBdQ2ZbqsM1uvBJBy46ilmJYzOidbBJxpq+HaAGcNmQNPcnE27DErYzxgkfZGDM6cHVP4pgfAIe3qnZn2Sbl8/4609m5qNsCZxpU7DM5aDA4HwMdmGLtFFzUhk4xdXzYlG7BZ+7iNJ7udFKwKf6iBtgI4uFNxIEh2NdYqsRv3xvlMjSDwSRzxv3ovQGd7pwQ4JA6AT5YnmnToe5MpTsY5JHe1Xz5kxHt1d+1/qEhygVyWwlxTX19xO5yr+MwgefVPtOKCQguYECXn2FacHNjyKgAlRpUAjlb6xCXqGABH6GSsnBUokqWCkoRVxVqW5rqNlfqpXVj0BlI5GqyLZK/gf+nLJnkoveVjgdBc979W8ouIi6/mVynr39y4tlwWNfY+605bubSy7pEJsp7E0qBTZutnJnIgh4sN1ncpQ5zopkLjUvC9hsxhzuyc6Adf9Zxq+SYPqorrpa43AE7Ho3AAnH/MTI9bCsrweQA4pKT+sLMEcJ7+9Kff8pjHPIZ4m4dKrNdEPzf9PNBoy/fodMCTReanprgLbZHJxeyg3HNT+6emUTKt0RcAce4h5t3GpwQ40PjmKSXSZudADjnhPySl9JXewQTqlS5OPE0Ql/V6jorPP72TBBDOldeebnsdTW26ij2Exb1KP0S4FGBEGGCVjR6JDkoAB7r0HkXp1RZgzQPJLqVjaUqpfL3xIy2+0BeK4n2s0pPyh+xZqthJ/15r7FrWPLE4CD29HzG0a7xlBbGxOnPeUokAnJauVVu/wrOeAAfgIBcccpGj92Ur4YSOMWHf0J4AHNYt/y1Wk5a1swQUaIN2e8imNWROjm6937UroH4LSFsQ7X4bAKclMQO/tzadp6mSIsJjmWRW2moZFpznvbmzVYDz8ClD2n87pOvlMcnfVgvpPaYHH+WfPm+yROXABgHkOh6Dt1E+ymTYeskp9kYr8U+d3GXIJKbLy0yB57cdHhP96EOWMdza1iynBjiMjUOGR2H/5QHMPGB6EBeFgEPwZ1cafGl/ersjOUErYx7ui7gx5go+jwDZv/d2uOF6VpmTm3PrMjTn9fq5StcSduUUJi/AsWeelhk5RW+O4usZm9ziihKov/HG63j6oU4O3AAAcG3KPejcUm69/ep6NnGCJ4A90o8dYwuo5bLItb6x9EQADgpurWjAUVpzNjBe2tNxG7mkBALG9UOf1JMgeJkLLSdq1utcbJt2y2J/0iftUbjAyBX2LGOCfv4uxcbZ/bAVmcOYcln7xDql95cGaXatark7AE5k1zfq9gA4TE5OyeEF+Qc5aSW4m1tyq0w6Pw9VY8wcagPgrANwuA3HPfFmUMyC8sm73e4z+H6/33/zlClNmuMNE96jAZhgSfmWSj+8Z8Pa+uOp7o9m6vI9oEnKEw+pp7Ho2Ic9SVcN8Hm5qSK/k3HtJxaMs/XpFgCOplH2T4vupb//WDA1tO2PZBDvPL11k6Plpqtjhcjvlcdelw7kxN/bA1grr7lb76jVYCvKRgng2GxGNYAjwGltJQNaUXJ0HIgsk6iSXVteKKIosdYlT8c68Rt1rAWpN8iyYLrHrbyM3Src3rTgdm94v5N+IwAnIgaioFqPo8TXXB3tMsjaF2tmy7qmgZCAI9sWYxDwApgSEKYBjZcnlh9bkTnQb2UF/IeP6MXIHg0qdeIIzUNtbVxb9nh5fi7q9QA4xCfwToUtv34QnK/q4BK3pLiU8JYOjwqu+Vo8fX32lEGrBnDYUNemBx9zQ2i5qL3aYXHfm3gh08BWHvrkDZkPzdDH+zLwKVqupJQAEFjv3mvhXP7ybre7GX+x3+9ZX9CqC65T+Fx7AjnfOKWEWxpzastrHHJjkHCAgssV/RBLZQtrh7gOqwgAnLA28fcaZWsAZ40x2jaRS3+TUnqBDp3hoghAJp6HdpkrQDFxQ7XymEPsFSDrLBebsSinwNl4hOjN+laUDQtwUND5Nx2031KUxFVuLSUDJQ9+68QKsr56x8Aw9wAXC6JywCWXvhe6liR90Psmt0Z6uCVKH9Y65AFnksbcgruI9SoCcHpYcEqyaC7AKSUeqfHPyguZx9Jjl/aCwStP4Rd7QsfpyLdbkTnQo9eAyE7WFrK2Ni92DHKxsZbs8fL9XNVbE+D80sE1CPe1WrmUUvqvBwsQ701QUC5zLlO9mM5jgSgtKLXvVHgDhhgcsieh7LIIc0pxDeC84+TXz0L98gLhWwE433QAlu+dofEjDokUcF+Lli84WG/4llJKxexp8w13u91PeiqSJnoDBUDEWpGEBT1J2grAwa3pXVTWGIR577TQwjcsZIDkU5UnF5TQU9Ezp9+c0pq73c1llfIoiHNokm+sYtXjHMoBHP0OBX1btxtNh7617q1kwGOU8Jw7GHTBb+amV7zNHMV1zUQH1kWy9/qy7UuMGXwXgCcWBM/7TF7wFQE4rTXuicFhregHLmU/tVzU4AftW2uCtXxJe7Xxa8CiwWAJ4JQyrdGXuNMBpCl6f7T4FZU/a8gcaNCJLax8bQFPcVXjLAXgWFAUteRFeXLu6/dYRCULTivID+aS8QprgS7crs5JDeuZLHnzglvct6sAHACQZGLib1tqAIebX7Jx4ar1Rimln8l8fx4BDsAOxVCXyG2Y/u6HdruddavIzu9GAA60/cdCRjrPuqzV2QLAed2U0g+klEjTLQV3UlzAiJHqXdg3a7r91ej9lcPN9RtObpa9x3Ws9nLgpmaZydXvdXufG/MayoZVEFE2JAYAxYH/t5nMtHKile4awKEfUcha8ynAhvas5ZdvUfBQbLzttfoTJTYXy+Bxfcs9AEqfS7K55eJ/vACiNF7r3uc6K1rMU797AVgE4LTmWAOvmmJbAq+14eF+puN3ag+Aeiy47Cvo1anFSwAHuvhNrDGsJfmjAb21aPTQTTVP1pA51kJeu0DJXS7JW0nada335Upg2Z+/qnYRocgQZxApr6yyZejviJEo3VhRj1tacQ3S3+Gi9pYdhb5uW/z6ofldKwAHdxY5HKGFuAtdWi5qADQOFALjeeH9b833Wwc43BJ9bWARPGwSWi+c+Ybg9No6sJ88brfb3eeRxv1+TyB/LV4iQOqiqvCF8ZTKOxzmm9iNnuXUAOcFU0q/VXjwk3XNXgLQ9yy8YwOgOnZ52mSlqt2kkzgFF1T+/icpJeLBkFmkEcdq/YuT9ffYtEt/YinQCrVHQbVuPrQHHzi0W8pZdKxrKBu5G3BRfHP0Wxp04oKakiHKGopgzu0IvnPLTd85VzThlTww2cNqU3pclL6irm8lkDPnsioHbnrE3ngzwkXXpa7vAWERgBOhpQVw2Kv6TaWaBYd1CBDJWXCgKReHJEkCSjSzrgWwSJ0awPGM/SwCHMs7m/a8ZcHJ8WUAHM9qcdaxAAf3ItyMTl3+ano4kHTAvQqL70+mN1F43+N9KgAHn31ecX+pS5cu/cmNGzcAffogagEcbra/cyIcVy9x25KxLAE4xCu9Ti+mHKmdD3KmEn4JFMTdbnefl+v3+z1udP/pCLQyr6y9UvmKQipqUQbJ9pZLVb2E9FMDnLc9xK38l8oAogCWpl5p+sMlB3FblOdMQImLESysvYFibQ6In/qUw6ULb+JYn0foIzYQiy+XHazRWiH1+LdOLp7HdLMrxXd4wI2MJwdy+G1tF6oet7VeFx/GYy1WVqEsKRk21XGJbusypdcLfYkL1RK5IN/aW2TdpnZ9ifRl3RYja4h++B4QYgGe1zLSorW0TlvfSTYx/TffMCc2CYKH1gjAATTUiraweLxfdFseRTpXp8THORcbFxHgaAtwbs4882LXxAA4rV0c+N0KaDJC/Ujg+zWrYv1g0/fKrEZczddNBKPIAjo+NTMAeQfn3gcAL1269M03btwAEElpARxSCcvDkMTyAEjYAFKWAJxj3F71nleymHEjRuB4qVzlkNntdiQEuE/Z7/e8aQKwW7PQx/dPmbNK7lHM4T8zRHBjT9zY/1iYVKE0tlMDHNb9N1YY/8UHUMh6bhWswxyoACYsH7VCaub7tRpc+Pvdk1JDKmne+bFZ/9jjAPN/O6XGjnZH+1guSUW9RmyW0FNzg4oqprSZswBJXyh9/NGyLMoX6ttA5WMCHBQI6zJm02OXlAwdf1C7Zc+Bjt7uaJrv9Me5IK5p9AWIAuDMLQICaSuSWe8Y7/rk4joEtOg0ybJOPW8WaYCMgi8Wthr/IgCntcaXWDA8irStI6BOLL36zRYZc8TatnWA01vmWHCY41VrXiQZgV5jxA3KxcCIwZkrvabv7KbD3SLnZlTrBoUFi4ct3zY9Alj7llTSL5KpACjgZpi4hl5R5Cit+PbjTnLLoc9WmmiygH3z/e53v3Tt2rV0/fp1Yo0ku1YL4DAkAA5Ah/KMya9fxrIE4LzBdOAsnPqbn5MaOZejnltorBW9CrE5xDaUCuDmybvdjndW7lP2+z1JHliTKIxrFSwK/31SvAHUrBMe+dSFOf/zg1sliTGkAMIflVLSD4b2pvGsAxyspTwE+ha9GeNsj0QIAOw/nCxErEPS2vMn98YN88tlCFkEdcyRs7t/VI1kGbzF1MMVyTZeu8leYnUpZeCi/+hbOZKqWNNuYyZayp+H9zULjriNoXDYrGK52BTreiIKMnwRhbAVqyBzU4r/8YwpUkesJtDK3PdYb9FX5Evpr9eI50JhBczQtnbXivDM1gWw0BbgxtPmUoDDepK9gFIrAHVtCw7t6zgt1orE6QCUdfHSsiWAcwyZo6038Cvn0ugBOLSTi8+jzQFwluzmKW3qwiZuunrlbnh5fPFjGo3jDkT6XVvwwf/BpYSp719xejeFf0IZxc2kBXB4m+eZfHD58mVSFd9148YNXGcAXx6A85SD1eGtFA0IMAnCXwJwOrLlZkY5MsvZAgjklr3mrtWTjq/Y7XZZ1679fo8iigUMVyFiH3oXUhF/R0rp5VXDfzQBUn3IvVtKCdAuBRfG118h/sSO7ywDHFJ5k6aZOJ41C1YY4t6IBYJfvMNEeW4hC2KJFi4kcIXEkt2z/MLhcoTkI72s0Zo2a9HtcXtP+zk3o8iNrqaxFhjdAgreeSgBnFJMSQ14eFygag8hCs3IfJSUHmDDy4ct1GspdlugsQcNSwFOKcNYdE94+K3rAODYLwJyNMi3Flzvnt8SwGFu15Y52s215M7omRdtsbFr0sv7Hmv5XLbR4+YMFw7cVGzx+OaXAA6HUk/lmgB1Hvaj4ONPYDQJDvC7t4X4GUkvys0v2dCkiPuaB+BYkyjvAvGuCwBpKwAH9yqSIOQKKYGJKTlGAUw+bbfbcdt/n7Lf75knXAmxuj1nt9vdx3VpxSxq3KwAYMQ6Q0wIcRgUrAJk2mItrV3OKsABOKMASIzNWnziQdabD8IuLIBoUtY/YGE7pc8BemQa7F0kXoK/UVx63d4LnXIrL65Kc+gvKXI941FaFhzWoih0kiCgdEsvN8C57FzHssjM4fOWvoHX8MpjCdkS3RFaagBnbryWWFMibqD6ksP70CftQ3/OginKO7zAMuEB6FsDOMeQOcKnUlIGrQOW5sVepsBr5gYZZbM+RtbmqNvJggOQ4eV3WzxpKY8BcBA03OzKLTLuYrh5Efyfe3Pn7Q/v90gWL/7GvUQKj5ECjrj1z216XNhwZaMQGM87M7rQFkoRq4KUAAAgAElEQVTUVgAOloqXNDRivcFVkVvxdz/iLiGxwFN3ux0puu8t+/2e/xf3tp/a7XbEyujf1yTxzunmnfgMrAIo69zCc8MfOYCW0HgWAQ4XACQIWQssCD8B6MRELXVjZT6Jv3r+4EThNsklCAlMPFaqtS4Noq5EwWHerJ7zF4+0o927+K53ZjZJuUrbyGarHPA7ygT/7lW6dXYqafdY+z7C21H3NBxAgdWgWa851o529yolGcDKJ26T4nLnARR6xKxrcXNifeb2lrbYSB36rYF8vvHGcWGtkMI33j0m3+j9y7/p1MlzZ3dtmdOiq/U+Uev78ftCDvSw4BBE+0kZOnhIk+DdWjkGwLGuaGQ3I0W0B+DwRg9v9eiCKxVttAAOIIq4Dl2ePinHWwA4z1eIQSBVLq+8o9QDftZwqymtCdwVv2232918+HW/3xO4j6VECkpkT4sAFrzcO0eavh+dXA1xXSLeDLdDicVauP1cn59FgEPs3Ec3RodFk/klgxmACCseiQhK/si55rDKLo0VAzAzxxFwQ5YsrIrcgBIjRtwO1j5kTe1NDqyCxHtxiTDK4MDgwODA4MDgwODAShzoAXBwT8NNzRYCta2Cb+usDXCIIyEQXMf5SD7/EsBBgZXHC3FJsulqf2+6tSHg3BZtweH2GuXNFhQcYoy+MPMbmd2g6xjltQ7WKSwUtvAYKv7ltxXM12vThrL4abvd7pP3+z3K4lpZ/Yi5wcpQUmz/bgIyrAVizHCN40aoZ2yYh5dnDeAAnEnHnoutY7wkFiGIPzevWA6xgBLXh6toC8wCKn7aw8RCnZc9gFbiY7Qbaqs5gO77F2J7kKe82WTTwus2Ae/E540yODA4MDgwODA4MDiwEgd6ABxcmbCI2EI8BWCgVtYGODr2Ruj4gClddAngYHnBjY3CA5Y8cmgLCph1P6OOBjj8Py4sZAjThZgB3vw4NcB53+ndDzs2AB7vfnA7zoOnxOgsdQGas3wBE2u6g9gkEEIjc49VEmtbLsvWnLEs+easARwy4eGGmStkFgSUSAr1Gl94I+f7KjFifLskfThgiv3KfvcWLgTo06aU1t8jU7EIiauqbZv08wCkUQYHBgcGBwYHBgcGB1biQA+AYx/IglTefeDGu+WKsSbAIXYDhQRFRhdcnnCNwV8WsGOLjvkgsJ3X2u1NMm5NuQdRLcCxqQTp66mThejUAAerhH7bB9pIgEA8AZYTyfiGWxaK5nkquQdtcZkinqz2qOUpeHDWAE4peQe8i1ovSGP+LRWme+L8Sp8Tfxe1lmLR9awP3nIquTH+6pRs5BRrafQ5ODA4MDgwODA4cCE40APgoBgSeK8LVg9csVplLYCDmxPucdwW2yIZ2nA1ec/M7wS7a9cyAtx1emIULlzyWjE4NG3TMJNaGICFonRKgAN/uEVnrLpIzAvuRWQPA9jxwCZ8PIUVp7V+Wr//6wngkvWM8eA6RSY70j0L8GVOiKfgLac1H2Rs0Vr6/awBHIBxLlsY1kDcHiOFC4Zfmyypue9IIU7cTnRt4rpKEGzkzS/WBvU9Vj32Fy6sxBbZQsyOtepGeDLqDg4MDgwODA4MDgwONDjQA+Bw4ON3r4s3JepaAIdxfevBvYy3S3TRwMtmSKMeFieUDywZUoi5eMvpf8hOwi20J4sanwCGuIWmEHuAZYSYoFMnGSA+iodPbfnY6XFV/p1kA5L5BRdEEiuctVJLg01WNB5z/JJDznzibbyF950ATGTQOUY5awAnZ9GFT5LuO8ozMg9KVsPctx96eLMJV9RIsSncPd/yUKg83Oupby9G9Dc95K6HhlFncGBwYHBgcGBw4EJyYOlBS5AuKZht8b5NsRbAgR5u6LHSaJCDWxaxJxRcxXiIUBdu8xmTLuLKhpsWaV5xWfO8g0MbokhhGSGrnFiGTg1wcrFJ0PvAA39+fxo8b/58w/TfzDEWuQgQ2MKGKgEcHoUk899fBIl8r8nSw2eed56CzWernzWAU3o8Vr8vFeULFyakb88VLiNwOfxSpyXnhQ7pggErEesN/bL2yeLntRYhS146QzCXKFimRhkcGBwYHBgcGBwYHFiJA0sBzluojGOaRNIME2jbKmsCHPoG5HylirXRlgiCya0LG8oZL47rAlgjLuVjVOYkL8AhmJgMTdz645oi5ZQA50UmUMrfumCxYT6l4KYGIJOHNXGpa6VUbs33sX8vAZyHH9wE+S1ScIUirkJbK48Bcs4awPmBKUug5S3p1QGWc8qLHwDOLzUsKD85WYla76uUkmt46HrtQwIOUkS3SumROb7DTdK+PdVqb/w+ODA4MDgwODA4MDgQ4MBSgMPrrLj56IIiDwDA0tEqEYBDPIgGCa225XfGyCNUpD9Gsfib6Qd88Mn0pgvWGgKXdeHW9rnm37wAp0TjKQEO75PwToktuWQCxKVgtaCgaPM6PYrkWSm9AA438WR0yymma4OcswZw9JrR64S00LU3Ylpriqx6rL3WezVYIHm0k9gxAvrJ5MhbTiI7SPutgXyrX/27vKHV+gZr0ocUKi3lQ6vv8fvgwODA4MDgwODAhefAUoCDInHzUUZVrCWgxuQIwMFFhYc3uUWdU3Cx+k31YS526IMmi0+r/bMKcFAOn5m5CS+9CI/VQr8zQhwRL8dHXbta/JTfSQxBEoBeBTckAr5tAeS2Mvzpb7DaiCUrR1uPBydLYz5rAIeLhM8oDIZ4mlIKac+cYxkmJq71Pk6uLQAOly5YLpfIPTIPAuJKBXnIGHPrjm+87rsefow6gwODA4MDgwODA4MDGQ4sOehx/0LRta5OEVeUCMCRmBBu0XHzWFJwOcs91Ol1QTmrAIdsYby2bkst/a115SN2iYdKdSKGJXOhv9VJGXq1eYx2yND2iofkEazn3uWsARzcPuUdKcsLLClYAaPugbodEl+Qqc3Knd58L7XHfBBb90RlDaYuoIvsili0SwAMUP0KjvfB1hoLGSSxhFGwYPNnrUJfuOrl3rKChtun3+7IEMB3/Gm5G/amnQQZuk8ehR5lcGApB1hXUlhfnnWF14lYvMnYimdJLnNrhLY5dETan1OXfY6s8L55B09EhsEP5EeIL3fdddetj3jEIx5y7dq1sySb5vB27jfMx5Omj1mv8BfvplOXsHxeAnC4TbUHEIG4BOl7b/gjAEfeLtEPcc5lOOlq8enXhcc3AT6eVMFnEeC8/CFJwm9kXHxaLjO4rtm3P3gD6KPmMr/yHcqvjYFa0g1poh+QaeCrTSrwJX3wLQkovAI62tdZAziM7xcOa4Y4p1zhYgFLDok35hasfIAcTyr6uX20vsNtlZg90q2Tdpp1i/yoFZJ2vF+r4RV/RznQSg4HV4vmKDkcjuwvAAwFQKrPCZ3BDoD10EwHUkcUGFyhW0oMSk8tsyG/007toNYZANnPj4wOftQfHMhwgLg9UcpRyB/v4NITpn1E1V77VK9vQBb7wRYNIBxk3lvFA9p0e8gH+nrCbrf7y1tuueXNCoDD0gDw0/vcypcazbdevXr1q/f7/U3ZdO3atWPJpggfqctaQY7OLT0uhnQyndJaidB3Evm8BOBwiLEJdfmmQzpkLC3eEgE4nza5dxATUnv8z9M32dC+w1T83pTSO3g+DmRRKzV37Bgc5hnXQRsDcfchBe9rTcCnRCvforBSTxcAZ/ShRCd7u1XrFYPTjaAZDZ1FgJMDxXrouIfiDkpWw7mFbGifdbDEkiZ6iRyb23/0O5R53DtJT36qwiGjkyR4la0ovdz+CcBh3AAFASg2AUPusVb9QDLf8X3L2mTBW4nmmkKkFUCUBEmTHx2/rl+zZC1pd3zbhwMozOwL5jtsDXCSoNcVoMIDBvR67rUWNTgo0WEBhGeInssAAU7wmv++jwIPyNnv9/fu88uXL99+/fp19ry9OLT7PCr7jy2bWoq95S8yp/TUgmcuqBPlSa5dDXC8a7ZG30nk81xGkGGLNKgE4EvB/YIHMXWcS2tCIgDniycXEFysADtLCgKGN190afnW67pnzYIj1i/LM1xqCIhuFd4BIvbBFm/MUqv9tX4fAGc5Z9kXNSDCvgSw21J6SFfX46KCYHxc1+aW15zcwt5qbgNH+I4064+d3sA6QnfVLnofXLnOUF4AKaLE2ANSX45ZKw7ASNwjaNt7Q+s9QJH9pRtOboblph3FKnfDLeP13pKKNYpx0vcWXD2OuQaZF3jQssC1aGItrWFR08okNDJHHgDSolf/XgM42qKqv9HupNBV8xAAmNl1pb+XdtlbcilNfeseypqeA3ByAEwsuewnLjVqhbFBC39+98qVK0+4du0aMoJiL0CWApybsunKlSu3Xrt2M+/M2rLJK5eEP+jkawAcLds8a1dfhkfdmXOy08uHrvJ5LsDJZU/7+oO7BmmRIyUCcCQ7E0qRZPaK9KXr8sglj11KwbXuJYxPfa3tswRwHnWIe3h65vV0LFa8OO991yP3bhA8Iu3ukpv4uXPo+W4AHA+X6nXmAhySMiCo37BBAokr3ntKwb2E2teYDkPcP0jNvpXy3ZNS4XXbXZvuYwAcxqAVJXvDqy1JHJ6AGLHQ6MM9YmHSB6g+YPUNKn3QJrQtLZ6zM3eoC21egDSXzpyCG2lLvkfhWAJOvIqNhzYPzz3t6DrsS21NYKy4TS4Zs6WhBnC8529tXLkb9jl8l4yz4gLGGi2tU9oXJbhkYdJudjn6AVn8uRe8PfvZz771gQ984O9cvnz51uvX780DpLPbLgU4x5ZN0XlgDjQY0UADPsm6tPtbz1PO8rwUNEX2VW49nEQ+zxEYvEnB7RxWHCkEWb9KIXC/xpgIwOE1c3z3iZ2x7lIR5pNZizgAHQicSw9da/OsAJwHTelyAW+6oPijeNr017UxY53ju9wjhSgM/yEyCUeqOwDOckbPBTj0jIwgfovYqlrhkCeui8dXcZtcUshexk0vfRJrR1A/iUlwaWPfHuORTcbDe0CkY+cyZSvFHrY9XA8YW85vnwMYuYBszbmX8RsHob6Z5qZXuz3nvqV+TukqufRooCXt1WJ1vHPlOTu1O4xttxfvS/RGFatSO/AbhWmuwm/dIr38zdXz8DzSfo62NebFAhzWoSTgKIFtvRfYPzXLX25PzJl/C3BqvND7quZCh0usJBGATk/8DGNn74g1lTkVHS0KcE4tmywQ0Va0nKXDyjYNgLU1O8qHLQEcvV5Wlc9zBEbO9QRLAK+NR0sE4MgL6dgVUVbuiXY21edFdd6zkEI2MJR3AvC95SwAHG6x4dmrmkEBTh89BUd7xyv1yBzFuy+5woOquLx5kjRE+51bfwCcuZz7h++WABxaIcU2h5PH6vrLh8uT98wkAFk+iue1sGaWPt7fIaU6DxyTJvqPehHdsZ21AM4ct5a5wyopXSWAow92rHsoT6JktRRHTaMFX96zE7pwt8m56UQv1iI8m6Pgltr3xFjUaOvhokb7vV3H7LrtFcwPrcx3zioJL1HcW32V1rN3DdC/xMHJN9bqYpVp+OuJ06E97WYaCUIvKez3GddkyWHvapAj7kvara+1D7cgm/TYNN88YHoNgFMCpPDqppugIlgAIv/Gmi1Z9FqA9yTyubU47GbKBed/5uFNkU/x7jpTLwJwtLKKexlvpswpTzlYNbS//pzMRlsHOIAbFC37pswScAOvcTtiHkrZq+jz3Tqk8Z4zr7lvBsBZzsmlAEco+ICDRecLTdxejjosODxG+2XLSf9HLWBl/JhAu386pbwmMQAXIRIr9GeHJAn8Rhwif/O21BopwgOkuqpeNIDD7am4BopC2TqIS4yM3pjadnKKlkfBubedSenzWlJsMgfXAilU8iZ6WNLHKb7V2c3oP6Kot+hFMYVvzLFkDOMbQK1YKYkvQXEsxeG0+uB3b4wadT3gpVSHMQgwE+us0BdZxy6AQ8Okc77tttsE5MBLxkrfZxng6AQqXLjk0uTreT8WwNHyjTUqmSut3MN9s2SR166N1k0uB3BWl88RgPN6k9KsXxL/9kPg7HsE4jjsho0AHF4kf+DUANmTeFAwWnirBEuNjJv+ca3742BDWwY4pOnmtXasUrpwc8QjhEvfECITFK/El1x9aP/dDzFOpJ8+dRkAZ/kM9AI4UPLglBIXClgQW+W7pvguHufsVUgbjqXRU6CTBAjE5225aB/tFp02ow+HWDS9ee4Gz8bb1ILzWzTmftc+6RELjnV/QKE8FcBhXPAf1xtxT4oGzXP7e5+YhQYztfuTd55Rvu3NP3R6v58zv6f4JgcAS8pblD6tzKHEwlPZpwJ4WAsS6N8b4Gi3KB23UQIvkpYYEAGdoqjqvVYCzFHw6wY4E9MF0LB3GUv0omELsknWj+UhKfpbFxbHAjga7Os5tbEzVmaJq7FeN60YHPl9dfnsBTg8gInlg/cepODuQUroyIvwVlCUAA796Ic4oRNFR16TJzAZ3/qoO5R1UZmbcnqrAAeLDfP0cobRBDoz1l7K4kemlD6/IvW57UZIkvHuZqqSE5UBcJYzvifAgRr2Mtn3uC3VWRhzlJKenAx+xPj1KK87uZG12kIAv8VKj9m2+o7+3iNIOdJn7syYCxq8/XrS7OZuCPVtqSivvVxWvGenHSMKG7IxAlRoQ+jOpdX28rFVDwVMYiakbuR2vtX+ln6362CpG54em16L3GTTlwY41BW3PdaldsOSdvRlRC2jnwYw8u1c90RJKpADOLRtEzJQv3RJMocGWWuS9CGn/C8BOL3Sbeu59sgmqV9LvFLaG8cAOPbJF21ZarlK5mJ7vABndfnsEdIc9Nw6ycvhMByXNOIxlh6uJYCjGXw5pUTczLeZFUBAMjR4CyANy4OMmaxsKG9zyhYBDm/4EB+llUbilHiQcw13H27YWw+WkRCCLGsoqr0LVioELuZSNgp/4zLEH7l1p38CzW3hEUrAz1koZ/EdHA9fseYgWFtvjWBxpQ4Pai4txAOxZl6g0RDWamTFWShLZXB0jF6Ak4sB8PSFciPpeqW+R4mwBzEAWm7GS4pNNPDW4w4EHZyXkiGq9X6Phyc6G1Uks5ynbV3HJkUoPcRaaxfFHHp7jLvUD2uLP+LiFR0n9a17Wk8gp+crB3AAJcg+/i4lD/ACHBm7TuU7B1zQTgvgRPg8hwZ5iJd9iRxAv1j6Dk7u8uXYskn4ptecd731AjiyZ6BFQDH/xjrUXgA2LlDPo5UHuecAaDuXVvok8rkGcMhG9InTmzP8NwX3IxRWrAQ9Cr7sZGXLFawAZPki61mpIOyxTPBwYK2g2PxsSolUshReUX+TBRmbSgAHpdvzHkfPhz4ZG4f5hxkG/MyUtpvA7TUKSiIxN9yK1woWvs9LKX16RwsS/eFCVHpUlpgJYiMeViBsABz/iuhtwdE9I39ILd+KzQGMvkGn9SPZGEscQCZtKc10a6a2CnDmKDh6rPqgnQNwAEnialVSJqJvQ3hc+vStJOOp3XK35pbfc6l2PReTnrZ1nVw/HkBn+1k67xG659BH+zl3K4+7kJc2efuI+vZdE70WowC71r91J9Nuhiii/NGgUxRe7XLKnhELI33l3srRNMgDqTn3RavQCt91sg1RhMVFTrvvUR96ADmaxh4WnKVrNCqbGIvtM7fedGIK4XMvgGPnjf2uM1bKfHNpoIulW1sMZd6kfm0P2fVwFPlcEpSvPCmQr69GigUFJVq7jnk3fKket7OlgHVP20w+GdVarldYMD54avBXDor5Gzt8H2v9X51cZ7gN5g884W+vO1YvgEO67G9KKfHYoRSU+0+drDZL3Ac9/EcR/PEpjqlVn7lmPfUMxgawooC/n0lb3qKF+KRfa1XayO/n1YKj2Yu84V0m/i4V5A/xfksLSTCsNVi3uTQN/VL61vw+p1D1iDvQcRviTrNUiYAPEvuhgUjuUUPq1m4I13jbJDdPNfc3eUCy5XOv282Bjp6uVNJXzjVtScD9sUD3XIBj56m3VUz2mdx4lwD6WgBHryGxytnbd71f9PijLpwS/O+J0bJWs9y+zK157ZYZBThbkE3Mh2eu5QJFuyzqtNo6bb7N6qjjHuFrzjKoYwCt/JL9Dr/ERZA55Y9+tLl0PrXkxUnkswU4L3rp0qVP3O/3H7bf77EMUBggMRdrvOeAcs4jf3PLnYeUrAS91wq3/Nz2U6iPy10vn/65dC8FOLgL4ib4ESklXPgogCuAHAkYeoLQ1hhJaoAlp2Qt4XsEG5a2X281NvN3QC4AFuGsH20rNYfVcCsPL7aGfBEADjzg9ucHD9bh16kwhL37tBbDGr8j13BjLFmOsVLzbs55LNaHnjF6XSWi/Ig8NGmTH8x5UT7nK65v0tdMySy8gQb9zoXlWQSc5BS9aEC3Z84kiFsrVUvfvhHZ6lF67S1wLqYkNw7olsBzzzh1Hatoe7JZRfoQmS3AoQRw7Ngjfdi6pdfmtduhHqfeG1oGRAEOdHgAYilJQe5b+CJuajJOoT0KcEprJxf3lKvbWzbV5lhAytJ3umqxRrnYM/oVK5leF9DKBRhFsujZR3HlDabWXj+JfBaA80K33HLLB16+fPnj7r77bnHPwC2EwbIAcRdbo2CB4O0IAVORPqDpbSalqPTdmx9uAb9/etSTN2He7gAKsHCcuswFOLgKAhSYlwdMg8B6BYDjUUHe4jhFYc3wsCFxTrbgnoaro9e6tYR+Nt/XHTJMEo9UKqQXJ834WSkXBeAwH6wjBKVNkiFzxSVL69FQz7yS/AIrZ6mcJRdGz3ipU3pwcU6chbdPTz174EJPzve+1VbuALU+4hzWAAevclPrs+auhjLHuDwuILk+ckpm5Ka8xSv9u427WaufEk32ZnuuVcY7Zqto196jYR74I9Y3bx9iNRBrY83Fcm48iNDSehtIA2UN8nMB3rSp1564rPHvFkBpcOa5JLGB7JqXue+tvBKlvQfA8c5jD9mEDAJQ23ewBFDoi6BjABzGztxL/JfNirlWwpiTyOfds571rPs/+MEPxrLxoCtXruyvXbvGgL94irM5hqmZG1uSBTxWJQBoLUDcSFgMxLyUChnXCEzmphallxv+uY+DtuiJ/j4H4LzUlHqZtNaUP0gpfe2U9pa4gVMX0od/lXrQkfgp3MeefGTCrqSUcEMkJbgtxOWw0daKS1pjqBcJ4MC/3Ftbmq/sg2hadzsvWEAR8jorpK7DQ52PW2MyT9hm7WZ2zcxcuSFL+mKUGB0rwNkDuIm4cUn7pWw/+kYSZZA+dVDt3CnxKOL0hWIn74fgclcLvpf4BwuM5oK+1thySid9QeecOWj1l/v92ADH3lDnXGtySukSK08L4CCL5hSPRVDeGgFsyR8NHqxl06bulbVo65UAUm4ctRTTYhHIySABZ9qiuDbA6S2b7AWC8EeMC3o8a7uoedbYMQEO9Kwqn28y+erVq7fdc88973q4Of36g5/7b3u4sEKdF00pYdFBgUHxsO+s/M30OvivHhRn3sTxlLee4kNqKY097fSugxKHax6vneMS84fT3z81AZdSfyw+ACGA7akrWtaWjJcYhw89uAHxsCNA4xSFxxx51JHkE8T84BqHaxOA8Jjuez3GftEADgAV5aqUQpq3nHokOWH/4SJbKryzhbvneSlaIUGJBUyI8nJsK04ObHlugWtzUQI4WpkT96djARyhl/GW/OKlDkogypC1Li11FyvxrHajvhagytFi3SZ7Bvvn+rNJIEpv/FggtMQ9sJUkY+5FcskVaW78Wy6LGjKCtaktXRqweGSHrDXakLdsmBv2vHbHyoEcLkAkMxfflACO0LgUmPeUTdaCrNdjCeBoi5wFhjpecg7Q81gLaVfko8xXSYZELqNOIp/XyMZyXhSCMY7BgS1wYOsAhwxoxOj1LPpRX9suMXU1YOKlA9mHW2Ut6+G3HhKYfOx0EeFtd4v17GEoN4X6gcGlACMybqtE9Eh0UDpAoUsrkCi02o9c80CyRuk4mtIbJN5YEQ9f6A8l0MYPngLcaHrXtuzpl8zpt+Yu5uFjq04uI1TtsVUbqzP3HZUIwGnpZLV1LuPvCXB0MLtYsfT+bQWXs7YB7hT2F+2JAo0VlP8Wq4nHKmrHRpv8G+32kGG9ZZOAO6xn2lrtATg1EDMH4MxdF6V91Vqr+ruTyOcIgS3hMX4fHBgc6M+BUwMc0jMTt1QqpHnG8turkH4cqxuWnFzhTSw5MJf2yW0xbzQ9sNIQVkAAFa6WxAAdI5Zs6bjs91ZRk1ty6x4058X63oemZ+w5Rch7gNozT4OfnAI3V6n1jAMFX+I8bP21kiLkLDcAKRSwXHBzS4H1jLNUxyZS8ASrL+nPjr0F4HLZ5Vrf5OiLABydDSvXlgYcpbVpA+OlHf0WSi4pgYB2/dAn9UTeyvxoeVJz3cvFwOl3V9jH9El7FAlot+NmbzMm6OfvUgxd7Q2XJesm8q2VTaxx9jiyVSc2GgDnH7iqZXBX+TwATmTpjrqDA8fnwKkBDiMmu9lbZoZ+1+QyeXdHtrz94XHW76m01/sRTlKNkwWwFI+jSSGujHTnpBgnngu3WZKWEA+HErOFBCaWdfZGUiusuRttDuiIm8fWAY6+QYY3tQNUlJO1/ND13MA3lD0bfEydOUp0awuibKKoWvc8HffEb9SxlqS1wJYF2D1u4Et8sMq2N3W43T/e7zQdEYDTmkf9exR867GUeJ2ro90I2SNi9WxZ3DQQEnBk22IMAl4AUwLCNKDx8sTyYwuyifGw9gByOUXexuBoFzU9Fzbeao4FJ+eiBs9F3svDn8Jv+5CuBc4R/FC6gFpVPkcI9C6yUW9wYHCgHwe2AHBIw/2lh8D895zSkv+/SREi1qpnum2sNjxQSyxerpAkhMOi9e5VlPs8Vou7Wil1tKc9+ED2Pt6F2kqxmYhyypmNNYjeom9BiYDf9gAV1xUdsN9SgMRVbk2AgxIBz7W7iqyXtWJfSu9f5IBLLrllMVYAAB1BSURBVEUv9C1JAJHbD7l108NVsbT3rLXIA9okw5UFfVGrVgTg9LDglHgwF+CUEpTUeJhLN8z6Lj1caRVdrwyFX7Sr43Tk263IJqEnCnB0ggIrl+cAnBZP9ZzlYquW9HkS+TwATmvKx++DA6flwBYAjnCARCCkcCYd+V93Zgup4kmeUXvMk0QRvIWzRiHrHskLSm4Snj6x6uDuhlvbqUtOUc3d2uYyRnmUvyXjswpTj3Mod4BaV0brTmNT4uK6R1kD4MBnlOzSGxfwnPmJWM88czBHOT1GwgPrNrn2mrP9SRwa8yJWNLEeeN5wioCxCMBp7QVPDA7rQj9wKeuk5aIGT2hfu6gB5krB8jUeaMCiAWEJ4JQyrUG7uNPpt1pkTC1+efaIrrOGbMoBHCxhFG0VsfJZW7vsb0vARo4nlv+5s6Jlbanx+iTyuffiiC6mUX9wYHCgzoEtAZw15opHNcmMRua7V2p00DP+JtcVAI5U52Q5nFuIWXrG3I87fZcDNzXLTK5+7xv7tZUIe4ByQItvP6CB/7eve+uMWlrBrgEc+rFvR9SmTYANbeYeIUZ5wxUk0qZnmYiimotX8LjA5R4Apd8eiQ9ycUARwOAZv3X/s655njZqdSKALAJwWutAg6/Ig46e8aJ0lxRuq/h7LL3sP+jVacdLAAf6+E2sMawz+aNBf2/F3vLlWAAnNx8aVFiLo42P7MkHu9dLbpgt3oiMY23Yhz9PIp8HwPFs+1FncOB0HDhPAIeEBLyNhMsbaeABN163sGce3OJeNaWEe9za5W1TSl+UUnrwjI5wd8PN7lRFrARamfYopfZAhX4OOqweLaUrOtbWQRltj/q5m21RanP0Wxp0cHAN4IgSxiFecieC99x20n/OFU3GJw9I9rTalB4Zpc+oC1wJ5ERdtPR85sDNGrE3tTTYc9ZX7hsvKIsAnAhtLYDDntbvLtUsOKxVlOicBQeacrFIkiSgRDNrXwCL1KkBHM/Yeyr2uf7WkE25sbcAjr58yb131IsPuT3uic+CfosfNO9qLnX60VbaWU0+D4Dj2VKjzuDA6ThwXgDOJ0wP+s7lJEkOePvpWOXqFHPksSwJTRxKWKGuH4tI1U8ptsMDbqSZHMjht97uU2soEV7XHcZjLVZWUSwBHJvWuHZ+WpcovSToT1ykei4VG3Ol20bhwHITBVPWhTGynnT/tAPosIAvYgmJ8Kq0llttSCYx/bcoYTYpgpf2CMAR16USndrC4nnoU7czNwanxMs5FyAD4DxvRuRyRGfFE2Bh5WPO4toD4EgGR30ZVlvTJZdeWWP6UqGW0a6VHKObfB4ApyXuxu+DA6flwHkAOJdTSn92sIrcfyYrsaZ8xMxve3zG47rvlFJ6k5TSwzM3V/TBY71vk1K6s0eHgTZqLlBzlNGcBUjI4dDij3U/CJB7s6oNQO5xDnkBTu5Qt+4fJYCjfdA9h7S4yAl/1nJH0/xHOUDRENc0+kRxAuDMLaJw0FY0yx59HvudH/rMxXQIaNEpkmUte9410msM5V4scC2+RgBOay8sUWznABzWOfSLEsy4ratlxAK3dYCzhmyS9ZFLMqABK3sU/urYwdJDqnPXgWRSkwdc9dptAXYLvLTctKCkFjPUsjxad97Z8rm1mVobd/w+ODA4sC4HzgPAeZEFKZS/Y7KknMIqkptZ3OseNilQjIu4nWenlEiAQBrpY5baLfUSq0sp6xZji76VI+mJNV9sPESPc6gGcMRljIPTpmXO3Y7ag1yUX/giyp0nBkHmpxQDtNZaEWsJdLMOolabHF1zX4pnXnLpsNeM8RL6UVZREOlLu2ot4TvKPm0BbrxtLgU4rDvZM4BFAa9rW3BoX8dwsY4kToc51cVLy5YAzrFkUw3gaB7mLgJK8jYCcOQSTK8d3S/zihxsXYKUEpbk9lMtZsgCnNXkc4+DZYmwGN8ODgwO1DlwHgAOI/zVKYYmMt+fP/l+bwXcRGg/Vl0ba9Djxh7acy5FkZtaPf7awegBCh5elgBOKY6kBjo87k21Bw6t0sKB3gNkePiw1Toe68FWaV9K11KAU8owFt07njnQdQBx7CsBOfoywFp6vbJhSwCHeT2GbJL1I+8H8f/WFTHnXlpLBhIBOKVxIpMkltAjn2ousHqP5Cw0J5HPA+AsFV3j+8GBdTkg78xICtt1e1uv9dumGBoSC7TKL6aUPnxjb8q0aD7V7xIjwd8oJL1u7GU8cgMv7klzxllS0HrGorQsOCgXoqjJoV66gZeb3VzmrWNbY+bwe6vfwH/457V8bHUcUbpqAMcb12VjusSaEnEX1ZchnkByiROD/pyyLW5J8IOECx4leWsA5xiyybtetHtpCzBGAQ40yLs67D9xN/bMmb2wAdxqa7b8jjznT+4MOol8HgDHu/RGvcGBwYGlHCAG5/2mtNBkRHvA1OBzJqXnJ6cbJf7WB+HSfs/793PdhyJ8QRGLHoa6fXsg9s7Mpl/phk6bElqCefl3r4Kts04xFtqNKJQR/o6655cDuMppcK3Xpn09vpRkAPcica8Ut7vofkQxFRdL1nFuD2qLjdSh39plAN+03JtkdrGYSOEb716Ub/Q+59+41Fla1pZNEfrEnaw1rjl8oG2+O4UMO4l8HgAnsvRG3cGBwYHBgcGBwYHBgcGBwYHBgcGBTXNgAJxNT88gbnBgcGBwYHBgcGBwYHBgcGBwYHAgwoEBcCLcGnUHBwYHBgcGBwYHBgcGBwYHBgcGBzbNgQFwNj09g7jBgcGBwYHBgcGBwYHBgcGBwYHBgQgHBsCJcGvUHRwYHBgcGBwYHBgcGBwYHBgcGBzYNAcGwNn09AziBgcGBwYHBgcGBwYHBgcGBwYHBgciHBgAJ8KtUXdwYHBgcGBwYHBgcGBwYHBgcGBwYNMcGABn09MziBscGBwYHBgcGBwYHBgcGBwYHBgciHBgAJwIt0bdwYHBgcGBwYHBgcGBwYHBgcGBwYFNc2AAnE1PzyBucGBwYHBgcGBwYHBgcGBwYHBgcCDCgQFwItwadQcHBgcGBwYHBgcGBwYHBgcGBwYHNs2BAXA2PT2DuMGBwYHBgcGBwYHBgcGBwYHBgcGBCAcGwIlwa9QdHBgcGBwYHBgcGBwYHBgcGBwYHNg0BwbA2fT0DOIGBwYHBgcGBwYHBgcGBwYHBgcGByIcGAAnwq1Rd3BgcGBwYHBgcGBwYHBgcGBwYHBg0xwYAGfT0zOIGxwYHBgcGBwYHBgcGBwYHBgcGByIcGAAnAi3Rt3BgcGBwYHBgcGBwYHBgcGBwYHBgU1zYACcTU/PIG5wYHBgcGBwYHBgcGBwYHBgcGBwIMKBAXAi3Bp1BwcGBwYHBgcGBwYHBgcGBwYHBgc2zYEBcDY9PYO4wYHBgcGBwYHBgcGBwYHBgcGBwYEIBwbAiXBr1B0cGBwYHBgcGBwYHBgcGBwYHBgc2DQHvADn9pTSm6aUHjKN5udTSj88/TnlAD8npfSIlNKbnZKIFfq+NaX0hInnNP+XKSV4/jXTf8/tEl7Bszumtua20+O7LdFSG09kjcmYWvz5+Gk+W/WO9ftZmAto/LiUEnvDs9/ZP8itHrymX+TfFvbNmmtii+vgIsjCNef0VG1H5KbUbdGq9/IW16ql/5g0RvvynlXoHfD9GCWyZo5BT6SPKP8jbY+6MznQAjgcLk9SirbtBpDz+IVK90zSb372QxNtrXEs6ePY37JRGBe8/93pD8CSPwAdlDuEzpyCkkbbCKzPndNAx2+2REttWJE1JmOSeSu120Pp7jgVN5X3rayL0rh+Z9oDrP1HOgYPKOHAZL8gp+YWgNJXT/uQC4ZT75u54/B8t7V1cFFkoWduzlqdiNyUuq19quXm1tZqbn6OSWO0L+9ZdUyAE1kzW9sPUf5vjf5zSU8NGKBgs+A4ZLi55GAXxZqbUZQHlG6EkudGdQ0GHntDHGMRiyL3gcbKAs9RtCgPnQkqj0G/d563REtvgLMFAOmdB+qV5uLY+6tEs9CHDPLeJvYCOMKDF5u55yLzcMy6ubnd2i3kmrJwa2M95twfo6+I7IjUFdqPfX7M6e+YayxKX7T+MdbMsOAcg8sXqI8awBEFoaSsAYB+bgI5S29J57J8jmCc21dNEVzSpv4WEIPFrKTIteakRceWhNqWaBkAJ2/BOfb+agGcCHDsDXDOk5UYPm9lbktzvrYsbMnK8fsyDkTWV6TuWQI4yzgY+zp6nkbrx6gZtQcHNsCB0qENeOH2DJcorAUtxQPXDSwOxy5zBOMSGtcWCi2ljHn5iwVWs7Xpj/B2S7QMgDMATmkNHFvGRPbQkrpbH9fasnAJ78a3bQ5E1lek7gA4ed5Hz9No/faMjxqDAxvjQAngyOFi3aRy5COciDnQAEebGiVA18YdsMG4pZPEBbi64QpHW7kiQcP8hqscVg6JD5Jx1EzCNfOnhxa+px59SIyFdc3T7QAOAX4tv2I9VuE7cU3wIleoI23b34XXwiP61/zUQo324SnjadEqCQ8kLohva+Py1J8jYD3zxNj1OmCtQI/EMEF7ibeeNVbbwnPGRHvecUnfjE+PiblgrnUprffcHrF0Sx3+Zs5lb9KHrLFc7J38hiwo7WNNI3Mia5B/l3GwHqV49l1pn+RicHKyScsU6bvGA+nPQ39uPcIn+INMLK1VfoffrF/kJH9k/8m/23F71lFtXDX5OXes3r2Xk2XM1VqysDZWm9ggty6XyJmWnBZeeOmoyaSIfPHuDdvfUrnZG+BE+daaj5oMquk6tTXmkeHw2Y4FuSDyWM9D9OyJ1l+y3pEd8FjOYOQX/22TwOTOrLlrMqKLeddLdK576CEie9B1jxkP1ZIpZ+L3EsCBmSy+uX7nIrA4wFkUFO3GJoG7kh2MBSaKdi6IntgTvhFgweKVeCC+k3HUNm1JiHppaSlath1RDiNuNdIGY4MPWtFrLSjcBTX4ghc2KYHwBwVffoen/Dclp0zkeE/dEvj11o8KWO88yYHOfDNO1rFeN5Fx5tZYbR6iY6KtyLioL647/DfCTxJQWCtqab3naIwCnJLiidWXUrP6Cv90ALkeh137rX1Xmo+SBUD4ImvD9i0JDFoAx0u/Xo9cyjDfAhrZ43ZPslb5XZQBvoEHmk72NXRqEOldR7VxldbvnLFG9l5uDo8lC6181rGnev/Da3iuZbKeO6+c8chpUWwlBrZFR00medcFbXj3hu7PezbXaOwJcCLzB02e+ajJoJquU9pPXhlux8LaE73Cyvvo2ROtP/dcLckO5Bk0aL0wtw7mrMmILhZZL9G5niMfcvtJeHXKePeW/rnJ30sAJ6Ko5AYmC4ENKbcN/M3/c3DTvlVkZFHaSZR/58BEAafoTcP/zwU4UVpKQkEvZKFRbxwUPs+NtrgG8je8QrmpWbWE96LMaaEnPNJuhkIn3+m6OlOUVk5FEJd4b8cVqR8RsHPnyY5T+mQu9Dgja6wnwImOS9YHNOiLABGKGnQuATgyxlIgOkqBPWBZb7l/L/FLFAuURlHgZBxLD2/6bAEcC/5lrBa4l/g4h35RjtnXyDnGrfek7lsumRiL5pH8u1bMo+tIK7P6DCjtyTlj9e690vo4liy0AEfmW/Nc5ENpXXrH6pXTen48dJR4GF0X+tzW8qW0N3rJzZ4AJzJ/kfko7Y2arpP7JiLDc3Jd6xUaHETOUw1WIhewJf2hdK5qAJmT83KOiTdIDeB45XVUF4usl+hcR/nV0p8GwAnCqBLA2S+I87A3QaLwC2ky6TlrQa5fOVytMi3CdQnAidJSEiIli5ccMJEYJRRF2hPXPcYn7w4BNHIpoonLycVLcfOEEBfhUhNEkrFIrwnZ0Jb3cjDYZAiR+hGBPHee4AlWSF1kPelxRtaYB+DU6ugDJTqukuuoxGZpILoWwGFsuQsQj3ullQF2X2ilVluPI2vFgn6bAEXfwumUz3K4lBTeHBCI0m/BilY07OElY/aAveg6igCcEh2tufLuvdpeOYYs1PMtID2X5EWUTS0LhTfesXrldJSOEg+j6yK6N3rJTem3pb60wHiUb975qAECbWEo6Tp6jUVlOPvMpsXPXd5EZaRWvqPnlXe9l+ZDzqsIwLFyuSSvI7pYdL1E5zoqH0q0ix43AE5LQpjf5wAcQEiu5BTjHIgRdzQUdeuClQM4/Fvu7Qu9SeZacKK0lIRIDRByCNCPx21H+Ep9NrCOT5DfUGK56RXeCU25Q1nakPinmhDMKcSlcQnv7YaL1I8I5LnzpBV+4V9pnN415gE4tUdwBazSTnRcQnvOdRThKHEdJQW2dFC3bietnMgpe5Fb2FoAuQjzJbeTjLNlwdE3ih4FRvNgLv25NVbifeTfo+soAnDmjtW791pH1jFlYW2solBpK1vutrgkZyJyOkpHiYfRdZG7za7tjcjZXJtnDaxq9fSFRG5/RPgWmQ+PfMjpOjkaIzIcBZxiLzV7ApzWg+36vIqs95oM1vLH66LmldcRXSyyXjTN3rmO8qtEu7QzAE7rtOgAcFgUukgQaQ7geFKrihAW33A9iTUhBA32Nj6qwFt21WgpCTntmpMLXpfANA8vctOHJYdx8YdDlqLBzJyb85xZ2iqoc3lfSnEdmavWMp4zT3MUj9waq9EWAW25dlrjKikUubbWtOCI9VTWUc6C5FFockAtdzM3h68tgGP3YwTk1ZSUKP0RIFNTtDS/W+tIH9atW/GeY42A4FPIQrlBzb3rJudTzgLrkacROR2loyUv5ffWupgjM7zy3iMPImdkbt9E+BaZj9q+q63pHI0RGW55JvE3Othd3LuiMjJavyV7au5luXnNyedIGzn6o7pYZL2UZKbMUY6eiD7amo+lXlVeGXGu6tVicBCG1r3Hq0i1DjLJqsGkiisWNwUs0BzAKfmJlpRyz4EjY/HSUtrgsjBbCyMivEtt6dgjUQ5rtxC2nZ4bLsL7nHBobWhL+9J5agEc7xrrDXAi44oIuTnKisc9i/GL66Xc0gvg8WRd7H1QlObjGAAnt6ejB10vgBNZR3MATo+xts6FlgzVv68hCz2uUksBjufNuCgdNb5F1kUPmVGSs8cAOBG+Rc7N3gAnchMvGeqQExQ8NySWeYmVO3r+ngWAE9XFIuul97kV1Z8iZ39Ejp7ruq0sap7g+FxMQ+0gQ+DyDYXbH20CtZPY2oSRRZKjKUJLC+DgK19KP8y3nnTRCN1SCmhZiOIeJMItIqjPKsDpMU9bBDjRcUWEXA9lpbaPdcxWzmVtrkITBQgD4DwPcHplak0BzfE+ekMdkTG1NXIKWShjzVlwhFbJyBhV+CJyOkpHiY/RddFDZmwB4HjmLzIfpwI44q4rTxugK7H+erqozUky4L1ArsmONSw4Inu8ulh0n60pC1u6buTsP9egJTK4EsCxLig1ASoBx14XtVxmEGnfTmIrSN8GxkcP1wgtJSEnZtGIoCjx02O+toKhdntufbAj/GllxYL32soXrd/a0JpHPeapdPBG11htf0XGRDvRcdWyG1p/7R7KSk2g61gZif+xwbAlXolrQO4CJSd7onyl3zUtOD3p72HBia6j0m1kze2nx1xFLDinkIUyr15re0SeRuR0lI7SPouui4jM6Ck3I+tCxlpbq575i8xHT4DjleHCX5vxsyTbojIyWj8K6PX5lpMd9qK2JJMiazKqi0X32ZoAp7af5LeI5S+CA85t3ZIg0KkMWZyl91hEiYBBXoBTWyQ5lFrKdBJNMkA7fOOlM0dLSSjUDmPG632gSXhTs5zZTBu1TCBWyYscyMwp48oJ2NKGi9SPCNjomomOM7LGegKc6Lhq71PZ9VpqW9aEx9WmRp/EmkiO/gjAL2US0ofiEveLtQFOT/p7AJzoOooAnJ5jjSiyp5CFtbgMcRXSD1ZH5ExETkfpKMmk6LqIKJP02UtuRtZFDeBE+BaZj54AxyvDa2vrrFhwarJDLqe9SQa8MZMRXSyyXkoys7YeI/Khtp9KT6icW2DSa2C1mw6Z/NKjkzpN8xyAU0o9bFFqDulrBUb3XbIiaN/MSBrkUupWq8yJ0LKZPryWMJnP3LsCeq5lfJYusaZYMIrbCmBEYqmiG04H4WkXu5ySDJ2R+nMAjnfNRMcZWWNrABzvuErrKRfYXrIyiDKxFODoCwZ4Ytd+jU+ldawvVnT8X2StSL9rWnB60t8T4HjXUQTg9BxrRJE9hSyUseYywOVkbFTOeOV0lI4WwPGuiyjA6SU3I+uiplBG+eadj54AxyvDtbsVsY1SkJFyri+5BJojU6PrvXQRqvWx3gAnootF18uaFpzS5Z6W1cOCE0Q+LVOuTCi3+Pg1AnbYYCxQNqrEz6BMeC0jonjQHkoWhbZwecFSJC9Gy1C0qZb0fPSpX6q1VhlulSjUldtlFj3F1o3SIhvTZo6RfxdLje3XvjpemyaJaZIHUuWBUPoQv3T9CBtt5cYBP+GTpjUqoKQ+8yL8lL5qL3t76kcE7Nx58voKR9dYaf4iYyrNW20vaACQW996nZXWBGCIdiIAJ5ftDPr1K+CRNOhaaIscgCb2KYeOnbcoXzVvS+/geG8ES4ea/PtS+nsAnOj+0Pz3vDfUa6xRRfYUslBfADC3lJws5d+j8tQrp/X8sBdadJTkUXRdRAFOL7kp/dZiZxijJ/4pMn+R+Sid/VGlNyLDrS6DbARUwnfa0emKozJSA6ha7DB892RqK/FBxxGxjqGdfxN9rDfAiepikfUSneuofNAxc+x71jv6AO0w3wPg1DTnzG8tgANTEQL8sUXeY4H5KCZegEObLBSJGaBdFGJuKQQ48W+6PWst4vcSuMrVlY1F+7rdKC2yAPnOQyPj0geUZ3pE0YNWW1jwAvLsb3Kbpv/d80ig1C9t3hw/7avCuk9v/YhAjs5TVLBAf2SNleYxMiYR8NG9oLNHCR25+SjxDMDLAeMBOHI40U8OLMrvkYdsheYcffyWayvKV9pZ04JTmrs59PcAONH9AZ25uS3R0muuogDnFLKwNFaUC2SvdteeI2c8crq2vnJ0lORRdF1EAU4vuSn9ts5Hj8yKzB/9eeejdPZHlV769Mrw3JmE3oUMl6QiwpOojNRWlBbf574zKO2KVUX+H/rZR8ig3gCntCZLulhkvUTneo58EH1adEzR+ZjvAXBaK9X83gI4Up3NLW+w8G8wWh6fYiIkvbPUl3ztpcxhfCM3ySw8Ni1/8+9s6lwmMU0Dk843/Bt/bD/0LwBBaC3RFKVF06EfHmPs+jc9ruC03Kxuea6zzdUUbAGOeo60Usnv+ibMM2fRcXnqy7rJ0ZIbX2Seam3X1mZkjZVoLPG3poRE94LsE9qsrbMcz+SA1Xyv8Yv9KLdHpQfncg+fedc8Y4fvVq7o76NrRfYP7doHhWtyIDd3LVm2lP7S2Ob8e3Qd2blt8XnpWFu8LK2ZY8tC6FhzrJxNNTmt+eCho7bXInIzujdy+kHrbM7RKv22ZIZXZnnnT/rzzkfu7K+t6dp+8srwnC4D3UIzehB8ae1dy1up3+K5yGX+nnuu5uRxLvNmjpc91qRHF/Pss+hcL+EX8wvdnF+thB6eObyQdbwA50IyZwx6cGBwoMqBaBaawc7BgcGBwYHBgYvBAQFnAsL0qHPPi1wMrpRHKSEI4pIqNXMxthedV67xD4DjYtOoNDgwOGA4wO0UPuK5gOzBrMGBwYHBgcGBi80BCeK37s214P6LzDEuDLHc2GRRpcQJF5lXrrEPgONi06g0ODA4oDjAjZLEyxE7Z2+cBrMGBwYHBgcGBwYHdBC/uFsRe8MFmU0Ac9G5pRMkSJySpKcf8TczVscAODOYNj4ZHLjgHOCtAcqc5AIXnHVj+IMDgwODAxeGA7lEIcQMYdVpZW+7MExSA5UsqpJkQM5Z+FV6j/Ii8sk15gFwXGwalQYHBgcUByRA2iYdGEwaHBgcGBwYHBgcsByQhFASOD84VOeAJMmySXIG3wIcGAAnwKxRdXBgcGBwYHBgcGBwYHBgcGBwYHBg2xz4/1qK3FUjomhLAAAAAElFTkSuQmCC;" vertex="1" parent="n95YTxJWQmj0WxtYeSWK-22">
          <mxGeometry x="110" width="824" height="116" as="geometry" />
        </mxCell>
        <mxCell id="n95YTxJWQmj0WxtYeSWK-21" value="" style="shape=image;aspect=fixed;image=data:image/png,iVBORw0KGgoAAAANSUhEUgAAAVQAAABdCAYAAAD66p7JAAAACXBIWXMAABYlAAAWJQFJUiTwAAAAAXNSR0IArs4c6QAAAARnQU1BAACxjwv8YQUAAC3ISURBVHgB7X1bctTIuvVKqUzst649ghYjaPN2YsfBiBHgHgHFCDBvfwRwKDbwDIzAxQgwI0DQJ3acN9wjQD2Cdr914JLyz6VUlrJUKSlVrrLLoBVWuJRSpm6ppS+/WwrsEKaIxyGyWIzEHSFlBCn2pcDvT7LPhz71X4z+Ow6keJhL8TtyeRogSx/jP6cYMGDAgEvACDuEMFRkCvEeEupPgH/qx5l3A3kQKwI+FGpBKFTVEV7h9uxx9tsDDBgwYMCWEWCHkGXhijSpyHGMC0BJq39gwIABAy4BO0WoUySp+rckkSphtQ+hRislQg5D/gEDBlwKdopQCSFFfYjvTaiBED85GvRSGVB/iwEDBgy4ALZKqCSpl8HB65fh7Y++dXLIT/Wyl/jXz/WyV/jX/hT/FdllEvkKKWbzkZeEOgqyyavw4Ou/w9sTDBgwYMAa2BqhvgoOno3C/KsyLB0pMTHuIQGmyrD0fL737aZZnuA/S3pQtiXD0ZdReOONXS4z+VyZoh5wUaqCd8qmlSo1gp9RS+CeqhMFEMcDsQ4YMGAdCGwBL8M7x4reJnaZkjwf/E/22ww98TK4faQs/nUyHitj1UMlkp7KPH9Ur5NhdEoifbX3r/3H591uUyRoRf5/2mVCIn2cf76JAQMGDPDEVtympMjeCRlM7DKlG91HTxhibmR9gX0RBivqhD3k6TSLbz0+T7yG+3TXWvm2CJng+0dcW0/L/2dAD3e1qwc/uLtwvrtyHjbUO1QYa+vP9J1aEuwuIlT90Qfkl4dqed6zXh2xWu6v285WhvxP5/+boNaxlER5Hz2hpMS4/J9yMT6pZr0oq/Zd7FMM3cPMKxigqIvgXr3sPDt/ju8fH2vL13J5jeuFLygcQhYLRxu8jiNcHqLyuPZ5mPvZW5jYIOJy4fswsZYYuwsSI++b+Rh0gR+y99DXxX58kedu7lOf4y+wNR2qlMUX0MbYZVzqAvWgHHpzUT30A8vyIH9gytSREpZZ+7xFTyida7xcIpMp/i/FgOsKvmAR/D1EYlTkx4UEbT4yvfushajneQzQmFj/fYiNglZa/uZ+r8t6bXWacK92Hr0IentW/iA/WS0Lf8WOgd4Csnbjc6x8DAZ8/4ishRJljN2W4r5nMLLRHuFOoAnyWY86kUedOmKskjDXvQl6a4Sqh/01PaTAPewYZBDG9bI8O0/wY2OILhtwlaDt45GjfApNbLFjWwqt93TVoTogQjfa1JIRPCTVrfqhSilqPqViv48DvYQ8k1YsfxDO36jh+YntWyooTQZycfMDIdOy3NtdanlVzobh/oABV44Z3Oq7CHoY7tLz040ycZQflnUitCNu2ZZCk3MrehMq/UuZ1cln3ywP3tSKxuFo7q2gn+fBXS5mnS5Qj7PffrV9S9X67Mn5b2/sdfquPs1+O/E6CERsr+WlntYHr8Lb7+vBBdcIEQYM2G1M0Wxpp7ToGoY3GZO5XxupTlq2pWohD3UKab0IlWQqBaZCCi+9hCa+2rA/D7yt76zf5pjfJO1O//aTMF9g+cNALwFfIlZkOpEQh6PgxvshbHXAgK2A735bprgI2mBlI0GzOxj3f9+wrWm4n0KTaQoPePuhvghvH8qFyCtiRhL5OOrT6i4sUVr9vtNVpzAUheHreRYuSaOKuKK9MHut1ACfhODNzp+9wgHOs+CW2c/sc56dP+ocugc1cu/le1p+VAT2R+p4yFof/HVDigEDdgMJtJG4ifBculaOMuOG/T85ymI062W9yZTwklApgQmIpS9BCD8pNcvCBLaorAioS6LLg9EhSXs0yt4rSfCYZF4cczSPKBVCiNfq/3FhnZe6jpKeH3Lf0Sh/z32CcC9GB+rk7ut7qqVTe3ggJr5qkAEDBvTG1FFGTqHX0Klj2wzu4TnJ12VYcnEZ220i0/toIHhPQk3O1FB/yZWIhOIT717UrfmkejvdSxErcmSkFB19Vz0HJE7P84V0yhDViSrz0tFSkiW52235G6OWPyZUFfgmYRkw4JJxndRR9P+l4BbXylMsuzJynWTXpJ4jH3xw7P/Gse+h43hv0UymfPdnZVtRfaO3DjWbB1M7MklXFq+99Ic1n9TQY9hfQMpHUuR3OfTn6quCwC0jkiJEHTaqpEtlvOK+0tOHdK+sZ5AL6RUQsCqdqnsj5HPvJCzXA9/TtfzouC6ESmKjgDOBO6BiWv5PoMmuS4CZQfdjjjpvoVmvansLcH8jxZ417Dstf4/L81y6v96ESsJQpFPXV4zDIO/0zaJkqQxZqVkvhu0+CHAvkOL+3ih/aBfngXzAjFSFtFrmOw0xj4K5iALIn7zaroWb+vue1qRTyNk6SV92HH0INYKWLCJcLu732HcTpDIYHpcRwc8VyRddPuop9BDfV6dJwr0JTYBN/ZnvclT+NmTKerFjoeRc57oINXVBLyu/toAvG26Y9clHSs0hbclx7KVzLIf8qvKEq+dZeMJQ1DDHPSUtf6Vfq/E4EGHwXobUq/qRtbTCTX19T+vSKSX2HyTmvw20mlKy2OTL5QMOuSYe+7F/kPAvQoh8kT5igIGRzmJs5rlHWH2WKZbzInB57yhrWv7Eam6F+jLF8jUdYzW/hVkmcOMIFtH29kNVw+96iJeXlFr3SRV5d/YpJYW+pU8p9aRV4ULCnfHYUujggbmy9DMP6oqblgOlu9TiBfP3PV2WTvVQ/4cOAuAQyDzHCLrDX4Ykt48qXr8LAm73mnWOed2SxmwLtmTH/xclVS8D9w6D51+8B73T93Hep5fy9nNa2k1ZKaW+afcZTc5e4nay0IHqCKU3bccSUv4SfrsxkWGWIsOsaCO4faKYtiRwmTyd/zblrz18G+dZkIpQoBOWuxSlzCd5t+9p4YO71Glk8h0O9fuAnaj+ITWks20XMkPiPqqJBPpc+cx5vm/QHzPo62L9D9jttHfbhuu5R9Ck2svFyKo7qZXRntH5Tl4yYjQTPz/uFCZurZUPVRHQm5fh7XuWgUhLqXlHaJZUnVEYi5rO4u8k4SBPIINn3EeRdSwKIQOzF8HBVLVxVKTxK2ZD1f6wuVIFyDD/YlNpGGSnioSdWHKX8vA91R4B+cQum2fn2yYNX/Ahx+iPNkmS5HHWUbdphDFBc1z1pnC//O9LqCmqJBdcP0U/nFltUNK9he0Y7qbYLNqe8Z01jkf7RNNoNMJ6pOpSpZBME+wWukbUkVqO104wzaF/McVJCR8pdZ6HM1WHBFA86CIMdb5642jEUm3dVCQ94boUMmWIJ+P0pQxOZZA9CvLgF0WGinAZu//3WGBvJhFExbkE2UlTpv6SHBc3x0cHuhfk923plAaxHRrq/xObz4rUqY7pwFQtf2E9abALEfpfL6VKY9gsJAn0J0TTRgT9EXuEzYPtX4bKhIix+X4TQd9frzBNLKsObPT94F0UEXSfb5OKf2ko53XSPpRwWdGhMkoJHuDQX8olKaRTl7rik9oShkoSUyT9jAvneRqFN77SmV+RqDJEBR8Vqb2hLpW/y20TFIYmGUulr22aGHDJXcrD95QEzHBbs16Ep84/T+EB1uU0LNgukjWXbXfappflooit3yn8YL8oEdZLQGzfryNsnoyIBNcf/PD4kunUUX6Gy3fb47lw5NH2rrq2pdAfZ/YH9rGzJUItyCMcffQlARqalrLm+1j8LZ/UoCWdn9Q6rwvAPTGgkmIXw30f39NRKJf0Juf5t7vwBKO28mw0wXbB+3l3jeVdS5vsJKJjaVN5pGUbKTaPh+gPkqH9kq5D9kltfRuGFLoFiQ0ubc/obMPHMssU3XjWst8nXC54LhNUnguRYx+W1TkxhUO9sUSoJXmMkY+8sigVvqlBbj+0sSKR1o5mT4/CYXRTFn9RTsxnz37quyyuB99+Wm23cpfq8j0t1APWZIP0OvAd6nP6bEZtceqX6W4mT2k7pz9xMWyLTGMsd2yqnCJ0kyP7W10i72v1T7FMyjH83LZ2FW168G0iQvt9axt2bxoRVl2nXKQa19ZTNOiKlwjVkA2JzjeLEgmSRLMoUEajLjJWw/5q/44s/swcZZa9bzfujc73ju1Fld2392nLNFXLzv+hixxt6VSHl357Aw/QIwBiMawcj4JsguuFv3AxbGvIdr+2/gf88XttPUb/YXv9uq67u88FR4FrIUW74SqxfvMdkltcvmIVEVYjoJ75nv+CUOlobxteFlmUPMCwVFidbS/ca+1oSlUwq46znI+0DpLgy/BA/ls71U+0Z4G1CP21exUefG3SmxrY2fkl5Kxt37p06utzWmTlErXhTMc1XhHaPpaXrcPyQYRlyabvObp0xn0JsT4cjbDbUmrUUG7u3R1cDVK4SSmplW1bz9+ECBWpmoVI0eHFsCDUUtJ8vrxZTAppqwOFsalwqteggahND0uDluWA3/5Qw7BoR0gRGTUAjWG5Pt5ZdUxwe9TaVqmz9cl7uiSdeoaXkoTrWbl4rHn27Qi7hyZCTbGbqPfDFN2wSTdxbI/RT0p1kfh97C6ihnJ+GHgtMa5uRtYUqzH5Nf5ZZHzaxtL1QTY+1WeoppRuJVNiyW2K1usX4YEihaqTUNpSEmL6JPv8rq0hEpSSEBPjmyrz8HV5Am5UPqlFGGqpW/VCYf3XvqmEl6Si1Rd5rBto9z3V0mnpdypxdp53u1bpPKz5R2kRVRGaqoxYOxpN1ZTzIMXuIcKqJOgz3Lf7Rlqu1z8kJOrO51vCJTHF5ZJi9/BzQ3kCPeQ9LJerkgRTaH37DLo/JrXtZ9iO58ME3e5pKbTqK4J2/5thnYz9T7PPHFrXyfONj5FqOSxVxG3x+vRJXeybBzE8IJG/Xcp4pchOBn5ZokLbXSoLW+ssWfZDv6G+Uo8cy3qc/+6SKdHUoS6qP90GXKOktPwfwR+poyyG/9C36YW6Cl2kD+KGchKoUV9cpu9rEybApSZobxp1z6CFQPp234TW4ablNi/BzRnL7yDV8V5442MXqRZDeSkXX/u2qVKoJlBSZlLsJ+RKh84D+cGOyw+E/Fnm8jTPK68CVe9EnsvT+lQm9C+loewJ/rOQYoTJLqW2PUbS+EXWbWndaRGWas1X1QStFqn0pNeATInrMuSfwK2nTNCNtLb+e8N+EfzQ1G+6MiVdBeKWbQmqa2E/2AWVlBdhbQAcOUe1shk0gZJbkoucS2NylDqpGss/OsCw1IoI26XUXGRvzX51jwKlfjh6kv12Ny9nMS0STYfBRy7VOS2XmRlSn+Sfb7G+3Z7xYOjyPRVh9RHw8TnlTAF1x/9rQKZE1FCeYrfQ9FFO0R8uQqQA8A7rg33uV+wemnSjifXfEMcuSKmXAV6nzQsJtERKIk2xAbRmm1qRVJXl/+XooNPyL4JsEZbXJqXaPqlNWfyLXKoQJ84GJF8QkrdMOL20yOfOYYPtLtXme6ql01IH7BFeWrQrqvDKa0SmtuWyjqvSp7nQ9pL7nGfdLSatrZNMp/BHWltn360bVnYFTcayd47fuyKlbgIR9HOnkEUBkEbiKbRkat7VBJVxKoE/xujIqNaZvm+FVCWOXga3W28+4+irsNR2KdX4pCri3W9sL/v0qzKKiXkW/FNm+V1RujzJIH9EKZYLp5d+DHf8vuUu1ep7GoTBsT6X7vDSwnAVjhYS+zUiUyJq2bZL5GAIK62VJ9bvNtKtG65S63dfMq23wf80qOwimUbollAJW1AxeQq+B0TQKg8KaRNUGbLYnyh09SVSA5O1rO6nuoBXPtRVSVW87koQbYeltk47zcxSRZPd7idhkE85vNdx+/R/naf8z8TPnKCvMRChdJdq8z21k0c7ZiZYAo9TWvSL/a8ZmRJRQznJ4bJ0Wb5IsUqqdv7aPpJ2Wv7n851iPfD+UAjYVjTYJtD0vvG+pdZ6gup58z56+Z1fY7AfzbAeDCkT/Fg5SdU7wXSdVIUMWsNTl8NSm6VUa+K9cVMYqgFJmpJvsYh8QWDqvO6TZJszXYm42/e0zPyvSLfLR3XPsuhfQzIlmqSXXZS2iBTLpJpY26KGOmcNZWznDdYH9aVG2tlVxA3lM0eZbVM4xO56LGwC64ZUx1j9ADtJdUS94VP4+YCSVJUk91OZMV9b/rP4VhORkSxfjA7o6vSwlFITZ8PGJ5VhqPlqZycZUxotvAhMztV8pQ0nGSw8AFp8T410qsmx3ee0TDR9WB7zrC+ZNuaAvVw0uQl5zlywNozPY4r+SFFl9vEh/iaLfoKLIcVuYwL3RyaFO06e75st0VLtte4z6osIm0fUso39bx23wCaJ35DqIlBgRKv2K3lw53H++blHw5zX6cEoyCMaqArLf5i9R9bswM+w1FGY3zfJoF0RR2We1NdoyOLP6VJGirxfKfJ2ujxJMTaT9a3AZOdv9T3V0mlXeGlJvFN9TJwpI5g3mZJIR4F8nYvsE2cfwNXCR7+2DZgEzw+wHviMp7WypjyVCX48RGh++Zveb95TjjyNys0YXm5h+3AlItkmLjIyacISqQZq6B7paKjbH30zTM3z4G4lEYq4zfJvh6WGcOtStcRGCVLsO1PuCf21zEdzp76MIalSit/d23CHkmeT7+lCOoU8aQsvLVIbopz2pSTTJiOYq67SuX5RpD/B1SOGW+/om8fyIoignaY3iT461O8dTYalFO26w/o2ksRl6FO/l2e0eHdGUshIl4lYD+H/62530uXkbJrHd5Wk+pGSamn5/0P7oK7ChKXKFilVncdzpRb46Mrin2XhqZJgoUgzcrXPaxBS+6sun2dcZOfPrDwDq9Akf56dP2q+XiustCeZMlmKQH4sd8fPr0lHNsPl4BdsFi5p+7KGrLuECM2uT3fRjqRcYqvM6Im9Rq5rgqPGTauZ2oxr5IEZtoilWH49hL/xhZPwNZGjwQqpasv/aVNMfjllypdASXmKoE7qesRsPiJpnpVZ/JPasdKXOGg7HchAntb1qszOr0i80ffUSKddPqdMFK0MYVFfMi31rVO7LJBXTqyuqJ4U289Daa47Kn9vQhpu8qf9hB8PHxvKTWKPLnC/uFY2Leu+w3aQYPOIcIXeCsE8C24uxcezgypy9M0yZQ//2yz/Vliqc6oUMz2KaDCYKOk1dZGRTmTCCxk5XtAi3NTpe6rriWddPqcmUXQfMqXagiqUpTR+jOIK5KOuD9WWMYF7SLhNKcTAfnYRNoMmXfAMPxb4rkaO8hT+7mEJ3MQ5w25n1NopBCQ6ZZC6WU/d56tXrZFqGfPv9gc1YamNU6VwehQl7Tq3CZzKMn2fCy4dqdLdxkpR4JS8zMR7beGldqJopVZ44EmmWl8KOweqTOb5t1s+eQG2DNeLkeLyCWgfm0HsKDvFj6U/pd506ihP0T3Ur2MK98hhhu8nkmqrsPKhfp6uSqulXrUHqS4s/w0ow1KdUmqhLlBtuMJQcykZ9bJCqCHmkctliu5S6lrOXPparVvFpG1KEztRdB7IB12+qcTL8OA+1RqLrFNGKs1+2wU/1QncBHRZceiR9XtThOoazXhlH/tOwPvY9JHmc03RDyma7x+H0Z2j1h8dtUn6VqXVhV61I9x0WVJttvybsNQmKVUd70PoeFECIU/V4s7hKRy5Meku1eB7qvS+D3mgcqaBFZBwg9KiTzL9n/Pu5NKFakB/yctr2hmplOA5uV4GPuerkOYiXBwR3HP9zPBjIIJ2b3KBxpd1n+sUzUTMbd97NNWF4E7fV0qrVvo8L72qIdVCym2J+S/DUs9cUmoRDaUDB2obMncHCekytdoBCl2sw/e0lE6PtM/pqoO9ZdGPfMjU6EuNamDHpFIDl46N93OKy0Nk/b6DiyN2lF2GLngXEKHZh3MTluw2P2H28y+4XP/Ra4PG0FNKqyQFZUjiEL0gHh+9Kknq3JAqSdgxFYoJS3VJqaVP6mk9VPUcN86k4yGqCxgr/ebpchucigRjl16VyaPbpjTZC7PXvmTKbFPL+tKdkkoN7BhkgxSXn3JuXPsd42Kof9wT/BjSqXEkj2rlfEf5TGe4OBLofAdd53CIAUvojOWnIUlJq7fsHKddelWS8YJUG6akLueweueSUhUZvmN0VL1N4VCY55xrSiz7oNJdihLo6nnF9FeNzzN3eKl2cxKHXmTKPKjhSCdI2U2plKARalorS+ExN84WUFfvxFgfEywTCvvFA3z/4PN0kWkK/Uw79fw9QKEgadkeQascBhWABa/kKHVp1UevakiVusomyz91mIFj3vrzLDxR0qv3sJA+rPa6RHDH5XtK6bQpvNQkiqb+uItMqS8t86COd1QqJWj9ndXKeJ8uI0vS2FFWf57rJjV26YPZL1N83+A1z7B6z0ii20oj6JN4mRzwFRcfcfhgHzsO72xTRE1a7dSr2qTqmpK6GPpDPhqN8mcr5VL8USfavCG8tK4LlVL+VSdNI526hvomUTTJtM0nlW0oY9uXQl+6u1IpYSfTNTAp586wfVBymaIyYlCqimv7tEW0tKEeXsnRxgzfL3ifeP+mtXI+R35IfsX2nmnq2X4EfY7H2K5ulcdQbLJIIG2SR09QzeAa4QoRkCQYDupbYUVapV41OPjS5tCvh/8idpFv4Y4k5f5K/SA/KcJQuy6gNtzX5CidulOXz6lJFN1FpqW+9GPh5L+GVEo3rhfBwRTbRQRtMLBHDnwZ7uJy/QhjaInK6G/jhv0m0OfrC+rsptb6ukmi6+A9Yp+htDeD/viwbfbxdbITbQox9P2Ja+UJ9MfxMkZFvC+++vYJNNFNsB1QYk5QeXhMoPvYcXncL2iOGLsUUEI9CyCOX4UHX/sQ65K0KrDfplddSKrqBtBXs769CEsd3XholxU+qbXZUOvkScha9FQehlFdCi0Smwj5h0NqLRJF50qX20qmWl/6pThWT6mUREpDXjnv1TpDXB+YYTA7lP0RIjHcxHZC/DYlFfm2E2FZot0UmRJGFULi4Et7VLb9Bpcj0ddhpPe6vjRBNXVHistDAn8ddYQqvHjT4AeP184+/a5/9e3fs6CYfVSKlHrRvsRqS6tM/qH0ql+b9KrW8P+obvnXeU7lH/VyWSfQLDutJ6EWeZYsXZDL+T/IJy7CHAX5szYyLVyiFvrSflLpMpGWXgAtOVkvgAk0kU5RXXuCSirdFiEkG2r7d499IiyTyybJdNdAwYJDWvs9SnCxqTs2gRm6h/8p9Idpiu1+iFLoft+XWFNsGVqHKiqF9jrEuiytNutVSZzzPPhV5uHrujTLNvJsdGiX5co4ZetRGfppTw1tyqr21b7Bsr9qkWC6nGbFRmHRD/BXC5lGSrerhy89pFInkRJK55pl55s0HMRY1VslWG/ysXXAF+aifp8puoetfP7UyUbl+kWmL9llxNBEWho7CySonucMVw8jIaaObUZHv8k+3oUUFbGmHfue4BIIVZgfhd+nDCaiFu+t1tMM8nlbrlAbhYQqxDNFIIo8v/3alJiE/p5MVm0blCih5jIYN2WsWgfMKPW4du4MK1XnuN9EpiRFTtgnIdN5dv7Al0j1FNR2DD8hGU77gUm0p5vL1E/pxQx/2Sa/0jNcTdRTDK1uiHvUMedM8kg79o1Q6cUoIV3FNfogwuosqwZdHzgKEibqydybE1ydNNqFCPpDHqMyjs1wtYjQfP8TbHCq6DaIekFJdopcxTM11I2sHb2JtZDuwuxYQETnmXuKEO4TjlaH4jT+tCUh0WQnHkrtf3pKn9LGePzF1CnV9uLcguywKetToS/lbqF87jO8dxKpkkaV9Kteivxkkx+HGibQkswMuzO/EVU2PKeoYTvPM0V/UozK/yl2F7zuKfQ5mus0v32ez6TcL8HuPM8uTLBbyWj4UWIfNPefo9lL/TCJto0uqbUPsVI6LIgZ8q2LwIqYeUXevtKvTtYs3tcuIG0i7T7HM1OUKKVs5COVuiXSrUijAwYMuCYQPju5pFZfYi0k0TCfBhJfXfNWFduVBPIUSYIOUK/rCj9V1ve3T/PPR131SciurFFaas3fK6n0XZdUukKklyONDhgw4BrAi1Bt1KVWX2J9pQ1c9zjViMt9yUeiexkeSPcWmRTeBi1oOoZRIbjOq77fskQ6SKMDBgxYRm9CNahLrT7EWkijQT7J8m+zdaKLXgV3vlZzYFXwlVDrKAxoSjxuk0qXiHSQRgcMGNCCtQnVhi21+hArpdVcKY59kjYvHSc4eMMMVfVypaP9tU9bWl+aTeb5+UmjQWtJIpWJEo3fZlmYDNLogAEDmuCy8o/XJQ1bamXLbcSq53T6G30kVRK3kMFKaNmT7LP3h4HXF6pzbCLgBZFKsa+k0beBmJ8wKTbWwEXu5YABA64fVoiIpBXI4JhSWQZ8YtamdYbnRmoNgDt9/FjbUEiWYU5fs3FV2q0/9UElkRbBDWtJowVZY74fBMEdpZqI1e39S5H9IQYMGPBDwCnZFRnoLXcgUfh0ySTP8CHD+WkfgjVSqyKp+2qY/+6ixFo/txzywUXaNEapXIjf15FGCyIOxL66SffUeRk/zALz7NvNHcxENWDAgC3BSajF0DoPXjPpibMW540KkMi5/JTBX5IrpNY8iBmj30SChqBkLk+fYtXwU0ZiLZJkuEirSHqC7DAPRIQ8T1zt6JDUIIaQp32k0SKbVRDGLgJdgFNOC3nyOPvtAQYMGPDDoFX3WAxhmUJPCuY+VfpL+Qt1i6rWMoksCDZXEuzotIucdJTUPArm+ZkdFVVMdCeqpBAup/1y2P+nOe6T/PMtu+0ym5UdD003gEcmsGBxbKGO7SGNGgJlwmupJWOrXR2RwYgtKfG7FMogt6ck+L+vRCqNGspT6HOuE795RmNHnbPa9rFj23iNuuZ8bHA71SKRVd9E35h2IriRthxnE+dqb3fhou023duuY6Qt25raWQeR536pR50+5xSjirojTrEcYedz3RH8kWK9Z7lyTWtZ+Q3RcpoSqaTAVaJVVnEpPjVJhw1tRqV+tI4zZcVfmsbZDPvr7lJFwhPhTJxxxkkHfaRQJm0ZBXuHikB/KScLHO8YcTZhguXJ+HjOTFgxhe4E9sRqSbmN/xmTfWi1w3p2bDa3vS7rchuDM95Ad3iWx1bdpNyelOsxquQthijtmGp7TvkTq05UHt9I+DzePSxfG+Pdj6w6r7GcujCxzmVctnG/tv0DquQsEar49Hr9JsRYTaqcYPka7ftUvwf1+tx2q3aMen1e97T83XX8evo/WPUNJlieAeETqnymZltUrtcJxBCMnatgBv2sxrU6Ufmfz/kR3OTKOiZ89Hm5L8vM9bONP8rtPC+73yaonhf3+wo3wbrKBJr781tUfZP9zSQ4T+FIbr4RtymDZqKVp3SCbxrGE9ootGrBX5yoxNREWjFRsyI8RZ75XeMPWpduV5DNo3qmKn3O/xXtYS9GiDvqXKnrPdtx4mxDhCpBBH/b18sOOIV7VkzeN6NGIcHUJ2gziaJd06d8LY+VQL9YLnCf+ovMDvwFVcq3s9o1zLCcg9OUA80ze5pzqdc1YPn98pg34cbHcvsD+MMcN+1o1ySxaapPuO5/V30T8JJg9RlMoEmXYHKZE0f9uGzfdV8jVPd9huX7YurZhFo/pmmT7fB5j9HcV47Lurz+N4722Ibdp6eoPgbCcc729bj6KY/xsFZ3arVZvy5Y5+Hs6yNsEIUEOC9OIFHWIqu8JFqlc3yBg1hAKtJSL1CWnZohv1IVpCO7Ug2UPJUEioJUmY5PBg9JploFkPGrFjfV5WSBj0syXdKvlsipR907f66Ic/UlyvA9gCQyRfN0IUYCjKGJk5JbUm6LyrqbnrdpUv5PsCytpFgvefD3At5/vhObugcz6I8liSyGm1DNR2aGfkjgn3gkhb6mh6iG9KfWdp7fpKEuz/k1+iPp2H5Sno8NM5KJoMnT/thPoKXiW00NbpRQm7BEtEvl9NOMI+ZJ5fJCHDxX5PesqZ2CVMPb++fz8MFemJ1oD4L8oxqaR40HV8N1RZiPyuNF+MffePz3/81WuPv7IE4X2HHZSUim05b9eI++lL/ZeU2nYadKsPnpNsyQ8LA8t9TadoQfD7wHZuJC3utP2NwHjMNWvlckCte9jbF+bts+05Gn1u9xbZu9znMlic3Kdf5mf1wZYTaA+0/Rff8SrH5EWJeClVGXHJVtReV5PW9r91IItQmlTnMhnTCV34vRf69MfWJDkSeCMDs8z8JHjHbKpWj8klMStqOhipkB/saPhAhaJ2V0qW04LffjS72PqkPy9y1sHjweX3C+SOy8tvR8hh8PKfRHjR8wc082NakiCfoZKik1sbZNyv8z9Afb5IwLJ577/2L9TmvbuM5rNXpZ3oc7qAgshT+Mrt8HLtVOAn1N/NjzGmfl/xQdgoU3ob4YKb2llh7PhDbSLE1RIsoLlkKcyVxPbFYM7XO9b45q3wzz8vc/zuqGolInmsAH+XpSkz1bQIhR8TuAWJQZdYAI8JPSA5sv51iWX1Ehq32LPAZKpcAJAHfM55S6PHZK87X2Afczxp+HqDpmis1jhkrBz+W4PLaPauFOQ/kY1xsz6A+YuS8cKTzAxcHnmECT6UMsv1/8qPkS4hiVrpe/p/A/vxhVztemZ2w+KAbcn6RmRliXCV5XjMqgS3QKFt6ESulRWdfvFNb1hTVfRGY7teIkFrUUGl4ad9SPMxkW65wIsCJOeaMU3XO8ErdT/goz+eX/4X995hfqjUVILPSkfkrK1ecfYBxI+VO5W0WYlINJmnm5ZiXaLtqwVdjq47KDZEqwI0bl7yP4DdlNZ6dUy3uRYvNDfftYVOxPUVnfD1HNbNr2AsXo5xZzncBnxQ8GiXUCLQFu4hnwfsaoSIL3PyrXfUnRPJ8+IIEbHe4M7R/oWXlexqsEqIg7wmY+Lr4wwoQ5dy/BoteQf56Fv9K4lI2MhKmudIct4CaWvhjqZ44hTY7eKOat+sffBfGG81GUZaN0R6Oh2BHMi8mRBaWQ1KOeLa1se+idQpPGFMsuPlynDjFpqNdkXKMl97pLqQT1ksYizueY4OJIUA2pJ6jUADP4j0C4ryE1tvPVow7VSPxgxtBk/Khj/5NymWLZnWsCbdRKcHmwjWGpT4VehLowLs2xERiXpcUQu7T+P95A3D9B8n+Z396nRMrhO2dWpeuWT/BB8zmren8viCbFboOd37yYHErdxW4ihVZRUDozHZi/E/yYSKFJ1bgRcsSwiY+bMU5RtTKDJrk+RiUbbUP3Oux+yGvx6YdT6HM0fqlEjB3vE1s3Smk3pW+Rord9ORK/KJ1kVPimgrpKfFBj8NMsC97YBGfCQrN8udwXRXpApd8t55NKisK8DH1FEI9E9uwlDtQ5yFMIcboJot1RnEJLc3yJYvgP/fvA536NHfuR4OsO3sZlhf3jJ3xfcN2DNiSojIQRNgNKXKYvTLDe/F42Zp77paiGzzHc/ZDlRodu1+P6R1wTbIxQm4hTijyS6jBav1rMS//hPA/0bKfWkJshnghG99SO+4oM31Jny1lQp+dx6iK5qZ5emsPvQu3wAnGcqQcQItunhKtDTIPJi/wAJmKrbvDSuQUEw0rviTB4TT9YRbRnq0Q739VhvQ+m0B2VJGWGjxd5ier4vWx7v2F7DE0mp47yI6wazLYp/RvPgghugovQT6dokFptNrW7j/73nffnF7T4WPcEj5+giizbhE5yAn1Pu6RO+2PpUkFFZVskXteHh2Uz7DguTKhFur88ODbEWYAWKilSRY6Jst98Ot87T1y6VpPoWScaQZqL/J0iveckQ0WQh+fnOmxwqvvTWPurxqbTMtl+hPkI/w5vx1mGJAyzfYaoFtOtZN9OH8//M9XEislLefuZnrKkcqNyE2xQxO2rfZmEBSIU6qpuGKI9UXrkRzssxdr6w3+i8tszQy7CDP3PPNoYoxvmReG+xk/PIEblx5o46j4s659Z9VknxapRyudcuvadodmCboajKfoPK43Bx1yDLWVF0BLWDM0fibZrs30iu+Bzjyj1xvB35O9qk9ebwA9G2mxSQbHc/sjG0M+J/YP3Ia3tv84oZhP9qBECG0CRAQriPkM20UKgBkWY6Si4p0hrovSmJ/ZU0HoaZymYzMSepVRPCT1KmZR6by8Yn5/fSOmPqki1sNxzbqciGksGPz/JPr/jOYlA/HQ+D95qw5SetjrI1cuvzjPP8O4p2rP8VwQrCzcdn9lQrxDsqHGtzHbm53+j5E/hNuyYEFO7I3Ffvght9+oQlWU2RZVsgtJIAvfLQCI1RjPiDFWsuiFZAxPzb5/XDBUhso1jrMbyu44boSIoHuPU41x9MEEV915v96Rst/4R47b3qMhyBrfUGMMdGlqvj/Lc76KdvGlMeoRuQq3f9xSrzvk8B5L0UVlW70Pc/025D1CFe5ptb7GcG8IITNz2qfzP+2ffuwjLeRdMW7w/CZbR1KebDJumfaOesOslWI7tX8FGCNUHy9KoYPjpzCbS0rXptR7uFyGlkdr/kMRKiVPtm5BImSGKRMd9SJq5MmLlWZious+YLq9M7/cnSVUnXMmU9Cyfm5j/+qwCTORin8d3jqi2nnZsb9vXhRiriTpSXBxRQ3la/l+MWmowJO3CPqphOnGKzahCYiyfb50MbLjOO23Y9xBV1qW2+kD7dZtzTNH9bJrabzte1LBPis2hz3VHaEbas/2mYyywdUK1pVG1Oq4TKaGlUkzm+bdfWW7IVRHkr2Ziv6f55ymTogT5/CQfBWMSJOeYUuuzLAz3A/qXBvK0KNdBCF8NqbIt3oSV41I1sJgaWyabSIA9YMCAHxcBtgSS1cvg4EuRQSrHRJHWOyaDphRpS6VFKj4h43ke3DVkSqmS0zpzn1Eon3GW1MJoxaE6gnEwH52Zs2dyFTXsv0dJVihypCRMg5Yi6LvMjUq9K4k5F+KPvfDGx3/r6awL0Hj1OP98U5H8AzryBxDHr8KDryRqDBgwYEBPbI1QSVYywAdFpM8VWd5UJHdUl0pHYf5FCvFJS6Jaz8lkJyLLHnFfkrJQbMzfMtx7yMz6RTZ/fPuzOHkpf+b/XIq/SKSKRN+ORnmhJ8yy4IiGpTLhdBHplUM+UqT5WrV7bIef2sRKC78i8IFQBwwYsPswUqmSXv98Ed4+tMrHL0cHX17u3T5arCsJ1xCfIkEq34uppEtLf5lo2kjDuh7LtL+pPpYi7q+GVO0ySqK2tDpgwIABF8XWJFQXytylxxxeK33pLZOFvygfMQ0fPj0511OVjIL8GSVcSqfUwyoptHABUhb3X4zbkkBw9hL/+vk8C09K1ysmbHnOWVvLsNMU4ZyRIG8MqbLsPA9uKX3pp0AqaXXvX/sYMGDAgA3gkgk1OeOUzyQ0S49akCmd/KkWKMsiZS07zObfZlwXYUhXp0S3IhYEmEv5lwzDWwXBSjE21n8JmSpDVtEWvQI41Fc/Zxapnj3NPk+e5J//2XeW0wEDBgxowqUSqkHNMZ66z0+08JsC6lHzAO8qnas81DOTxmNRnxRLarcItmHyqFJK5RQpRvosLPeBIlUp/4kBAwYM2BKuNME0UQzL51UWcZJmLvIPRjqlflRJnEWMPYf+UgY2oaaLbP1BfiJkQD3rtHSdei7zkNsKCdSoEgYMGDBgW7hyQq2jzGi1IFilH01QRj9w3qm98NsDkwMgy4OZ2S+bj07xj79vmalMaNXHgAEDBlwi/j8uit1s2RfVagAAAABJRU5ErkJggg==;shadow=1;rounded=1;clipPath=inset(0% 68% 0% 0%);container=0;" vertex="1" parent="n95YTxJWQmj0WxtYeSWK-22">
          <mxGeometry y="10" width="103.02" height="88" as="geometry" />
        </mxCell>
      </root>
    </mxGraphModel>
  </diagram>
</mxfile>
